<mxfile host="app.diagrams.net" agent="Mozilla/5.0 (Macintosh; Intel Mac OS X 10_15_7) AppleWebKit/605.1.15 (KHTML, like Gecko) Version/18.5 Safari/605.1.15" version="28.0.7">
  <diagram name="Page-1" id="dagaAXaFSe7E9D7y-q4T">
    <mxGraphModel dx="2027" dy="1189" grid="1" gridSize="10" guides="1" tooltips="1" connect="1" arrows="1" fold="1" page="1" pageScale="1" pageWidth="827" pageHeight="1169" math="0" shadow="0">
      <root>
        <mxCell id="0" />
        <mxCell id="1" parent="0" />
        <mxCell id="7exQK_hhD3LWKkTpT82m-1" value="" style="shape=image;verticalLabelPosition=bottom;labelBackgroundColor=default;verticalAlign=top;aspect=fixed;imageAspect=0;image=data:image/png,iVBORw0KGgoAAAANSUhEUgAABcwAAAKhCAYAAABtgO0dAAAAAXNSR0IArs4c6QAAAERlWElmTU0AKgAAAAgAAYdpAAQAAAABAAAAGgAAAAAAA6ABAAMAAAABAAEAAKACAAQAAAABAAAFzKADAAQAAAABAAACoQAAAADVQ8+KAABAAElEQVR4AezdB3hUxd7H8UlCOknovYM0EVGwgIqoiArYFa8XULCA2JEuiCL6UhUVFFARbCgIoqKADVCkXUFBRKr03gNJSEKSfX9zJDEESCGbZDf7Pc9z2FPmTPnskt3975wZP8OCAAIIIIAAAggggAACCCCAAAIIIIBAOoFKlSo1DA8P/7xhw4YlmjVrFunv7x+Q7rRPbMbExCTMnDkz7siRIz+uXbv2bp9oNI1EAAEEEEAAAQQQQAABBBBAAAEEEEAAAQQQOFWgdu3a26ZNm5biYnE988wzMXXq1JlwqhB7CCCAAAIIIIAAAggggAACCCCAAAIIIIAAAoVeoEKFCg898sgj0cTK/xFISUlx1apVK7Zs2bJlCv2TTwMRQMD4Y4AAAggggAACCCCAAAIIIIAAAggggECqQERERLNrrrkmMnXf1x/9/PxMo0aN4gMCAhr6ugXtR8AXBAiY+8KzTBsRQAABBBBAAAEEEEAAAQQQQACBbAoEBgYGKTiczdS+kUwm/upvDopvPN200scFCJj7+AuA5iOAAAIIIIAAAggggAACCCCAAAIIIIAAAgj8I0DAnFcCAggggAACCCCAAAIIIIAAAggggAACCCCAAAISIGDOywABBBBAAAEEEEAAAQQQQAABBBBAAAEEEEAAAQkQMOdlgAACCCCAAAIIIIAAAggggAACCCCAAAIIIICABAiY8zJAAAEEEEAAAQQQQAABBBBAAAEEEEAAAQQQQEACBMx5GSCAAAIIIIAAAggggAACCCCAAAIIIIAAAgggIAEC5rwMEEAAAQQQQAABBBBAAAEEEEAAAQQQQAABBBCQAAFzXgYIIIAAAggggAACCCCAAAIIIIAAAggggAACCEiAgDkvAwQQQAABBBBAAAEEEEAAAQQQQAABBBBAAAEEJEDAnJcBAggggAACCCCAAAIIIIAAAggggAACCCCAAAISIGDOywABBBBAAAEEEEAAAQQQQAABBBBAAAEEEEAAAQkQMOdlgAACCCCAAAIIIIAAAggggAACCCCAAAIIIICABAiY8zJAAAEEEEAAAQQQQAABBBBAAAEEEEAAAQQQQEACBMx5GSCAAAIIIIAAAggggAACCCCAAAIIIIAAAgggIAEC5rwMEEAAAQQQQAABBBBAAAEEEEAAAQQQQAABBBCQAAFzXgYIIIAAAggggAACCCCAAAIIIIAAAggggAACCEiAgDkvAwQQQAABBBBAAAEEEEAAAQQQQMC3BKr4VnNpLQIIIJB9AQLm2bciJQIIIIAAAggggAACCCCAAAIIIFAYBBoFBAQc1dqpMDSGNiCAAALuFCBg7k5N8kIAAQQQQAABBBBAAAEEEEAAAQS8QCA8PDzsiiuueL148eJ/uyNwPmvWLJOcnHxKy3///XeTmJiYdmzJkiVp2zt27DCrVq1y9o8dO5a2nZYgi434+Hjz7bffmo8//tjs3bs3i9ScRgABBLIvQMA8+1akRAABBBBAAAEEEEAAAQQQQAABBAqFQNOmTY99/fXXke+//36N3AbON2/ebF566SXzww8/pNkcPnzYfPbZZyYmJsa4XC4THR1tJk2alHZ+5cqV5r777jM2nQ14qy7OuePHj5uUlBRnPXHihHNtatA99dHm9+STTzrB+OrVq5vHHnvMJCQkONfb8uxi80hKSnLKtft2256zj3aJjY11HvkHAQQQyChQJOMB9hFAAAEEEEAAAQQQQAABBBBAAAEfFLAxkge0NtYaWsjbX1kB5TDbxhYtWtg1cv78+ZF9+vR5c926dW/v27dvWU7aP2XKFDNixAjz3nvvmRtuuME8++yzxs/Pz8yePdt0797d3H///aZSpUpmzZo1p2Tbpk0bM3DgQPPUU085x+fMmWN++uknJ4j+9NNPmwkTJphbbrnFvP3226Zv375m7ty55oknnjB///23KV++vLn55pudAPjo0aNNkSJFTL9+/UxoaKgJDAw0bdu2NYMGDTJ169Y16k3vlP/FF1+YTp06mZkzZ5oKFSqYWrVqmQ4dOpxSp7PtqBe8//79+3vpfPuzpeH4OQvs0JWztP5yzjlwIQJuFCBg7kZMskIAAQQQQAABBBBAAAEEEEAAAa8UsJNgfqX1d60/a/2nm7I2CunSRAHtS9W2INu+PXv2mO+//z5hw4YNQQo2fx0VFZWS3XbbYVi+/PJLp7f3H3/8YbZu3Wq2bNliJk+e7PTotvu2F7gNXnfs2PGUbC+++GIniG6Hc7GLvaZKlSpO7/A///zT2KFaFixYYDRkjLHBdBsgt4sdjsXf/59BE4YMGWIWLVrkBOYXL15sg//OfqtWrUyTJk2cQHuXLl2cgPmjjz7q5H3o0CEnYK42ZztgHhQU5NK6RD3UVzqV4B93Cfgpoxpa39E6WetgrSwIFKgAAfMC5adwBBBAAAEEEEAAAQQQQAABBBDwAIFBqsMnWod5QF3yowoJCph3UaA8TL2zE8aOHRsQEhIyTsHg4Vp3BQcHf5TdSqhnurn33nvNgw8+aDS0i/nwww+dscy3b9/u9AQvXbq02bhxo9m2bZsTmM+Yb8+ePU3r1q1Ny5YtTc2aNZ2e4Tt37nQC5+rpbn755Ren1/rUqVNNjx49nMvr1avnBNp//vln0759e2OHhClRooSpWrWqefzxx52hX2yP86JFizrpbW93u6hdTs/0GjVqmK5duxrb4zy7i6516YeEBXFxcd9m9xrS5UjgXaW2dzbYH674USJHdCRGAAEEEEAAAQQQQAABBBBAAAEEEEDAvQL7lF1J92bp0bndqZ7kyQoqn1BQ+TXVtEL62jZo0OCjadOmaajwrBcNk+LSGOROQg3z4vrggw9c69evd7366qsuDdXiUoDZtXDhQtdbb73lmj59elqGNo2GaHH2V69e7VJPcpfGOXe9++67Lo2r7lLPdZcC567vvvvOtXv3bpd6mKddazc09rlLQ8C41MPcpZ7lzjlNIuoaOXKka/ny5U6dli5d6hzXECwujZnuUm93Z3/evHlOOvWEd/az849+FDisYWBuSO/EttsFhivHZ9yeKxkigAACCCCAAAIIIIAAAggggAACCCCAQLYFbDfk/dlOXTgS3qLhRZ5VU04JlKc2LScB8+wEmwtDGgLmqa+OPH18UrnboDkLAgUqwJAsBcpP4QgggAACCCCAAAIIIIAAAgggUMAC/4zXUcCVyOfiv0pMTLRDX7Ag4EkCLk+qDHXxXYF/Zkjw3fbTcgQQQAABBBBAAAEEEEAAAQQQQAABBBBAAAEEHAEC5rwQEEAAAQQQQAABBBBAAAEEEEAAAQQQQAABBBCQAEOy8DJA4HSBwMaNG59+tJAf0aQoJwp5E2keAggggAACCCCAAAIIIIAAAggggAACmQoQMM+Uh5O+IlC5cuUGERERI2JjY68NCAiws237StPT2nneeecdS0pKGrt58+aBaQfZQAABBBBwi0C1atWK6W9sI014lbBz587FbsmUTBBAAAEEEEAAAQQQQAABBNwuQMDc7aRk6G0C5cuXb+zv7/9Lv379gjTrtb8C5t7WBLfUd+vWrcFDhw59+qeffrp4zZo1bd2SKZkggAACCJjatWuPPnHixMNNmjSJPX78uAkJCSmSnJzcd8uWLWPhQQABBBBAAAEEEEAAAQQQ8CwBxjD3rOeD2hSAQIkSJUa/8sorwR06dPDZYLllr1q1qhk7dmxE/fr1r9CPCB0K4KmgSAQQQKBQCehv6Y116tTZdttttz3w119/Bc+YMaPEnDlzSnzzzTeRF1100ZDzzz9/bqVKlWoVqkbTGAQQQAABBBBAAAEEEEDAywUImHv5E0j1cyegQEUJ3SLf8M477/TLXU6F5+oHH3ywWPHixe8tPC2iJQgggEC+CxSpW7fu2xUrVpzy5ptvVh42bFiYepWnVUJBdPP5559HPfXUU811V9NqDdfyVNpJNhBAAAEEEEAAAQQQQAABBApUgIB5gfJTeEEL+Pn5FY+KimKyy3RPRJkyZYwCOGXTHWITAQQQQCCbAhUqVLjZ9irXD7Edli5dGnnddded9cqHH344YO7cuUGXXnrpi+ptvkA90uudNTEnEEAAAQQQQAABBBBAAAEE8kWAgHm+MFOIJwsoaO7J1SuouoFSUPKUiwACXimgQHlYvXr1JlWpUuWjt99+u/xLL70UqvkxsmxLjRo1zJQpUyJ79uzZLDg4eGX16tV7ZXkRCRBAAAEEEEAAAQQQQAABBPJMIOtvcnlWNBkjgAACCCCAAALeL6Ce4XcULVp0yz1aFi9eHNm8efMcN6pTp07+mnQ5sFmzZgPU23yphgxrmONMuAABBBBAAAEEEEAAAQQQQCDXAgTMc01IBggggAACCCDgiwKa7yFKvcon16xZc6KW0s8///y/A5WfA4h6p5uPPvoosl+/fk0CAwP/p3wHnEM2XIIAAggggAACCCCAAAIIIJALAQLmucDjUgQQQAABBBDwTYHKlSv/p2TJkps7dux4x4IFCyLVM9xtEO3bt/dfuHBh8FVXXdW7fv36v6kHe2O3ZU5GCCCAAAIIIIAAAggggAACmQoQMM+Uh5MIIIAAAggggMC/AhqrvJSC2NNq1ao1bvLkycXVGzz437Pu21KQ3KjXeoR6rTcKDw9foN7mL7ovd3JCAAEEEEAAAQQQQAABBBA4mwAB87PJcBwBBBBAAAEEEEgnoCFT7gsNDd2k8cZvnjt3btQll1yS7mzebLZr185P46KHXnfddd0VqP+zYsWKl+dNSeSKAAIIIIAAAggggAACCCBgBQiY8zpAAAEEEEAAAQQyEahatWp5TcT5Vd26dd+YNm1aRK9evYIySe72U6VKlTLjx48v+vLLL9ePiIj4sXbt2kPdXggZIoAAAggggAACCCCAAAIIOAIEzHkhIIAAAggggAACZxFQsPxBf3//jQ8//PCN3377bVSjRo3OkjLvD992221+S5YsCbv++usf12Sj6zRsS/O8L5USEEAAAQQQQAABBBBAAAHfEiBg7lvPN61FAAEEEEAAgWwIaKzyKupVPqdBgwavfPXVV2FPPfVUYDYuy/MkUVFRZsyYMeHDhw8/T5OOfqPe5q/meaEUgAACCCCAAAI+J+ByuVK0+ly7M2uwPFx+fn6gZIbEOQQKiQAB80LyRNIMBBBAAAEEEHCPQLVq1boFBgZu6Nat23Vff/11lILm7snYjbm0bdvW9jYv2rp16y4aKuZvjW1+nRuzJysEEEAAAQQQ8HGB+Pj4w0ePHiU4nO51cOTIkRTtxqY7xCYCCBRSAQLmhfSJpVkIIIAAAgggkDOBypUr11Sv8rkXXXTREA2/EvTYY48VyVkO+Zs6PDzcjBo1Kvy1116roXHOZyhwPiZ/a0BpCCCAAAIIIFBYBWJjY+d8+umnRwpr+3LarvXr1xutQbt27VqY02tJjwAC3idAwNz7njNqjAACCCCAAAJuFlCv8qc0VvlfGnql+eeffx5Vp04dN5eQd9ndcMMN5n//+1/ELbfc0ln13qaxzW/Mu9LIGQEEEEAAAQR8QWDPnj2zt2/fvuDpp5+OOXbsmC80+axtXLlypencufORpKSkXmdNxAl3CYxWRr3dlRn5IHCuAh7dc+pcG8V1CCCAAAIIIIBAdgQUXK5XokSJt9WzvOGQIUOCatSokZ3LPC5NUFCQGTZsWFirVq3C+vbtO+XQoUNxCQkJ21VRbqX2uGeLCp0UiNfjSq3vaV1x8hgPCCCAAAIeJLB27dpbk5OT3/jiiy+6VqpUKVadCzyodvlTlbi4OL+YmJh4PfbTDwiT8qdUSkEAgYIWIGBe0M8A5SOAAAIIIIBAgQhUr169l+Zuerlnz54BnTp1KhTfAK+77jrb2zyya9euwd99912R6OjoFzXe5k8FAkyhCJxdwE+nQrVeoXWB1ru0fquVBQEEEEDAwwQ2bNjwpKr0dGJiYh0756WHVS/Pq6M2x+/du3dTnhfkIwVUqFChpUxrpKSkLJLrnz7SbJrphQIEzL3wSaPKCCCAAAIIIHDuAuoh1TAqKuqdRo0a1f2///u/wCpVqpx7Zh54pZ+fn3n77beDf/755+A+ffq8pKD5DK2PaszNOA+sLlXybYElav7fWvtrJWDu268FWo8AAp4tkLJ79+41nl1FaufpAgqWj1Qd9+qz6kKtoaVLly4XFhbmp6FuAnbu3LlHn9HrFSlSZMOWLVviy5YtW0bb5XX8D13XSelTlG5aQECAS3c61NyxY8dfyivZ09tM/bxXoFD0pvJefmqOAAIIIIAAAvkpULNmzf6BgYH/69evX5OPPvoo0p3BcvVUN126dHHWw4cPn9Is9aIxzz333CnHMu5s3rzZLFzovnmkmjdvbhYvXhz5n//8556iRYtu1fAzd2Qsk30EPEDgC9XBThpQ3APqQhUQQAABBBBAIO8EGqkDxwitizRG/q/6TD7yxIkT9kfzkgqKv6/Pyy10J8MntngFxu9RT/SbKlasaM8301pbQxCW07HPNEzQdUr/qk3HgkBeCdDDPK9kyRcBBBBAAAEEPEZAweLGGqv8nUsuuaSWepUHa9+tddu/f79Rzyvz3nvvmeXLlxuNcWn0gd4oKG/KlClj7rzzTnPgwAGjLwHm008/NbGxsaZDhw5GvWbMJ598Yq688krnunXr1pkrrrCjVLhvGThwYMj1118fot7m7xUrVuwujW3ebdOmTdHuK4GcEMi1wAHlYAPmp/7SlOtsyQABBBBAAAEEPETADueTlL4u+qwcHB4e3sMe0xjxl+pht9ZwBclL6jFSAfQQPdbSulDbf+ixtHqa288LlbS698O8MmRBIL0APczTa7CNAAIIIIAAAp4u8JgqeHVOKlmrVq1B+jD+iwLHjSZOnBjh7mC5rYtuKTU33HCDEwSfPHmysWW88cYbpk6dOmbjxo1myRI78oQxX3/9tdGY4qZUqVLmww8/NKqT6d69u9m6datp0qSJad26tZPO3f80bdrUaIiWqI4dO96h21i3VK5c+T/uLoP8EMiFgM+NiZsLKy5FAAEEEEDAGwVcCnbvUzC8nXqHl7JDrmjfpc/JCXZVg3ap5/ibCox30XqJDabr2C8nG3pcn1/LaXuHjh9WuuHadgLtJ8/zgIDbBQiYu52UDBFAAAEEEEAgrwRCQ0Nv0O2bc0uWLPmryrg5q3Lq168/o0WLFt01NElIu3bt8iwoZ3uG2yD5Z599Zu644w7z8ccfO0Hwbdu2meLFizu9zW1d7bArNmB+9OhRox7vRoF8o17f5rLLLjP6cpBVc3J9XkPRBCugX6xq1apj7aSnuc6QDBBAAAEEECgcAsfUjNKFoym0AgHPFNAY5N30ebeYatdHwfKqWqemq2lXBcUf0No2ODh4vs4laru6AuTv63GG0jXSdlE9DtNwLc9ou0m6a9lEAAEEEHCngHrY1VSQ4rD+2OZ4efjhh10//vjjKdep56BLQZm0YyNGjHBpHFtnX+N0uRREcel2fGe/d+/eaemys3HzzTe7Hn30UdeDDz7o+vvvv7O85Nlnn80yzZkSLFu2zHXBBRcsd6czeSGAAALuEoiMjBz76quvuiZNmuQ6//zzD2cWOFfvlXv0t/PQmf7WufuYbiN13Xfffa4nn3zS9d///te1atUq1/fff+965plnXJ06dbK9Z1yPPPKIa8OGDa5u3bq5nnjiCde3337r0uScLvv3WuOfu/744w/nfUJfJtxdvdPys+9J1apVS9D7YAV3PTfkg0AuBOzEXTVycT2XIoAAAvkhUKRcuXL6+HF+0LkWps8mlc/1Wq5DAAEEEMg/AcYwzz9rSipEAvbWeQVtnHFnr732WqPAg3nnnXec8Ws1uZpZsWKFmT59ulmzZo154IEHnJYrAOKcV6DHaBzZ08ayvemmm5zb9hs0aODcun/dddfZydpMq1atnOujoqLMm2++aebNm2e+++47pwfjBx98YHRLk7n77ruNguhOz8ZmzZoZWyc7Vq4dBsDWQQGjHOnHx8fb258uytFFJEYAAQTyQUC9UuyYhs7fQP0IWezzzz9voh8nP9DEQRsPHjw4RKc+T62Gem7f+9BDD9lxDvN8Uc938/7779vxF01YWJhTnv17rt7tdtIio14yZuzYsc5x+7dct5KaIkX++Rhm3x9St6dMmeKkz+sK297wt912W8LUqVNvVFnv5XV55I8AAggggEBuBBSovlrvpw/pF+Bkvaf+oTlA8nzCP1umPl/8lFpvvXcOU9n7oqOj39GxQ6nHc/j4itK3y+E1JEfAlwSeUGPtD0u9fanRtNXzBAiYe95zQo28QMBO2Hb77bc748/a4PnQoUOdIPhbb73l3Hb/8ssvm3Hjxhn1KjylNXZ8W5t+5cqVzvHUsWxt4OKbb75xjttJ4+wt/TbAYtfUxQbEH3vsMfP777+bkSNHGgWITJcuXYx6uZuffvrJ2OD5qFGjzKBBg4x6PTgTztltW6ecLpq8royueTOn15EeAQQQyGsBBZqrpy/DDn+iSTWLKfjbWEHnMQo+2zEQv7FpdPtmaTvhZn4uqcHy1DJTA+Gp+/bRBs/THz/bdvpr8mJb7z32x9ESeZE3eSKAAAIIIOAuAdujW8OZDbLDsp0c69hmHaD3sUF6Ty2hILoNZDfSsWZaS+qzwmsavs1fx2/VGqX9SXqvfULbm9XRaai9uFKlSg31I3x7HSun9VMFxmerI9Ij2r5Up79Sfke1/YbKGKrvZx/ZO5OVj51oxPmRWcfHKk2yPncMVll2bpVF2j+oa+7X46L0eRctWnSuflB/VsfL6Xi40rIggAACCHi4AAFzD3+CqJ7nCeiDklm4cKFJSEhwehHacWpjYmLshy5Tt25dp8I2+KFhAkzNmjVPa8DgwYNN165dnXFr7Vi2sbGxzrZNb8e5tRPDNW7c2Omhnj7YbfOyvRI1xIvp0aOHDQQZjT9r6tWr5/Qi1wcwZzxcTW7n9DbX0C/OeLi2nhEREafVI7MD+kC4XR9K7QdOFgQQQMCjBPSl1HbTfsRW6pdffjGvvPLK0eXLlx/R3+aXtNoeX2mL/v5plKlll15++eV83klT+Xdj6dKlMXrvWPvvEbYQQAABBBDwPAH16K6rQPRSGyzXkCYjVcOj9v1LwecwPdqxjvvp/BYdX6vPCXP02F/nvtBjeQXIH1UgfJbOj9J+J11/kY79rvP2F/VwBcM76fw0fZfboGOX65xNM1OB8P+o89JKGyxXOtsZ6W8dX6XzI/Q4XGV+qM8du1XeIOW9T9f+qe9fR0NCQppof2P6vO13RX1326/jo3XdVzY/FgQQQAABzxZg0k/Pfn6onQcK/Pzzz8YOlzJw4EAbqDGLFi0yt9xyi9G4tc5QKbbKF154odPjXGPYntYCGxi3Pc9tQPvWW2816s3g9Cy3k7/ZoVROnDhhmjdv7vRUT99T0fYw15i3Tjlt2rQxd911l1OGxr81N954ozNhXN++fc1vv/1mGjVq5ATr+/fvb5577rnT6sABBBBAwJsFFixYYO/yOaqxwrfNnz+/h37gq5oxWG7bd+zYsfEaBiv5r7/+ypfmzpo1y/kbfabC7J1A+rJthg0bZut1piT5emzatGkuuRzULe1f52vBFIYAAggggEAOBdQ7e4suaWgvU8C6tx5sb/LiCkL7K1B9QkHoifacAtJ/qDf3Qe1HntxfcfIxSucitU7T54Wd9phdbPp/Hlx28pBSus4Guu1yUOmcPP7ZPe3fUjq/UT3ed+tMKa0uBdcDNZG3nZDQWdLnrXNldXC76n5QjzH/pOBfBBBAAAFPFvDz5MpRNwTyWsDeWqceAsvUq7tYbstKPwatzSvj/tny14epU8ayPVu6Mx23ZdhhW/Thzjltg+3q5XCmpNk+pp6apnPnzr8p2N842xeREAEEEMgnAX0RHqwvzn30d+9RfVl9N6tiq1Sp0lFp333++ecD9Lft33GusrrwHM5rMmij+hlN9On8bd6yZYux80ooOG1mzJhhLrnkEmcuC3vHkL1bqHv37uZ///ufMzeFhpQxpUqVMnYM89KlS5v27dufQw2yvkRm9ofU4xr7/aDucGq9Y8eO03/ZzTobUiCAAAIIIJCvAvrO9pi+N7XQe/ouFVxD33m66LuPHR5lvY7bXuZ1tP2dhkpZpQ5JE3TsA63V1UP8HfUg76RtO5zKfsXYn9N73yHl1zL1vLY/VTC7gx4n2zRaA7XfRftzle8H+nF5ko4Z7U/V8XZ6tHfi9tQ5xetT3tWjHVe9u/Lbp+OJWqemz1v1fFr1Hadj0UpXRnncpDQsCCBwZgHGMD+zC0cRQACB/BOwAfPLLrvssD68sJwU0PAFrgsuuGB5/j0LlIQAAgjkSKBpjlIrsb4o19YEnD/pzpzoDRs25Mnf+23btrl0p5Fr7ty5riFDhrg034RLk3w6ZWm+CZfmmHBpEmZX7969XRrWy/X666+7Zs+e7XrwwQddCp677r//fucazVXhOnToUJ7U8fvvv3ddfPHFRzV82DixcJdhTl9IpM9SQEEkO0kXCwIIIJBXAn76O/PPzNonS9BQKqHZLKyIhr3MsmeRHS89XX7+Gu7SzvdxpsX+CJ825NvJ6zJ7b7U9nNLSnylDjiGAgCNgA+bDsUCgoAUy+4Ne0HWjfAQQQAABBBBAIKPA4owHstpXz7D1f/7559W6g2ZAy5YtE8ePH5+U1TU5PT916lRnIk87XIwdfsXeAWR7c9tH9T47JTs7MbOd9+LgwYNGPeFMsWLFTFBQkDl+/LgzL4Wdz8KdS3x8vOnVq1ecAvpb1evurrVr19ox4E+tlDsLJK9CK6Afn66xPSy1fly2bNkaZ2joK2c4lnbIBp6Ux+VpB7LYUDkDMyYpV66cnVzP/t9pr/9HtTKeZx8BBAq1gEu9s+PSt1C9xY+n389kO0mfA05kcj5C5/avXr3a9hBPXVLSTTKaeiz1MVkbaZ8nTl6X2XurK3361Ex4RAABBBDwTAF+4fTM54VaIYAAAggggICbBTTR8mgF+b5+44033lbv7kvUEzzKTpyc20XdwZ35LOzQK7rV2owePdqsX7/eqEe3Mym0DYarXPPRRx+lFWXT2SFYbFBdvc6doLmdt8Ied+eidhrNbxGjoPlE1elJd+ZNXr4noB9/2ml9ce/evX/a1ut13UATnT+h/wObFcQaelIkQMHsQXotl9DxYRr+IEaPL2r113BKfyvNTQqav6wfsuba9Nq2P+BcpPMfam2i/CdruLm2uu5n7cfUqFEjSq/f/srPjkH8odK+pUC6fVyrYQ6Stf2ojtfS+RCtz+n/VDld21XHovU4L7UcpWdBAAEEEEAAAQQQQCBbAu79VpatIkmEgOcIuHMMc89pVe5qwhjmufPjagQQ8A4BjW3eRcG013v06BHw+OOPZ3mL9rm0yvYuVxnOaq+3+wounpaVO+afyJhpTEyMGTBgQOx33323W5OMPqweePMzpmEfgZwK2B7dCmiP1HXrdSfEAE24+4UC06O030mrPd5PQetpSnO5XvtLtH+tDVzr0Y4P/PvJ3uVNFcS21xj7OUz/L97Q5jBdN1CB8q66drT2tynNIwqG23GAh+vc01qf0jE77vAU5WXHEO6rdN/pfD9dN1jXVdW+nXzvagXNH9OxTtqOV9oJemRBAAEEshKwPcw3aS2dVULOI4BAngrYIVnsEG92gl8WBApM4PRvbQVWFQpGAAEEEEAAAQTyR0Bjjr+t4N0sjTM+ftasWVcMGzYsSvM3uLXwjMHxjPupheV2subUfFIfZ86c6erUqVNSQkLCOk3s+YuO335yTU3C49kF7GRv87VaN5YMAvrhZaMO3aYe5E9r7H37urK9viP1aIPkOxWktlcUV7DcX/sntD9R5x/S9g574uSS1mFHwfLiCoSnKE1JrSPUk3yv/j/YMYnmpybWhH3L9H91jM5PUsC+v4LhadenplG9/lCacJVTQ/kVUw/4WAXUt+l8mdQ0PCKAAAIIIIAAAgggkF0BAubZlSIdAggggAACCBQqAfVW3aG1jXpgd7711ltHP/HEE4Hdu3dPP9mXV7VXAUzTv3//GI2hvl1DX3yp4ONmr2pAwVfWBmLLa31Tqx0upLtWlnQCCkL30W4lrVUVuH5aPwK9o+17tO5XoPsnBaztXRRf6a6J2xS49lOa+Tr3geLn7+rarYmJif+ndMO1/Yd6fv+gx5UKiMcqaUulW6dr7XXdtN1NAfALFSS34/03VD7tdDxFAfZk5XVM172gNPFa7TBGdlzgtEX7X+j8O7q2grY/TzvBBgIIIIAAAggggAACCCCAQNYC9lbgyy677LC+VLGcFFi2bJlLvSyXZ61HCgQQQKDwCJQpU6Zs/fr1v9CkoEc0NJXXvSdMnz49pU6dOrGaVPHlwvOsFFhLbDfpBVpvK7AaeHDBGrc8PEP1ijRu3Pi0YY0U6A5Nl85fk906P0adTOt0RU89nyFt6uG0x5Pn/VMPVKtWLSR1O+Nj6dKly9nzCpo/r6B724zn2UcAAQTOImCHZLF3GbEggEDBCtghWYYXbBUoHQEEEPBxAQLmp8eECJj7+H8Kmo+AjwsoMNdeQefooUOHJpz+F9LzjmjoCddDDz10VMHIlar7pT7+9Lmz+Q8rs3HuzJC88kdAgfJWWsdotZPcpgXZ86d0SkEAAS8WIGDuxU8eVS9UAgTMC9XT6b2N4UOk9z531BwBBBBAAAEE3CygsZA/1rAR1T744IMvr7nmmuilS5e6uQT3ZTdlyhRXs2bN4ufPn//K6tWrL1Td/+e+3H0+JzucjR16hCV/BP5SMTXcUZSGevlO6+Na7WSiKe7IkzwQQAABBBBAAAEECq9A1apVy6vz0XnpW8gY5uk12EYAAQQQQAABnxfQhKCHhdAuOjq63X333TdWa5jGBj/rEBD5DaZAoOnXr98xDR2z/vjx4w9r//f8roMPlGfHxT5tckkfaDdNRACBAhTQl/WKRYsWHawqtNaY/UHBwcHLDh069JLG+v+5AKtF0QgggAACCHi9gEaYqKD31lqa46ZWaGhovbCwsIaaf+e82NjYChEREYnh4eFJmk8nROvrGzdu7EfA3OufchqAAAIIIIAAAnkhoAlBp2o85Fkff/zx2FmzZt0yfPjwyCuuuCIvisp2nh9++GHKwIEDkzTx4ZBNmzYNyfaFJEQAAQQQ8GiBKlWqdAwICBjXrVu3wDvvvDNQX+TNvHnzWupvfjN9kR+9fv36fh7dACqHAAIIIIBAAQvYH55tUFzflVKD4hdq8vhacXFx5SMjIxPVkzypdu3aQZr7KUxz3vhpNXbVpPTBtur79++3HZMe1X5FAuYF/GRSPAIIIIAAAgh4roA+NMVo7ajxkG974IEHxv/nP/+JHDRoUL73Nt+6dav98HZ01apVf9le5Rq7/E/PVaNmCCCAAALZFbAT6ZYoUeLd8uXL3/Tqq6+GXXjhhWmX3nHHHX6ajDq8T58+j+vL+01HjhzppB9zV6QlYAMBBBBAAAEfE9D3ssoKiNdU7/Ba+nG5vnqLN7RBcfUUL1+sWLF4BcWTFRAPVmDcBsWdgLh9VM9xJyieGZc6S5l33303UsNe3kzAPDMpziGAAAIIIIAAAhLQsCdfaDLQ2Z999tlbc+bMuWvYsGGRLVq0yBebiRMnJitIn6IPhi9u3rz5lXwplEIQQAABBPJcoGLFim10C/h77du3jzzb0F/qEWfGjh1bdOrUqQ379u27tHr16v31XjAyzytHAQgggAACCBSQgILiVezQKTYorqHKnKC4eo7XVFC8XPHixeMVAHeC4uedd15aUFzvj0bfl4LcUeW77767KAFzd0iSBwIIIIAAAggUegGNZZegRj6oAMfnjzzyyHj1/CsxePDgUN1CnydtV3lOr/K1a9eu0AfEh9WrcH2eFESmCCCAAAL5LlC3bt0xCgLc98orr0Q0b948y/LbtWvnpx5vQT179nxOPeraHDx4sPOePXu2ZHkhCRBAAAEEEPBAAd1ZVdUOnXIyKH5+SEjIBeopboPiZXXnlRMUVy/xEK2htoe4DYjbRwXS3RIUz4xEPdWLEDDPTIhzCCCAAAIIIIBABgEFrr/RoSpffPHFm99++237oUOHRlx//fUZUuVud/z48UlDhgyxvcoHqCfh6NzlxtUIIIAAAp4ioF5zV0RFRU266aabKuhupTDdIp7tqmlsVvPpp59G6j3iSr33rNUEZt22b98+MdsZkBABBBBAAIF8FChXrlw1GxS3vcV1R1UDTWbd4GRQvEzJkiXjFQRPtkFx9RQ/JSiuKuZ5UDwzBtXXZP/dObOcOIcAAggggAACCPiWQMqaNWu6KfDx+VNPPfVOmzZtSqu3eZh6RuRKQb3JjW65j96wYcOv8fHxXTRW+eZcZcjFCCCAAAIeI6ChvQYpQN5Tk0iHtm3b1u9cK9a1a9ciV155ZZEePXqM0pAtbTW3xQOaCDr6XPPjOgQQQAABBM5VQHNx1NAdt7V0fS1NUu0ExU+cOFFDE22WKVWqVJyC4ikaUzxU74Ehqb3ENc64La5Ag+JZtZeAeVZCnEcAAQQQQAABBM4ioLHNv9daTbcSvv7dd989oB5/RdVr8CypMz88ZsyYE7o1P1l59dm2bdv4zFNzFgEEEEDAWwTUw+589aSbdNlll9UZMWJEmG41z3XVzz//fKM5NaLUS73thAkTNukH3AftfBu5zpgMEEAAAQQQyCCgO5pqaohIp6e4guIXqKf4+YmJiTX0g63mySwdV6NGjRQ7dIp6iofYYVPsWqVKFZtLVIasvGaXgLnXPFVUFAEEEEAAAQQ8VWDdunVP6Vb5GRpb9h0FMMq/9NJL4fowma3qrlq1yvTp0yd669ati9Qbo4uGfNmRrQtJhAACCCDg8QIKGjypSo7U3UMBHTp08Hd3hfX+EaQx0Es888wz76u3+RTdqdTF3WWQHwIIIIBAoRfw03eZmhouxQmK6/3kgsDAwAb6blJdQfFSZcqUSQ2KhykoHpwaFFcg3cJ4bVA8s2eVgHlmOpwr9AL6RcylnnyFvp05baDL5UrO6TWkRwABBHxdYMeOHfNlcJ4+aI744YcfumkM8rBbbrkl01vuR40alTh69OgT6rHRnXFoff0VRPsRQKAwCSjwUFFjlU9Uj7vLdPdQoL0NPa+Wpk2bmsWLF0c+++yz7TW/xvXHjh3rfPI9Ka+KJF8EEEAAAS8XUM/wcsWLF39RY4zfrKEgS9qguN6rXPXq1QutWbNmWlDczp+hpVAGxb38KaT6COStgMZOij98+LBixCxWYNy4cUn6xXBc3qqTOwIIIFC4BeykbvXr1/+rW7duxw4dOnTaG8zy5ctdLVu2PKI0X+jDadnCreGVrbtOtbaTu7Lkj8BfKqZG/hRFKQjkvYBuQ++ooEOshtpKPO0NII8PzJ4926XhWmIUqB+S9y0tVCXY28L2F6oW0RgEvFPgCVV7uHdW3XtqXbFixdoaU3y/ftBNUKedPH5n8r7sJ06c6PKeZ5OaIpBHAgoOj3ryySePed9/YffXeP369S790YzTH89GecRNtggggIBPCehv6st6n4n7+OOPUzTUikuTebrU8zxex6PVW6O9T2F4V2MJmOfv80XAPH+9KS2PBDTxWbh65n1y7bXXHvn999/d/2E9mzlGR0e7HnnkkWP6UXYFn+uz/WQTMM82FQkRyFMBAuZ5yvtP5np/mPv+++8nZfNtxeeS2YB5prcJ58NzRBEIeIRA3bp1v9IYTFf+97//LV6sWDGPqFN+V2L16tUJ48ePN/pL+JjG0Z2Q3+VTHgIIIFBYBTTZ2yWa7K2fhmq53M/PL0HDr8zUWIAv6Hb5Q4W1zYWgXTZg/ozWNoWgLd7QBBswb6t1kzdUljoicCYBBabbhoeHT+jYsWPkgAEDQs6UJr+PTZkyxdWvX78TKrf/5s2bR+Z3+V5Wng2Y279Bpb2s3lQXgcImYAPmdmDs3oWtYfncHjsEd9KZytT7VcmiRYtu1ZwX4Wc6zzFjJk2aZBjDnFcCAhLQH4pbjh49evPff//dJiQkpKSCxvn+Y9KBAweqafyoHQEBAWf8o5aXT5TGcXfFxcWtVjDnQ92O83delkXeCCCAgK8J7Nmz51etd/hau2kvAjkQsBPKuH0yxByUT1IEThEICgpare8D72iys9dOOXGWnTp16rypiZ476Nb2SE3AeZZU+X/4nnvu8WvWrFlQr169ngsLC2tz8ODBzno/2pL/NfGKEu3fIPu3iAUBBApWwA6FwWeCXD4Heh9bqixmat6+l/R4SoxJcZ+yGr88UccJmOfSmcsRQCAfBDTRQmJwcPA7+VAURSCAAAIIIIBA5gIMyZK5j7vPzlSGN7s7U/JD4FwF1IHlhIZVORYZGbk7MDDw8bPlY+er0BAsG5555plYBdc9+pZ1zVN0QnfUxleuXPmBs7XHx49frvYv8XEDmo+AJwjYzwNfekJFvLkOeh9L1A+mx9WT/KCC57a3flqHad39Wv+qq646fZIlj34Xy9/KMYa5N7/6qXuhElCwvKvGuI1X7/YYNczeDsiCAAIIIIAAAgUnQMA8f+07q7jZWtO+zOVv8ZSGwKkC+kwet3fvXtePP/7oatOmzdEzBc41F8UgDesYO3PmzJT8/Rp/7qX9+eefrhtuuOGIJgWdruC5b45DeepTnX5vsnZ6pj/ANgIIFIhAgErdovXGAim9kBSq9609a9ascS1cuNB11113HUsfOCdgnvX7KGOYF5L/CDTD+wU0bvr2Tz/9tNInn3wS99lnn43U8CjPe3+raAECCCCAAAJeK8AY5vn/1I1SkbZX2bda7fj+9pZsFgQKREAB876a0ycwNDTUKf/XX381r7766rE5c+aEqMf5iJo1a7a67LLL6owYMSKiRIkSBVLH3BQ6bNiwxAkTJsSojd/rdv31ucnLy6+1w3BGab1Gqx2+4CGtLAggUPACNlj+ttb/aV2nNVkrSw4EFDB/ZunSpeEar9y5atWqVWbUqFExM2bMCFaP89GNGzfuvGDBguI5yNKnkjKGuU893TTWUwVs7/JLL700UrfLmDJlyoRpcp4eqqudlOeYp9aZeiGAAAIIIIAAAm4W6K787KTjTbXS89XNuGSXO4GYmBij+Y6csfbVS69P3759/Tp06OC1Y+z26dMnSLfjl7j33ntvPXbs2MrDhw9Pz52QV1+9U7V/X+tyr24FlUegcAnMUXPO02onBK+q1fY6Z8mZwCkdD1Lfx9S32mg95udnfy9kQQABBDxYwPYuV28Vlz6EO+v9998fq0l5XvTgKlM1BBBAAAEECrsAQ7IU9meY9iGQiUDqkCxffvmlS4HlI8WLF9+iW9hX3X777dGbNm3K+l5uL0qh4HmcxmHfXKlSpRaZkHAKAQQQQMCLBFKHZPn2229drVq1irZxJ9tZ0zaBIVmyfpNmDHMverFT1cIpYP9g2T9eqcFy+/jbb7+5To5lHlk4W02rEEAAAQQQ8HgBAuYe/xRRQQTyTsBO+nnJJZccVaB8Y0RExPjq1avHjhkzJjHrr9jZSxEbG+uaOnWqS0Mxuo4fP37aRRoCxpXVJKIHDx487bpzPTB79myXxjWPqV279pC8UyVnBBBAAIH8ErCTfjZs2DBOgfIdijs9kr5cAuZZv1vagLnX3kaW/slmGwEvFnhDk++EduzYMVq3RJ5o37593KBBg6KTk5NDNT7i/V7cLqqOAAIIIIAAAggggIBXCii48Nvy5ct7K6jwqwLn92jM17DHHnss0F2NefbZZ40+6zvZqYe385iUlGQSEhKcbc1tZBRId7YVXHce7T/2fHx8vNmzZ4/ROOT2tvq0c7nZuPHGG82iRYvCr7nmmscVOF+hMW8b5SY/rkUAAQQQKFiBIkWKLFas6dkjR45USklJGVewtfHO0pmJ3jufN2pdOARq6g9X+127dvnpdk/bIjt2+Vytv2sN1vrvp2PtsCCAAAIIIIAAAggggEDeC2heoRfDw8Pf++9//xs5YMCAEHeXqOFPzLx588zNN99sBg4caNavX29Gjx5tgoODzV133eUUZwPjPXr0MBUqVDC1atUyF1xwgRk5cqTR0I3m4osvNn/99ZfR2OPGXZOO6vZ9M27cuKKaT6lhv379lqpXff/NmzfbeZVYEEAAAQS8TEA/sF7tZVX2uOoSMPe4p4QK+ZDA32qrXVOX/2jjF62zUg/wiAACCCCAAAIIIIAAAvknULNmzRc1FMtTr7zySmTz5s3zpGDdXWo0pIr54YcfjO1NrjHETWJiohMM13izTpmLFy82hw4dcgLm33//vdm5c6fp3bu3qVOnjtm3b5/ZsWOH24Ll6Rt5zz33+DVr1iyoZ8+ez2mYyBZr1qyxk+6xIIAAAggg4FMCDMniU083jUUAAQQQQAABBBBAAAEEEDiTgHpztypZsuSTc+fOzbNguS3XBr41d5G56aabTFxcnKlRo4Zp2rSp0RCNplGjf0ZDqVatmnO8a9eu5vLLL3eC6itWrDA//vijWbZsmXO9HcYlL5bKlSsb9TSP1BAtzfUDwst5UQZ5IoAAAggg4MkCBMw9+dmhbggggAACCCCAAAIIIIAAAvkiEBUV1U3B7ChN9Jmn5an3ulm6dKnR2OhmyJAhztAstsxffvnFtGjRwtxwww2mbt26pnXr1mby5MnOo91Wj2+ze/duZ18TdDo9zfOyohqaJULjuXfNyzLIGwEEEEAAAQQQQACBzASm62TrzBJwDgEEEEAAAQTyReA6lfJNvpREIQgg4DECmvBSI5Cs0VyaLKkCGj89TmOuh3rMk0RFEEAAAQRyJaAJretfddVVh1L/zvN4usDEiRNd9DDP1cuMixFAAAEEEEAAAQQQQAABBAqDgL4y79i6dWthaIpb2hAdHW2Sk5NdGi/9uFsyJBMEEEAAAQS8RICAuZc8UVQTAQQQQAABBBBAAAEEEEAg7wSOHDny3pgxYw7nXQn/5KxyzFNPPWWefvppY8co37t3b14XeU75yyI+KCjo03O6mIsQQAABBBDwYoEiXlx3qo4AAggggAACCCCAAAIIIICAWwR27dr1SWRkZNt27dq1GTlyZFSVKlXckm/GTAYNGmSefPJJowk1zV9//WVWrVplAgMDzUcffWTKlClj7r77bmfbBtIvuOACZyJQTcJpSpcu7YxtPmfOHHPrrbeaBg0aZMzabfsDBgw4Pn369K0K7j/ptkzJCAEEEEDAawTsvBp23gy72Hk2brzxxlPqHh8fb3RnlgkNzXzUrp9++smZcyMsLMy0bNnSBAcHn5JPxp3Fixc7E2GnP75gwQKzZ88eZy4PO9fHmeYaOXTokClRokT6y8xvv/1mNKG3sXdM1alT55RzWe3QwzwrIc4jgAACCCCAAAII+JrAj2pwG19rNO1FAAFj1q5d23758uUvXn311YmffPJJSl6Y7Ny50wmW26DAzJkzTUJCgnnjjTecL/MbN2409vg777xjunXrZj788EMn0GCPt2rVygwfPtyZ9NM+5sViJyO98sorjypYPkUWDRS0j82LcsgTAQQQQMCzBcaPH2/Kli3rrPYH25SUFJOUlOQEn23NdReSWb9+vdOI48ePO+ftjn1PO3bsmHPc/vP22287ediA9gsvvOAct/nYdKlLXFxc2vWTJk1yDts8U5fUuthr7r///rRrY2JinCQ2mD5s2DAngG/zOnDggHPcBvU1rJiZN2+es29/iNZQY6nZZvpID/NMeTiJAAIIIIAAAggg4I0C6k1SWb1Ft+d13VVOnZCQkD2bNm2KPpey8que51I3rkHAVwW2bNlyoXrMPfzSSy91nz9/fi0Fp4tGRUW5jaNYsWJm27ZtTg9xuz1u3Dhz9OhRU7FiRVO8eHHnC3/9+vWdHnSpvejq1avnBBNsIMD2SLf7NhCgvz9uq5d61ScqKBGnIEUXBfU/c1vGZIQAAgggkK8C/v7+7yrAbYfU+iE3BdshxPz8/EzRokXN6tWrjb1Dqm7duiY8PNysW7fO2F7jthe67UV++PBh5/wNN9xgbr/9dvP88887Rdte6DaAffDgQaNJpJ07q1577TXn2rvuuss5bnuQ217gNqBu0+v912gibicfm4mtQ/PmzZ38bJB+xYoV5osvvnB6t9s7tJo0aeLkO3v2bOeHaBsUb9OmjVm0aJG5+eabnetsfWy9Nbm30aSezrHM/qGHeWY6nEMAAQQQQAABBBDwKAEFlPprvf9MlapVq1awzl1+8twrZ0qTm2PlypW7Ov31Cnbfq/0nFLQqn/54DrfdXs8clk9yBBDIIKAv5v/VLeNjFQTY+dVXX33erFmzWPsl3F3LwIEDzXPPPeesNvhggwvt27e3vdvNsmXLnMC5DQ7YJf2j7enXqFEjs2HDBifA4K5guS1XgYVo9eqbo2B5LYLl7nqmyScvBOwPzXmRL3kiUJgE9N5xn4LD3+hH2Llq1zXn2jY73Ip9r7FBabvYwLQNZm/evNl5P7r22mvN5MmTTUBAgPOjrg182/ep1GB5arn2x2AbLF+5cqX57LPPTI8ePZzg+tSpU820adOc3uH33XefmTVrlvn555+doLYNup9pscH7ffv2OXdj2V7vNihug+u2XDuMmb4LOO+d6sxyyuXVqlVzfnC2dc7OQg/z7CiRBgEEEEAAAQQQQMATBALU6+RCrY1Umff1gbidHhfpS8FBHbtfgZ5wPbbW8Zf1WFJfqsfoXJIC3b10O2YdfZh/Wun360P78+ox01kfsiurB84SBYe+ViAqXOdf0HVlTh4bq3we0f6luuYrHftT6d9Snh+q5/rQUqVKRej4Q1o360tEdPny5ceqrGTdYjpY+zawnlYvHV+ka9srr3JaP9Vto7OVd1eluUL7tfTIggACHiSg/8Mn1AMtTMOh3KRe1zH6P7vqkUceqXLvvfcWGzJkSJj+T+eqtjZo8P7775/WQ9yOy2qDDjZ/e/u5XWzvc7tceOGFzuPgwYPNiRMn0oIXzsFc/DNhwoRk5Zmsv0W91ev97VxkxaUIuEVA/z9C9Xp8W2uS/i8s1Xv0P/8J/s3d/tBs3//PutgfuPX/9qezJkh3Qu/HA1TGEB1KG6dBx5oqj2X60cxOFFBJ7/sz013CJgIeL6Bg+SENsVV27ty5LUaMGHGxem//ph7gg1XxeTmpvDqjOO9J9n3J3gllg9V2sfv2/coOs2Ln42jbtq3R/yNj5/7I+GOuTVu9enXnDiobXLfDi/36669pQ73YO63snVP2B+MaNWo4PcltAPzLL7905uuw5envgdHdX2b//v3mhx9+cIYrs4H2xx9/3OjHXmdcdFu/Dz74wOhHbqP/s85qr01d7HAudtiWxx57zNxyyy0mqzvHCJinyvGIAAIIIIAAAggg4NEC+gJ7owLPv+uDd2UFuBvow3MD7f+ZmJh4VB/Om+j4u1pT9IF9rgLbL+s20R4avqCfPjRfaIPhQUFBHRRoaqkP97aHeksFwV9W2hW20epNGqRgd1N9Ob5a136ida7yv1zXdtL2TH2ovlNfNFZrf6hNr1tLj+n4Qm1OVp7dVe6Huv1ztwJtg3TdvvT10v5GpQtX3p3Uhmma1O83HbtUgfuHlOdvNj8WBAqhQCW1qa7WIC9sm3MndpcuXfy1Rmr81Utt4Fzjikd//fXXLgWzw6+44opcNytjUKFIkex9PdffmVyXbYMJ+gEgTj3wNuvv2Wu6U2aXMm2d64zJAIHcCczS+2MdrYf1GnUmnFUAvYTeU19UtvFaB6Zmr4D2TXoft11Q5yvtZL2/dtN1l+j9eLYeX9B7tPMDt02fPu3JH8Dr67D9Ydu+5uO0puj6/rquorZn6HGI8vxZnx0+VdnHldetOt5Ma0m917+mH83X64f3XtovpXWHE5opvAAAQABJREFUPkuk3i3G/yGBsHiEQLCtRceOHf20RukHYCdwrtftaq1vZaeGd9xxh5kxY4aT1L7v3HPPPebSS20/EuMMc2KHZtGwZaZ79+5Or3GbxgbOU4dAcRLqn9tuu818/vnnTiBd76WmcuXKTr727qaePXsafY43dmJrO+m1DWTb90J759Wnn9oRZf5ZbG9zm4cdUmX06NFOsLtXr17Oj8+2x7id7LN27drOZKE//vijE3i3Pc5tUN+WZ99vbWDeTq7duXPnLIPlttTsvSOfrCAPCCCAAAIIIIAAAggUlIC+wLbXF93N9surPkw/qP2j+iAcqA/PRe1YhScXp+unzu3QJHkJ+pJ7QF+IQ+w59Uw5oi/EO5VHHeVhe8I4wfK0C/38VmvbZhSr8+WUtw102+WgAtuRyvNs3UpLqfyNum31qILn9svz3oz10rV/6LgeXEkK3JdR/js1FmSi6rfHFsCCQCESsP9P3tPaSqv9P2aDXN62nPI9+e677/bXRGEho0aNCouNjf1Wt403e/jhh8P69u3rBCS8rXHqledS3RO2b9++SYEKO2PbTd7WBupbaAVm6b15pd6rY/T++Lner1/Q+6W9Q+sPvZfbu7Ta69E23k/vs/YH6u7aHqH0y5SuoX6YfsCe1LV3K+A91G5rOSWtfnC3vc976doO+izxsN63X1f6UF3fUusD+r++VfurtP2cymqqdNX1WFL5rFVAcI4e+2ss5m9Ut10Kwo1Rr9UvdSw1YP6gtlkQKHABvW5D01dCY4X76XUfrrukLtNrd7d+JHV+GE6fJuP2mYZEsUFtu9jAuF1sD3S7PPjgvy99O3Z4+kXvoel3ne127dqlHbPDvujH6bT91Os7dOiQduzOO+9M207daNCggTMXSOq+7Tlul4svvjj1UNpj1apVne3evXunHctq45QPAlkl5jwCCCCAAAIIIIAAAgUhoA/oZVVugr5I97fl68vs1/rA/6a+EAxRsHqfDinuk7hFX2aH65wTnLbp0i0zNGzK+0pfUtc9rS+//4xvkC5B+k31Nv9N6R5TXm/qeKK+eB/Qtu1V/oK2X0ifVtvv6ov7OH3p1vfrFNvL3Qbd0+p1Mq0r9VHDw6xSPs9qtUHFfz7BnzzJAwKFQGCs2hCt1fbU9NYlThUP1Q9lZsyYMYnqzebSXSgf6O/CUK2b1DsvUr31JuhW9+tfffXVKPul3RsWBftNnz59YubNm7dVd9900t/MZd5Qb+rocwIuvdfb98hSek+175N79L4arPfvVXpfXq3H6zVcQ6D+fwZp20bvRmgtpXM7UqV0PO0H7oxpFSj0U75blWdFfWY4pPduO3RDnHqhPqTPE8+p3O9sPkpjA+2pWdpfvP/QcBQH7f9/lVVOJw7ZCb+V3v69S11Oj+qlnuERgXwU0Ovbdsgoq+EK7ftY0uuvv56o1+0MvYf9n+64sD2ur83H6nhlUWl/RLyy9lQagcIlMF3NmaB1VuFqFq1BAAEEEEAg7wT0RThIPbWTVEKKLaVx48aBy5cvt9tpXc7tcbucTHtCm6nBa+d4Zv+cvCYxNU21atVC1FP9TD1m7bdq+9na1iW1rLR62WMZl5N1tfVhQaCwCNjBTe2XdBvEskFnr1wUJDuhMctdGt87xQbKNfar7am6KWNjFGDrpLRjFYQuovQe3Rnt+++/t5OsxShIPm7dunV2KAkWBDxSQD9uN1aw71FVzk9B6pUK8i3V4wvaX6d1klY71Fo7BaqHa9v2/D6oIc4GKJA9Wens0EJTtNrurttSf+BOn1bHv1C6u1TG59q+TWsV/b94UHd/DdWxCO1/pWB5JW3bH9Zt2jLatuV8p7qtUi/dCUrfW+ntD+rblLaRerZfo20WBDxGwI5hriFUInVHUYINlOv/x/+pcn/ZCipgXv+88877RZNrFveYCntYRey46CwIIOA5AjZgzphnnvN8UBMEEEAAAQQQQACBnAnYANPSnF3ieakVBD8cERFhe7bWyKp2CsRV0Q9rc3V7efTWrVsVW/O8pX///nF16tTZprq2zKo9nEfAEwTsj9OqR/ofofw09MNpQyCdPJY2tMTJ65wmpN+2BzKmdRKl++fk+bQyM16fLqm9yy1MkxsW1/jqtRRE/yz9ObYR8AQB/di7Se9jdrig+hnrYwPmV1111SHPe7fynBpNnDgx251rMvqyjwAC7hcgYO5+U3JEAAEEEEDgXASu00XfnMuFXIOAjws0VvvtZLjevlTPaQNq1KjxjAJsCZMnT072lK/8S5YscWly0mhNzGaD//+OLZHTxpEeAQROEdCY6SUVNB+hdbjGRM/yh7VTLmYHgfwROO9sxRAwz/pd2gbM0349OxskxxFAAAEEEEAAAQQQQAABBBDIpkBh6JW1OZttTUumsYxfVRDtx5deemnS/Pnzaw0fPrxoVFRU2vn83hg5cmTi+PHj4zR+7cMaD3pafpdPeQgUZgH9nzqo9jG0UWF+kr2/bRu8vwkF24K0W1cKthqUjgACCCCAAAIIIIAAAggggID3CiiItvKvv/66SJOBjm7WrFns7Nmz870xa9euNW3atInW+KtzFCyvRbA8358CCkQAAQQQKAQCBMwLwZNIExBAAAEEEEAAAQQQQAABBDxDYOPGjc8eOnSozTPPPLO5b9++cbr5O18qpklKk2+88cbEP//8s7cmQ771ZC/YfCmbQhBAAAEEEChMAgTMC9OzSVsQQAABBBBAAAEEEEAAAQQKXGDPnj0/qbd3jS+//PKjpk2bHl24MO+Gdt+1a5dp37790VGjRi1OSUmpv23btrcLHIAKIIAAAggg4MUCBMy9+Mmj6ggggAACCCCAAAIIIIAAAp4roKB51+3bt9/3wAMPHBw6dGiCu2s6bdo0V/PmzRM0wecQ9Sq/SmX97e4yyA8BBBBAAAFfEyBg7mvPOO1FAAEEEEAAAQQQQAABBBDINwH1AP/ywIEDNT788MOZrVq1itaQKbkuOzY21jz++OOxzz///Oq4uLgrNOno0FxnSgYIIIAAAggg4AgQMOeFgAACCCCAAAIIIIAAAggggEAeCmhM86OaEPRu9Th/+uabb44fN25c0rkW9/333xsN8xLzww8/jFWeF+zevXv5uebFdQgggAACCCBwugAB89NNOIIAAggggAACCCCAAAIIIICA2wU0ZMqkhISEumPGjFlwzz33HNV44zkqY8CAAcefeOKJ7QrA37Zu3bpeObqYxAgggAACCCCQLQEC5tliIhECCCCAAAIIIIAAAggggAACuRdQj/CtGm/82mXLlg26+uqrEz/55JOUrHJdunSpufLKK49Onz79UwXKq+/cufPHrK7hPAIIIIAAAmcScLlcZzrMsXQCBMzTYbCJAAIIIIAAAggggAACCCCAQH4IaNzxV0+cOHHpSy+99EfXrl1jjhw5csZiR44cmdihQ4cjW7ZseVBDujygRMlnTMhBBBBAAAEEshDw9/fft3///qAskvn06a1btx73aQAaj4CHCUxXfVp7WJ2oDgIIIIAAAr4ocJ0a/Y0vNpw2I5BLgca6/pdc5uGTl9eqVev/6tevH/P111+r498/y8qVK12tW7c+cv75539ZsWLFkj4JQ6MRQAABBNwuUK9evXnvv/9+Uur7DY//CmiiblfNmjWP+7ldnQwRQOBcBWzAfILWWeeaAdchgAACCCCAgFsEbMD8Ga1t3JIbmTgCpUuXLqqvIz73/ePAgQPHfOglYAPmr2u90ofa7LamlitX7uqSJUuOjI+PbxAYGJjs5+d3KDY2drDGOX/HbYWQEQIIIICAzwvoR9jaoaGhC7t16xbZrl27oGLFivm8SUpKilm0aJF57rnnog8ePDjY5z6w+vwrAABPFiBg7snPDnVDAAEEEPAlAQLmbnq27ReyyMjIUXFxcS1DQkKS3JStN2XjSkxMNEWKFPlgw4YNj6viWY5V7U2NO0NdCZifASWnhypUqBCm10ywAuWHc3ot6RFAAAEEEMiOgDoylCtevPhg/TjbNjk5OSw71+RVGg1JFhQeHp6kH4sL8nOSKygo6I/o6OhhmieEO03z6skmXwTOQYAhWc4BjUsQQAABBBDIAwGGZHEDqg2W16hR48h7772XpC9i/97r6mNb6qXkGjBgQJxuf/7VDayenoUNmDMki6c/S9QPAQQQQAABzxJYquo09KQqFfGkylAXBBBAAAEEEEAAAQQQKBwCtmd5r169inbu3DmgcLTo3FpRokQJM3jw4NBDhw7V0fAavdVrePi55cRVCCCAAAIIIIAAAvkh4J8fhVAGAggggAACCCCAAAII+JaAHYbl/vvv9+lgefpnvFOnThFa/pP+GNsIIIAAAggggAACnidAwNzznhNqhAACCCCAAAIIIICAVwuUKlUqwo5Z7u/P143UJ1JjhRqNRlMidb+QPi5Xu5jws5A+uTQLAQQQQAABXxFgSBZfeaZpJwIIIIAAAggggAACCBSYgCbVsmU7/xRYJXJZsCajvFhB/8Za1+/Zs+enXGbH5QgggAACCCCAgEcKEDD3yKeFSiGAAAIIIIAAAggggAACniOgYPl/FfS/WuskBczDy5YtGx4YGBis7So7d+5cUb58+XrBwcG7t2zZcsTeYaBztTV++6ro6Oi6KSkp7dWSEbt27TqQPp3ntI6aIIAAAggggAAC/woQMP/Xgi0EEEAAAQQQQAABBBBAAIEzCChQ3qFYsWK3rV69OtGeVgC9pQLhgxUwf1Pbd+gxPjEx8fKKFSt21vb1SlL08OHDz+i6BdqupOF5yivdk+nTKdB+0ObFggACCCCAAAIIeJIAgwp60rNBXRBAAAEEEEAAAQQQQAABDxRQoNtPwfKkDFWbvHv37o907HoFxktoTdRaU2uU0lfT8UpaV2h/2Y4dO1ZlTKd9FgQQQAABBBBAwOME6GHucU8JFUIAAQQQQAABBBBAAAEEPEtAQe8f1Hu8f1JS0vgiRYoEKSBuJzGNP1nL7epBPlXbO+2+ep4/r/XxgICANtqNV7pyegzQmpZOk8Ie0D4LAggggAACCCDgcQL0MPe4p4QKIYAAAggggAACCCCAAAKeJaDhU15V4Hu9guA99dgkOTl5k4Loy0/W8lEdu15B8ge1HlbwfKaC6u117EVdZ3uWH9ZwLNfoMS1dXFycDaCzIIAAAggggAACHidAD3OPe0qoEAIIIIAAAggggAACCCDgcQIuTdo5RbWy6ymLncxTB15Od3Bcum2j80PT7adPl+4wmwgggAACCCCAgGcI0MPcM54HaoEAAggggAACCCCAAAIIeLtAYzXgF29vBPVHAAEEEEAAAd8WIGDu288/rUcAAQQQQAABBBBAAAEEEEAAAQQQQAABBBA4KUDAnJcCAggggAACCCCAAAIIIIAAAggggAACCCCAAAISIGDOywABBBBAAAEEEEAAAQQQQAABBBBAAAEEEEAAAQkQMOdlgAACCCCAAAIIIIAAAggggAACCCCAAAIIIICABAiY8zJAAAEEEEAAAQQQQAABBBBAAAEEEEAAAQQQQEACBMx5GSCAAAIIIIAAAggggAACCCCAAAIIIIAAAgggIAEC5rwMEEAAAQQQQAABBBBAAAEEEEAAAQQQQAABBBCQAAFzXgYIIIAAAggggAACCCCAAAIIIIAAAggggAACCEiAgDkvAwQQQAABBBBAAAEEEEAAAQQQQAABBBBAAAEEJEDAnJcBAggggAACCCCAAAIInIvAS7qo+blcyDWFVsCv0LaMhiGAAAIIIICAzwgQMPeZp5qGIoAAAggggAACCGRT4KDSlc5mWp9N5u/v3yswMHBuiRIlvhXCVT4LQcPTC5TTzoH0B9hGAAEEEEAAAQS8TYCAubc9Y9QXAQQQQAABBBBAIK8FVqiAElqb5XVB3py/AuVr58yZE/D8889fX6lSpa9zEzg/ceKEadmypdm5c+cpJCNHjjRHjhxJOzZgwIC07Xnz5pnevXs7+1u3bjVvvfVW2rnsbJytzNRrP/roI7N27VrzwQcfpB7iMWuBO5VkXtbJSIEAAggggAACCHiuQBHPrRo1QwABBBBAAAEEEECgwAQGquTpWodr/U1rolaWdAIulyvM7nbu3NlPa+TEiROvHzFixOVxcXFLFOQeVLJkyXSpM9/89ttvzeWXX25skLpPnz5mxYoVZvr06WbNmjXmgQceMArMmyVLlpgNGzakZaRyzC+//GJmz55tzjvvPBMdHW0OHTrk5FGmTBlzzTXXmFWrVpkGDRo411533XVm8eLFplWrVk4eGcucOXOmueGGG8zq1avNgQMHzPjx403RokXNsmXLzObNm83tt99u6tSpYyZNmmSSk5NNx44dzfz58826deucczVr1kyr29k2EhMT7fevpmc778XHy6rut2str7WzF7eDqiOAAAIIIIAAAoaAOS8CBBBAAAEEEEAAAQROF5isQ39r/a/Wm7TyuVkI6ZeUlBQ7/EbaYgPnYWFhEY8++mjLgICAIvHx8dm+m3XGjBnm//7v/8wjjzxikpKSzMsvv2zGjRtnOnXqZA4fPmw+/fRTo2C8uffee9PKsxtPPPGEmTBhQlpP8zfeeMM0bdrU/Prrr6ZixYpm6tSpZvfu3eazzz4zqpOzpmaQscyffvrJtGjRwqxfv97YgPv5559vbBD8xx9/dOr1wgsvOHmXLl3alCtXzrz77rtO3jfeeKNRD/vUbDN91A8J4UrwcqaJvO+kHbfcDmM0X+sYrSwIIIAAAggggIBXC/DB36ufPiqPAAIIIIAAAgggkIcCS5W3XVnOIKAA9EodbmhPTZkyxTVs2LBo9fBeraFOXixVqtTikJCQPWe47LRDu3btMnv37k3r0W17kxcpUsTYHuo2YG17jtuAtA1Uly9vOzD/uwQHB5v+/fs761VXXWXs0Cw2UF68eHEnkX20PdMbN27s9FhPHbblTGX6+fkZ/QhgFOh3rlUPeufR9iovW7asc85ed9tttzn7tje87YHepEkTY+uRnUWB+Gj1Xr82O2lJgwACCCCAAAIIIFAwAgTMC8adUhFAAAEEEEAAAQQQ8HqBTz75xHTt2vWIDZRrfVEN+u5koyKy27hp06aZHj16OEOo7Nu3zzz99NPmwgsvdIZmsUOqVKlSxRw8eNAMHDjQGXIlNV8b4LbLRRddZK644gpj99u3b+8M0WKHZrnpppvMtdde6wTKmzdvbjZt2mTUA9655kxltm7d2vTr18/p4W7LjI2NNX/88YeTPvUfOyyL7cV+/Phxc99995lZs2Y55aae5xEBBBBAAAEEEEAAAQQQQMB9Anac1Nbuy46cEEAAAQQQQACBvBOIiIiYFxoaukkl/DMoeLqi1MM8Qj2zY9VL+5wX9VQ/5dqM+6ecTLdj06mneLoj2d/UGONpiTU0jEtjlaftp27YvLNbl9Rr7OOWLVtc9evX35qOiU0EEEAAAQQQQACBf+7odO5a9BQMeph7yjNBPRBAAAEEEEAAAQQQ8CKBY8eO9VF1/5dXVbbDsqRfMu6nP5d+O7vp0l+Tuh0YGJi6ecp452kHtWF7suemjPR5sY0AAggggAACCCDgeQLZnojH86pOjRBAAAEEEEAAAQQQQKAABfIsWF6AbaJoBBBAAAEEEEAAAR8XIGDu4y8Amo8AAggggAACCCCAAAIIIIAAAggggAACCCDwjwABc14JCCCAAAIIIIAAAggggAACCCCAAAIIIIAAAghIgIA5LwMEEEAAAQQQQAABBBBAAAEEEEAAAQQQQAABBCRAwJyXAQIIIIAAAggggAACCCCAAAIIIIAAAggggAACEiBgzssAAQQQQAABBBBAAAEEEEAAAQQQQAABBBBAAAEJEDDnZYAAAggggAACCCCAAAIIIIAAAggggAACCCCAgAQImPMyQAABBBBAAAEEEEAAAQQQQAABBBBAAAEEEEBAAgTMeRkggAACCCCAAAIIIIAAAggggAACCCCAAAIIICABAua8DBBAAAEEEEAAAQQQQAABBBBAAAEEEEAAAQQQkAABc14GCCCAAAIIIIAAAggggAACCCCAAAIIIIAAAghIgIA5LwMEEEAAAQQQQAABBBBAAAEEEEAAAQQQQAABBCRAwJyXAQIIIIAAAggggAACCCCAAAIIIIAAAggggAACEiBgzssAAQQQQAABBBBAAAEEEEAAAQQQQAABBBBAAAEJEDDnZYAAAggggAACCCCAAAIIIIAAAggggAACCCCAgAQImPMyQAABBBBAAAEEEEAAAQQQQAABBBBAAAEEEEBAAgTMeRkggAACCCCAAAIIIIAAAggggAACCCCAAAIIICABAua8DBBAAAEEEEAAAQQQQMCtAn5+fq6UlBS35untmblcLqMVFG9/Iqk/AggggAACCBR6AQLmhf4ppoEIIIAAAggggAACCOSvwP79+2MUND+2YcOG/C3Yg0v79ddfXareCg+uIlVDAAEEEEAAAQQQkAABc14GCCCAAAIIIIAAAggg4HaBhISEVwYOHBjt9oy9MMPt27ebwYMHHzt8+PBrXlh9qowAAggggAACCPiUQBGfai2NRQABBBBwBCpWrNhIt8qfrx1f/eHU5e/vH691kYIYu3hZIIAAAgi4X2Dr1q0jQkJCal9++eV3derUKaJUqVIB6nXu/oI8PEf1sk949913U5KTk5/bs2fPTx5eXaqHAAIIIIAAAgj4vIDvfWL1+accAA8WmK66TdA6y4PrSNW8XKBGjRpRwcHB0yIiIppcdtllfgFavLxJ51z9Y8eOnZg/f36IguZvKpjR65wz4kIEEEAAgUwFypcv31yB87ZhYWHlNIa3T33/UHtdcXFx65OSkqbu3LlzfaZQnEQAAQQQQAABBHxTYKma/bDWP3yz+bQaAQQyE7AB89aZJeAcArkVqFev3qJXXnkl3n6BZ3G5YmJiXPfcc8+RmjVrDs6tLdcjgAACCCCAAAIIIIAAAggggECOBWzAvGGOr+ICBBDwCQEC5j7xNBdcIzUMS1stBwmUnyqgielcVatWTahVq1ZwwT07lIwAAggggAACCCCAAAIIIICATwp4XMDcV8eu9clXH41GAAHfFtDoK80UMC/u2wqnt15j6pr69esf0y3zjU8/yxEEEEAAAQQQQAABBBBAAAEEEPAlAQLmvvRs01YEEPBpAY1dHhoUFORTY8dm9wnX2Loaytw/KLvpSYcAAggggAACCCCAAAIIIIAAAoVTgIB54XxeaRUCCCCAAAIIIIAAAggggAACCCCAAAIIIIBADgUImOcQjOQIIIAAAggggAACCCCAAAIIIIAAAggggAAChVOAgHnhfF5pFQIIIIAAAggggAACCCCAAAIIIIAAAggggEAOBQiY5xCM5AgggAACCCCAAAIIIIAAAggggAACCCCAAAKFU4CAeeF8XmkVAggggAACCCCAAAIIIIAAAggggAACCCCAQA4FCJjnEIzkCCCAAAIIIIAAAggggAACCCCAAAIIIIAAAoVTgIB54XxeaRUCCCCAAAIIIIAAAggggAACCCCAAAIIIIBADgUImOcQjOQIIIAAAggggAACCCCAAAIIIIAAAggggAAChVOAgHnhfF5pFQIIIICA+wTKKqsX3ZcdOSGAAAIIIIAAAggggAACCCCAgKcKEDD31GeGeiGAAAIIFLRA2YiIiJFFihTZERAQ0K+gK0P5CCCAAAIIIIAAAggggAACCCCQ9wJF8r4ISkAAAQQQQMCrBGygvFd8fPyTHTp0SO7atWuRSy+9ND45OdmrGkFlEUAAAQQQQAABBBBAAIF8FgioVq1aYExMTGBYWFiRpKSkAH2P8k9JSXE67Pr5+bn8/f1T1CEpJTg4OCk2NjapVKlSJ1avXp2Yz/WkOAQyFSBgnikPJxFAAAEEfEXg+PHjxWyP8tRA+RNPPBFYqVKlwMRE57Ob/YBXx1csaCcCCCCAQI4FXLoiQevWHF/JBQgggAACCHiIQJkyZcoGBQWVUYDbDktZWmtJ3XFbWsHtMgpyl1Kwu4SC3pE6b9cwraFagxUYD7JNsAFxGwwvUaKEExRXeueYjtvTzqL0xuVy+enRT+f99T3Mv2rVqk5AXbvJuj5Rj/Fa47Qdo4uOKu0RXXMwISFhv9a9OnZQ6wHlu09l71O6Pbt27YpzCuAfBNwgQMDcDYhkgQACCCDg3QLq2eAfHR39jFrRrGfPngHPPvtsYIYW2f2pGY6xiwACCCCAQHqBMO3Y94vRWl9Jf4JtBBBAAAEEPEGgfPnyVRVkPk/B55oKjNdSh6H6qlc1BaHLqqNQRNGiReMV7D5RunRpV9myZYtoDVEP8JDixYubyMhIZ1UaY1f1IHfW0NBQExISYgPjuW7iiRMnjDowhcbFxUVpNfqeZtRb3Rw7dswcPXrU6DubOXToUPK+ffvi9uzZk6hH14EDBwKOHDkSUr16dZfqcUAB/p1qz3pdt0Z12qS2blS+G/bv32+D7ywIZEuAgHm2mEiEAAII+IbAihUrTOXKlU3JkiWdBs+fP9+oN4Fp2rRptgFmzJhh9Cu/KVeunLnqqquyvG7x4sWn5b9gwQKjD0DOB68WLVoYfZA7JR996HE+LBUrVuyU4zavOnXqGH0Ych5POZnJTnh4eIrqO3DHjh3mnXfeee6TTz5p3Lt378iOHTumfuqzvQYvzCQLTiGAAAIIIGAFbODhDa1JWl/XyoIAAggggEC+CyjgXVTf45roe9NF+s50hR4bKvhcVYHvWAWWk2rXrh1cq1atovru51+xYkVToUIFo0C5rafTUzzfK3yywMDAQGPXjN//MtQnQPunfkHUAQXJze7du6uop3mVnTt3Nt28eXP8unXrYv/++2+XvueFySFOJusViF+ioPyvCqb/pnTrM+TNLgKOAAFzXggIIIAAAmkCNtC8cOFC89hjj5lVq1YZG7i+8sornfM2CG7H8bYfYOyjfrk3tgeAeiYYO2yJfbTLxIkTTY8ePYwNttsA9L333mts7wDb60C31TlpbA+B1A9BkyZNcgLmuhXP2N4Jdhk/frzp0qWLUY8Bc//99xsFsJ3Ave1dYHszfP/992bv3r1GAW0nb5u/ej7Y3ghm27ZtZsmSJaZmzZq294HRbYVOntn8Z/7Bgwft2mLgwIHPDR8+vPGTTz4Zlc1rSYYAAggggMBfIuildbLW/2fvPuCjqtI+jp/0RkvovYOAUgQVxYKKHVQUe2FZK+iiYlkrNnRXsbwq6+quggpiQ4oogrrYAEUUFymKINK7hJ4QSPL+nwsTQzZgysxkyu9+Pofbzj3n3O8kZOaZc88hYM7PAwIIIIBAUAT0WaiyPqedos9Tp+hz2cn6fNbgkEMO2a65mNI6dOiQqm3XsmVLp6FLKjQgHkgM6+il8dO9tK+eZK0teYs+66YqgF5jwYIFR33zzTeb1VksRtfEy2umPp9+qExTFUCfsy87qygXIGAe5T8A3D4CCCBQWOCkk07yAt4WMB8zZoy78sornYLGznodPPfcc17Q+tRTT/UC1meffbb717/+5e688043depUpzG/vaIsiK7H4rwe4HbdhAkTvMC7PT73wAMPeMFvC5jr23/3z3/+08avc0OGDHHt2rVzvXv39sqwx/mOP/54b/vnn3921vN9/PjxXkDdAvYWnF+0aJH3Zmj06NFeAP+ss85ykyZNcv379/euu/766516TniP7ln5pVwKAue69kF9WdC1lNeTHQEEEEAgegW+162n70uZ0cvAnSOAAAIIBFJgX5D8EnUoulSfwbp269Ytq0ePHlWOOuqo2DZt2ljVe3sjBbIRYVS2et07S+oQFqfOWd4j1RrKxc2aNeuUL7744thPPvkkW8PMZKun+lvqIPaWgudfh9Ht0VQ/CxAw9zMoxSGAAAIVKFBDdW8sT/3qceDat2/v5syZ4/Qom9dL28qbOHGi14vcxqmzYU8s4G29zy3/5MmTXa9evQqqtZ7n9jhfs2bNvLzz5s1z1ot8xowZXkD7+++/d6+//rr7xz/+4b777junNyeuc+fO7t577y0oo/CG9Si3nuZWrw3PYuXceOONrlGjRl7A3ILyK1ascEuWLCl8mTckzOLFi91FF1203/FS7nyWmZl5gq6xxIIAAggggEBJBbKUMamkmcmHAAIIIIBASQU0fEprPa37Vz1de5k6M22++OKLa6rjkw0lyd+dkiLuy2dDfJ5yyimWUh5++OGUpUuX2mffa/V59XKN2b5O46Y/rsD5a6UsluwRILD32fgIuBFuAQEEEEDAHaqA9ldy+D16XQYUveFyGr/bnXbaaQVXW/DbxjG34VU6duzoBdUtEH7iiSd6vcutJ7dvsUfhNC6e17vbhmSxbRve5dtvv/WGR9F44V6A+4cffvCGUbGe5HpU0OuJ7ivDep3bmxV92+/0Tb/X21wzp3uB8hNOOMHr6W7DrYwaNcodc8wx3ljp1rO98GLjsN93333umWf88kT854XLZhsBBBBAAAEEEEAAAQQQCLaAOgsN0eet7/RE8CX6jJWoJ35r7QuWB7spEVlfEw3poienUzXEZw3ZtjviiCOG6rPwt/qS4piIvGFu6oACNlA+CwIIhIaAdYO1R3gXhUZzaEUYCjRRm+/W43dn5uXl9dGY4Gu1XzCJiQLIp2sSzq6dOnU66K3Zt+w2Xvn555/vjVNu446feeaZTpOmOI335s455xyv57n17LZgtb2p0IQxBWXa2OLz58/3xhO34VH0aKD76KOPnM2s3qdPH2f1v/vuu86Gf7Ge5Va+BeJnz57tBeKtIAuY2zjkGkvcaQxxp9nZvTH3fNfZ8C021vqll17qDQ9j45RbQN3G5bNJP61XumaAdzYBab9+/VyDBg0K2lfcxltvvZWtHvVvqQfB0uLOcwwBBBBAAIFSCtys/C8rbS/ldWRHAAEEEECgWAF9zvmPPkOdrs846ep0FG8dlVgCJ2BPNKszWZrWGerEdaU6py3Wk9bzA1djVJd8je5+otK6qFbg5hFAoFiBd3X0zGLPcBCBkgl013h1mxT0zdcQKPkKKmcqSD5Ll3o9zhVMfnr48OGKRbMUFdDY6ZsUVO9eMmZyIYAAAggggAACCCCAAALBE1AP52dvueWWNUU/x7AfHAENWZrfsGHDLHXKahy8Vz2qapqpu20fSnfMGOah9GrQFgQiX+A83eJhSnwVHpjXupF6lnsTu5x33nlOqdrYsWO7DB069LUff/wxVZNuTg5MtZSKAAIIIIAAAggggAACCCAQKAE9lXv9o48+mhCo8in34AI2z1fPnj1/mzBhwiDlvOnguTkbCQIEzCPhVeQeEAh9gUZq4ttK9niNfXO4TSlficW/AlVV3H6uGtIkT2N9x2oizrV6k2UTkLEggAACCCCAQAkF9LRWov6O9oqJiammia4/1CTTq0t46X7Z1DPwnNzc3Lkatmz/Gar3y8UOAggggAAC/yugoTCr62hccnLy/57kSNAE9Hm6fkJCQkj1gg7azUdhRQTMo/BF55YRqACBx1WnDTkztALqjqYqu+uP+CW64ZR///vfeU888cT2Xbt2TdcH/SE6NkMzqT8dTRjcKwIIIIAAAuUVyMzMHKNg+ZtKFui2p7jiNYRXG000vUTB7x01a9aso0B6ho5vUEA8Th+kEzQnxgo7btuaEyRn/fr11mGgjfKt0Nrm2GijcWfX6G92fnZ29v/p0GC7xh7zVp49mjB7leVjQQABBBBAwAT0mS4nJSUl/80337QxtUGpAAEN/OK++uorm39rYwVUT5UVIEDAvALQqRKBKBOwr8F7Kl0RZfddIberiTOrajKYrYUD5RXSECpFAAEEEEAgzAXUo6+VPiCvVDB7tO9W1FP8TQ1/NluB7eM1CdgVCoh/qGD6SOXrrQ/Rc5WvjgLqDyjPXdpepie8muiaYYWuf0h5s3Nycrrq2LNKhyhvM+XprHLO0LkUXT9MQfNvfNewRgABBBBAQF+07taQLHH6W+EuuugiQIIosGHDBqfx412LFi2cPm+vDGLVVFWBArEVWDdVI4BAdAjU020uU9odHbdbsXeZmJg4es2aNWeoV7lNIDujYltD7QgggAACCISvgILXMWp9wfuXJk2aWCeARAXQH1fA4n31Mj9K+8tXrVr1lNZzdexRrV9RT/P2ujZef5MtcP6QjtvfZN9yivYzlHJ0YKfSkrVr136u9TlKuix/j1IbbbMggAACCCBQIKAvavPeeecdZ73Mr7vuOjd3rn1HyxJogZdeesmdcMIJ7uijj3ann356oKuj/BASIGAeQi8GTUEgQgXs/5n9xtWO0PsMhdv6fseOHdaTn0C5/1+N3v4vkhIRQAABBEJZQIHxRWpfR/U0P7pWrVq1t27dmqj9SrVr166loPaR2rYOAbuUbLH3OlkKhOd5e/pHAfVjFOA4UnlX+45pvUI90d9WPpsw7L86V61z584JWi9SmqVzt+ncxEL52UQAAQQQQMAT0JPEbty4ce6YY45x/fv3d3379nXvvfee05ezCPlR4KeffnJ///vfXadOnbwvJjTRp7vhhhv8WANFhYMAAfNweJVoIwIIIFAygS0ly0auUgj0SU9PX6AAxluluIasCCCAAAKRIZCngLfNDXKMhla5WZOtVVXv8UG2rWPj9UTXjwpuv223qr8TH2jbeoz/rGt+0Lbi3/ltlWpobPIXdXyahjRfo/UAHTtFwY2rtG3XvaVyrtCQLDbPS6rO3aY6Kts5FgQQQAABBIoTsED5tGnT3IUXXugmTpzoLJBuAXTrfb58+fLiLuHYQQTsCwfztCD5qaee6lnqb7azQPkzzzzjWrZseZCrORWpAoxhHqmvLPeFAAIIIFAegT4ZGRmD9fh9w4EDB1a79tprbbzZ8pTHtQgggAACYSiwYsUK6x3+ZKGm28Sdd/v2NRzLGNvWmOOT9h372dYKgDv1UPfGLtfaDk2zf/Ytj/g2tH7Ntvflea7QcTYRQAABBBA4qMBZZ53lLOkpYzd16lT3xRdfuGHDhnk9zvX0kuvYsaM79NBDXdu2bV3lynwX68NcsmSJmzdvnvvhhx/c999/7627dOniunXr5p5++mnXrl07X1bWUSxAwDyKX3xuHQEEEEDgfwQKAuW33357NXsDSqD8f4w4gAACCCDwBwLqhX6dsti45HcotVbarMQQdUJgQQABBBAoncDGjRtj9XflgPG7tLQ016tXLy9ZyfoS1wsEz5kzx3388cduwYIFrlKlSl5P6ebNm7umTZu6xo0bO01e7Ro2bOj0ZFTpGhQGuTWnl9OX3m7ZsmVu6dKlzoLkixYtcj///LN33xYUb9++vbvrrrucfbmgJ8PC4K5oYjAFDvgLF8xGUBcCCCCAAAIVKbBt27Y4Tbr2iB69O0qT6MTZG6ciS5L2C49BW+Q0uxUgsEd1/qT0utKrFVA/VSKAAAIHFNAj8Zk6OWFfqqo1XfsOqMUJBBBAAIGDCWgSacW7K80+WJ7C5xo0aOAsWRDdt+izjhcw/uWXX5yl//znP97wLXpSyut9ruHDXJ06dZzm7HA1a9Z0NWrUcNWrV3d66tZpiEpXtWpVL2l4Ml+RQV1ryDKnuUTcli1bXGZmppcsKK4vE9yGDRu8tG7dOqdhzryntqy99mWAfSlgXxCcdNJJTk8Nu1atWrmDfPcQ1HuistAWIGAe2q8PrUMAAQQQCIKAHlHM1SRug/Vmq/Nzzz33V/U+SLz55psrWa+DfYuNx8KzeT6N0FgnqhmHK/1VqaHSECUWBBBAIBQFbI4R5hkJxVeGNiGAAAJhIFClSpXK6gVerqeULBhu6bjjjvufO968ebMXaLag+vr1673g8+LFi93MmTOdBaUtQG2BagtYZ2dnOwuaW49169mekpLiJTuWlJTkFNx3Nv63Jeu5bknzdezXg9vGDLe0Z88ep3k7bJJs76neXbt2OUtWR1ZWljfUjA03s337dmcBczl4Qftq1ap5QXwL5ltg34L9HTp0cPo8592jDYsWib3m/+eF40BABQiYB5SXwhFAAAEEwkVAj+HlaviVx5We0mzzgyZPnvzX008/PXHAgAGVdA/2BtV6C7KElsCHas4cpV+UnlXaqsSCAAIIIIAAAggggAACJRSwALSlNm3alOgKC2ZbEHvnzp1esn1fsNuGs7RkwXBLvuC4Bbx9iwXQLVlQ23p7W3DdAu2WLPBuyQLxqampXlDegvMEwH16rIMlQMA8WNLUgwACCCAQLgJ7CgfOJ02adI96PqSES+OjsJ02VM5nSl2UpiqxIBCyAppIuJo+PLbS/ymt9EGwrT4AdtJ2a33orK8v7fL0wXCaem/do7FHvwnZm6BhCCCAAAIIIBDVAr5e5VGNwM1HvAAB84h/iblBBBBAAIEyChQEznX9jWUsg8uCI2BDHTA+cHCsqeWPBeL1aHBLBcBbqfdUa42hebjWbdX7qrFN2KWxNHe1bt06Xr24KjVr1ixGyVmyR5InTJhw8h133HG8rj9bY3BO+eOqyIEAAggggAACCCCAAAL+FiBg7m9RykMAAQQQiDQBm1zy/yLtprgfBBAon4DGx2xoQXGV0ko9xdvrMeL2GoOzucbdTK9fv/7Oli1bxigontaiRYt4X1Dcxt7Uklpczfao8QUXXBCjibYS+/fv/4IC5k2Ly8cxBBBAAAEEEEAAAQQQCKwAAfPA+lI6AggggAACCCCAQJgKFB1CRZNbddJYnN4QKppoKluB8NxDDjkkpVWrVsm+oLhNNKXFJqUt09K9e3enoHkVDc3SafXq1d+XqRAuQgABBBBAAAEEEEAAgTILEDAvMx0XIoAAAuEloHG597z77rvZ/fr1Sw6vlu9trXpbunXr1nmzs9tM6jY5jPXWtNnQbWZ0FgQQQKCMAvF16tSx4VNaHmgIFQXF45X2G0JFPcLLHBT/o3bq/7SYJUuWZPxRPs4jgAACCCCAAAIIIICA/wUImPvflBIRKKvA+WW9kOsQKInAsmXLbteM442uuuqq015++eWqJbmmovLYTOufffaZmzZtWvZXX32V/euvv6ap7ZkKkq9TkCpTs6zvUmAredOmTQ01I3uGJp5J0bAHO44//vhKJ554Yny3bt0qqunUiwACISrg7yFUAn2b+n8uJtB1UD4CCCCAAAIIIIAAAgj8rwAB8/814QgCfhewD+l6rHpF0YLVMzYtKSkpcfny5ZlFzxW3b/kVF0xYunTp5n3nYxs3blxbgdA1xeXnGAJFBRYuXHiRgjAvnnPOORcNHz68avXq1YtmqdD9iRMnujfffHPr9OnTkzVR3jQFxMdpIryv1Lv8v2pYbjGNs8k4G3fu3PnuBQsWdFZg/aQxY8ZcoN70rS666KKEyy67LEGB9GIu4xACCESiQEUMoRKJjtwTAggggAACCCCAAALRLEDAPJpffe49YAIKkJ+rwi9VylFw8l9a36hjf9O6gQLnE7X2FvWUPXrPnj1NtPPS3iO//6v8b2rvceWf7TuqHrXHKhDYQPsv2zFNKpau/cHa7G/7LAiURODnn3++TkOarOjRo8ftL774YpUjjzyyJJcFLE9mZqZT8H63Uo5+J2YpSP78qlWrxqrC4gLkxbbju+++260TX+9Lj2o4g8ZvvPHG1aNHj75B4wEn3XLLLakaTqHYazmIAAJhJ+AbQsWGUWmlL9cO17qtnkxpHK+lUaNGu4I9hErYCdJgBBBAAAEEEEAAAQQQOKAAAfMD0nACgbIJaNKvqtnZ2f0V6D5TJXgBPwW/b9SH+VxNFJalIHd1BdEfUorVeQsKOo2deobO79E1H9u+8jeytZZ+SrMbNGjQXtfeGBMTk6HrPtRkYHUSExP/qnOpSnlKLAiUSkA9sYcoqDz/4osvHnnHHXckXX/99UH/e7Bt2zb37LPP7vr3v/8dm5qa+rL2n1q5cuWiUt3IATKrR/oypft0+j797gyaOnXq/epxnnjfffcl66mOA1zFYQQQCCUB/S1sqL97rdSmVpUqVWqvv3vt9WVfc/2NTdff0p0tW7aMadOmTZqeIon3Tbhp8xposb+NLAgggAACCCCAAAIIIIBAmQSCHiApUyu5CIEwEtAH+WZqrvUK3693rIJ2tRTsbqrjpyi9pGDe9woG9ND2sQoIZClYPkDbvqWfjo3UNQMULE/R+k6N39xfZV9nGRQ0uFqrt5UsKNBHiQWBUgvoZ3CcfgbbPvfcc6989NFHHf/2t7+lt27dutTllOWCp59+es/jjz+eX61atZf0c/2QhhVaX5ZySnLN4sWLn9IwDc+PHTv2KQ35cuVjjz2Wdvrpp5fkUvIggEAQBfT/0TGVK1ceqE7iR2zfvr1BRkZGtgLhueotntKqVatkX1Bc+axVAZtwM4i3TFUIIIAAAggggIBPoLk2fvHtsEYAgYoVIGBesf7UHoECCmb/qmFSOh7k1jIUAF9Z6HxtBcc3aT9/3zHreX6C8iTo+BaN33y+1ilLlizZoiDBcp1LU+C9jo6tsOP7rmGFQJkE9EXNcqWT1Lu7/xlnnDG0b9++MTfffHOqhjgoU3kHu0g9Q90rr7ySq17lWQqGfblu3boWa9eutTHIA75o3P9sVWJfQL09aNCgVzSRaJ0HH3yQruYBl6cCBEomoPk4bkhLS/v73XffnaphomItOK4hmgiKl4yPXAgggAACCCAQ5gKaq2yknjrP3rFjx026lblhfjs0H4GwF7DAHAsCCPhRwCbkVCD7EwW331Z6XhN1Hlq4eAW7X9Mfwpd07tl9x99V/i80PIb9YbThWE5WnvfU+/de7V6tc9aD/D0df0XrPyvZMlp5nlJQ/UGdZ0iWvSb8Ww6BFStW/FM/Uw1Gjhz5UocOHXY/9NBD2er1XY4Sf790/vz5TkOhZKmXaPZTTz31jsYsP1a/JwNVX87vuYKzpSFfPvvxxx+bq7f5++eff/723377LTgVU0ugBS5WBRMCXQnlB0ZAw6u0UnD8iUmTJlXSRL2xGmrFguWBqYxSEUAAAQQQQACBEBRQwLzqiSeeeIKewP0qPT39DTXxsBBsJk1CAAEEEECg3AKxGgYi+QClxLZr165UPec6d+6cUKQsiyaEw5deLdTOeUXazm4IC6inZ1317vxb8+bNN5199tmbXn311VwFuBXfLtmiL3LyZ86cma+hT3K6deu2SWMML9fvwuCGDRt64yjsu3V//VxYD/WhZeFUUO6+Ll26bFVAP793796b1Pu8e1nK4ZrACeg1aakvE69RQPWkorXoy8g0nbu26PHi9pWvt46Hw/+XxTU/4o9pks7BGhJqV8n+h4mOXBdeeOEmfVHeI+JffG4QAQQQQAABBDyBGjVqzPnPf/6Tv2HDhnw9CbtbgfPtvsC5zlXW0Jk7SvouaN68eflvv/12/jvvvJOvJ2tLetkB882ePTt/1669b9W2bt3qlW3l23F/LTNmzChRUZrkPX/WrFkFeb/88st8PY2fryeXC47Zhn0mVUet/Y6Vd2f48OH5mjvnaX5kAyIwU6W2D0jJZSw0vozXcRkCCPyxQN6+YSCKy5mnIF2petd+9913u4sUtN8Y6UXOsYtAmQXUs3yNLr7LksYXP0s9svs8+uijp2tc4TS9UcuxcfVtPGFNwhdrvUD1psVt3LgxRxOJZv300095y5cvT9O5H/U44QS9sZqopyW+LXNjAnjhokWLHlagbvm55577ot48eTMFBrA6ii69QKxel3/riZy7tK5sHxQ0oWOsDU+lAHoD/ezt2LNnTxdNmjxNb5AXWvG1atWqoZ/Tehr+Z5Emd62ja3/Tz2OmTmXpS6DK+nn+P20P1jBEKyw/S2gIaCgWPYBySKm+RA6NltMKBBBAAAEEIkrAJjOyp5utYwuPegX5pdVQrA2tSr2Hdbfcckv8gAED4p9//vk+Dz/88AX6XPWG5nmJKWmTPvjgA6fOSk4dodzLL7/sVLZTRyanYTGdPqcVFLNlyxbnG4pTQ3Q61eGd02c4p2FmvX0FnZ0C715Zml/GPve5KVOmOD0V6NQ+N3DgQHfYYYe5nTt3Os275vT+2/mut3vR+29nk7L7zlsF1h69Z3c2ZKeGtPXqsnx6b+9db20p3C4rNyFhb/9Ba/Obb77p1PHJa+uLL77o7r33Xs/Nrt+0aZN9JnAff/yx0xCg7oorriio29pm92V1Wb1Wrl2jp/Z5utHT5J/CAgTMC2uwjUDFCryr6l9WmlSxzaB2BH4XWLVq1Qfas2Rvkup+/fXXh2oYk79Wr159ut5gVNEbnQS94dimNz02aedKpZ91zRzLHw6Lgqmv6s3kZrV/vHohhEOTo6mNeQqUW6q3b4LaXvpyxr7YGKljT2l9ndJpeoM7Xz1x/6afxT/pdbSuKU/qDfUovZ5jlLqrF8ipeoP+Z6Xf9Cb5EB1rpusImAshVBa9LjF63UKlObQDAQQQQACBaBS4RDf9gtIwpY+U9iixBFFA72mPV3XpviqnTp3qJk6cuF0dC9Yr0D1WAd7zfOdKsrZAsAWkLRisMtywYcOcBb8tiKw5pdy1117r1HnI2XswO29Bar3ndv/85z/dUUcd5fQErhf4tus//PBDd9tttxVUax2mfENbqie8mzBhglNPb2fB7AceeMCdddZZ3vVz5sxx6tziTjjhBKde4d75m266yekJZqcnmd2//vUvd+eddzq7V/WKd+rU4qZPn+4Fse28bVug3Mp+/fXXbfharw2LFy92GkrU27bguzoXOnXqcoMHD3bq2OXUC96pd75TBykvWF+4bX/5y1+8Ntn9vvTSS+6JJ55wF198sdPT1QX3xwYCJkDAnJ8DBBBAAIESCezreV5LPXtPUM+Cj/Xt/P0lujDEM2n89gl689VNvZRnhHhTo655egPcSz9v/fT62BeKr/gA9MbdN7zKl3pj/4zON1feRnrD/4XeaD+v/dO1vl/rBxUob2rXqVf6f5V3iV7nz33lsEYAAQQQQAABBBBw1nPZhjg8XekrPCpGQB0IbA4zLzg9dOjQzXqqcpV6Sz+kQ2/bk5albZWGdvGC0BYI7tixoxs0aJA7/vjj3fr1693nn3/u1AHKCzBv3rzZ3XDDDV5A+h//+IcXfLb8999/v7v00kvd6NGjvZ7pheu3nuMWkLYyfvjhBzdmzBj3yiuvOA2r4jQnjVefXd+3b1+vF7r18vad1xAxXnDegtj2tPLkyZNdr169vLZaHT179nQ2+fv777/v9DnNjRo1yt1xxx1eYN/XBuuxboFxW6y3u2+x4LwF0y+66CLviwL7QqBo26wXvfWMt17z9kWAzdtFsNwnyLqwgO8DZ+FjbCOAAAIIIFCsgN4Y3XPeeefF6k3S7coQMY9qKrhKsLzYV7ziDqpneJIC443VO+YdtaKytrcqtbUJIhUYr28t034HjWVuPcbb6tgm7fuGusqy81p0ON97fFU9T6y3erVi5oPYm5N/EUAAAQQQQACB6BTortteoESwvAJff/XObqpgcW7//v0XfPvtt9cpWH6omvN2WZvUo0cPpzmlvED0999/7/Te2utVrolF3aGHHuoFzq23+TPPPOP1MLfgtAW/FZz3hiqxeq33th3/5Zdf9muGBawtqG3Dvliv8KZNm7q5c+c6tdsbDsWGOrHFty56vn379l67rC3Wu9wX/LZrLKBtgXRbbNgUa5OlwosNuWK94C3p/X/BKQvg33fffd49WRk2PEvRun1tsl7w1tP+uOOOK7ieDQQKC9DDvLAG2wgggAACBxPooJNnaJy42GuuuSZJ3/rfovHpnjjYBZxDoKwCCpTHqKdNH73ZTVKg+w4b6kfB8o4aUuV8HX9SKUtv4ofq/J/0RvlRPa65QY+dTrT6lN/7cKG8nyrfBp23/Vxtv6Ve5ldoe7jlY0EAAQQQQAABBBBwtWWwCoeKFdD71mzmC7MAAEAASURBVLc01Mk0pVfL25Jjjz3WqVOJV4wmVncWMLce39bb2oLTNWvW9Hqc2zAnl19+uReYfvfdd50mHfcC4dbj25YhQ4Z411x55ZUuJSXFO2Y9y63n9rhx47yhTS644AJvjPC33nrLC5bbUCo2PrktvnJuvfVWV/i8Df3SsmVLb+xz6xVui11n5Vow3oLmxxxzjLP7sGB53bp1C8Y0tzHYTz31VO8a+0edubwvA+w6q9d6st9zzz2uTZs2bubMme7mm2/27sGC7FaHLxifmprqmjRp4s4555yCsthAAAEEEAhNARty4MzQbFq5WtVCV88rVwlcHBICenP0tiad2WMzo+sRuny9kdmohpW1l7m/fi5uVBvsEVIWBBAIU4F27dq9MXbsWH3PweIT0AfWTRpSqEeYvqQ0GwEEEEAgvARs/PIR4dXk6GqtDcnSunXrHb73CdGyVketfI1xnv/II4/4/ZY1fnm+epiXqtzhw4fnq6f+09H10xe0u52pmtoHrbYSVLT3a58SZCQLAggggEBUC3i9yzW+nRcg79Chg32zTy/zqP6RCKmbf1OteUNpQki1isYggAACCCCAAAIIIIBAmQRsYtJALVdddVWgiqbcCBFgDPMIeSG5DQQQQCCQAjZ2uSaKSfE9Xmd16fG2ShpX7k5tlrWXeSCbTNkIIIAAAggggAACCCCAAAIIIIBAqQXoYV5qMi5AAAEEok6goyahOVezpu+wx+I0vl4ljQm9UylPY+xVlcZNSk9FnQo3HGoCv8/4E2otoz0IIIAAAggggAACCJRRQJ+78jV3T14ZL+cyPwnk5OTsUMrxU3EUE+ICBMxD/AWieQgggEAICKxWkLz52rVrE/e1ZZLWA5SWKuUr5SqxIFCRAvbGNakiG0DdCCCAAAIIIIAAAggEQmDDhg3bNenmwilTprQ57bTTUgNRB2X+scCoUaPW7dmz56s/zkmOSBBgSJZIeBW5BwQQQCCwAutV/AqlX/YlC04u37e9ROtlSiwIVKTAAlXepSIbQN0IIIAAAggggAACCARKQIHau/r37++mT59uHZZYgiyg4Ui3rFq1avbq1avHB7lqqqsgAQLmFQRPtQgggAACCCDgN4HXVdLVSr39ViIFIYAAAggggAACCCAQIgIK1H68e/fuCy677LLf7rvvvo3bt28PkZZFdjM++eST3COPPHLt+PHj3/n1118viOy75e4KCzAkS2ENthFAAAEESiJQQ5kyS5KRPAgEScCegDhf6VGlx5TWKNH7RgjhsCxdurRpOLSTNiKAAAIIIIAAAhUpsHLlykkZGRnNNTTIwyNHjrz+0ksvzVYAvUq7du0qslkRV7cNUz5u3Ljcl156acvy5ctX6suJe/WFxcSIu1Fu6KACBMwPysNJBBBAAIEiAudqf7HSxiLH2UWgogWmqgFdlSz4WquiG0P9JReoWbPmg8rdqORXkBMBBBBAAAEEEIhOgU2bNm1Vuql27dqPvPbaa1ePGTPm6vT09MrnnntuSo8ePdKOOOKI6IQp511rvi735Zdf5qsn+YZp06ZVS0hIeH/nzp3/WrNmzZRyFs3lYSpAwDxMXziajQACCARQoLnKrlqo/Bhtpyh1UxqsxLAXQmAJWYFf1TJLLGEikJaWxhMrYfJa0UwEEEAAAQQQCA2BdevW2TxT9nTlo3Xr1u38wgsv9Bw9evT5O3bsaHXYYYdtOe644yp16dIlVduuevXqodHoEGrFggUL3Jw5c/I0JnzmzJkzY7Zs2eJiY2M/2bZt21it3/vll1+yQqi5NKUCBAiYVwA6VSKAAAIhKnCZ2nW3ks1vsalIG7O1P0fJevDOLXKOXQQQQCAkBCZNmuROO+00FxcXV9Ce77//3tmjyomJid6xr7/+2nXtav+VOafHa23yLG+7atWqTj2z7MOSt1/cP7Nnz3aHHnpoQVnF5eEYAggggAACCCAQTAH1gv5O9Vl6UD3P02bNmnXst99+27VKlSonaNzzjsnJyQktW7bcpfdDSW3atKnUrFkz16RJE6dAezCbGfS69OWBW7ZsmdPwf27RokU58+fP32GBcg1tk5aSkvKrhl6Znp2dPT0/P/8rGf4Y9AZSYUgLEDAP6ZeHxiGAAAJBEzhRNT2idLnStKDVSkUIIICAnwQ0EZMbMmSIFyy3oLktmZmZ7p133nGNGzd2elzZbd261b3yyisFAfO5c+e6hQsXulNPPdV99NFHTr2JXP/+/V1WVpZLSkryytizZ48XILfxLPWhyjtm/9hkW5UqVfKO6YNowXrXrl0F1xZkZgMBBBBAAAEEEAiCgHqe71A1NozIFOsYYEutWrVqb968+dBvvvmmjd6ztFM6TO9vmuk9S3WNiZ6lwHlugwYNYhs1apRYv379FA2XF1OjRg2vZ7rOu2rVqh20Q4FXSRD/0VAp3nu83377zVnasGGD05Aqu1esWJGlYPieVatWxWg/KVeL3s+t1OonvW+zzl8/qVPFfOWbF8TmUlWYChAwD9MXjmYjgAACfhb4k8p7WIlguZ9hKQ4BBIIj8NZbb7mhQ4e64cOHe73M7777bhcTE+M+/PBDd8stt7i+ffs6fRh0P/64fwcifYhyFgy3pXLlym7y5Mnu888/9z6IWRkPPfSQ06RPXiDdHmlu27atu//++516JjmNb2m9lLx6TzrpJKdxL90DDzzg9Fh0cG6aWhBAAAEEEEAAgT8QWL9+/TplsfSfolnVA72hguyN/vvf/zbQ+6Z6etKuvobLa6LAcj31vK6lwHo1BdYraz9P731y1Flgj87n2XsmbccoxSnFp6amxikQH6sAdYxSnJ7si9U1MUpesN3ek9miMr1k778sqf48pVx1SshXPXla5ym4vUe9w/doeBTbtk4KMUpxCpQn6HxCfHx8jt6DbVHZv+Xl5a3VdSuUlqns1UqrdMyC5Ms2bty4rej9so9ASQUImJdUinwIIIBAZAscptt7PLJvkbtDAIFIFbAPXBMmTPAC3z/88EPB47cay9PrCW6P4zZt2tQ9+OCD7oorrtiPQT2unB5btnEs3b333uuuvPJKpx5WTh+2nHpiWa8sN2PGDK+Xuj3aqw+d7quvvnLdu3f3jl966aXO6rFrxo0bF/GPN++Hxw4CCCCAAAIIhLWAeqGv0A1YOuii4VwSFYCuprG+q+p9VxUFqysrOF1JF6XuSyl675SkwLilRJ1LUPA9QfksxWs7TilG13qL8u7Wxm7l26OUo2us94I9ypetfRs/fKeO7VDapqD9NpWxRcHyLTbpqc6xIBBwAQLmASemAgQQQCAsBGxw39/HGgiLJtNIBBBAYK/AZ5995i655BJ31VVXuW7durmRI0d6vZb0yK03zIoeLXaLFy92y5cvt0d292Pr3Lmzu/zyy71hWEaNGuWaN2/uevbs6fQ4rxcEt/1rr73WK3PEiBHOHk22IV5uvPFGb3gXG87Fepe/+OKL7rrrrnP//Oc/9yufHQQQQAABBBBAINwFNP63BbRtolFLLAhEvMCBZzWK+FvnBhFAIEgCi1XPoUGqi2rKLrD3GbmyX8+VCCCAQIUJqMeSu/jii50eEfaC1xbQtvHMx4wZ4/UYt17iN9xwg/vggw+8oVV8DbVgePv27b3dQYMGeT3UbfgWPZbsrOe5nevUqZMbOHCgO+SQQ7yxzvXYsbv99tvdq6++6tVlw7Tcdttt7sgjj/TWRx11lK941ggggAACCCCAAAIIIIAAAgggUA6Bd3XtmeW4PiCXatKPs+rVq3e1UsOiFejcoKLH/mi/tNco/y1/VCbn/SIwX6U090tJJSukhbL5Y7KVG1XO0JJVSS4EEAhFAT3i+8bYsWP19C2LT+DCCy/cpL+7PULx9aJNCCCAAAIRJ3CJ7mhExN0VN4QAAuEkMFON3duLJURaTQ/zEHkhaAYCoSigYPUFalc3fYD/WWsbm8zGZm3TpEmTarat411trQ/1qZpIzcbAjrN9XVdd+TrbWudGFA622zXK29Kusbxa4u3a2rVrp+3d3X/fV4d6C9ZVvpR9eVghgAACCCCAAAIIIIAAAggggAACCCDgdwEC5n4npUAEIkdAE3GsVcC6rR51X6vJQBYqyP2Q7q53Tk7OaxYMtzu1wLfyvKMJO07W9lNKh2j/ZU3OcbTWhyvLISqnmeW1RcfbaP9cbY5VADxD+Udp/wxN4vGWJkxLL7pv11jwXTNnP7py5UobN40FAQQQQAABBBBAAAEEEEAAAQQQQACBgAgQMA8IK4UiEBkCa9as+VJ3cqcC3w8okH2Rtk9RwDtDyWax9obv0Lq9UrpSA52vq3Sy0jAF2Icp0P2ZtpdogrXPtfYtK3RuqPKPVqD8VB1M1P7j2n9fs18fV3hfQXIbCFanYt7R+nalXCUWBBBAAAEEEEAAAQQQQAABBBBAAAEEAiJAwDwgrBSKQGQI1KlTp4l6jm9SwPp13VE7pRXqbf629m9KTk6eY3cZHx+/TAH1TOV7XLu36txSrY9VgL3G8uXLk3SuWufOnRN0zFu039iGddFON+VdpnUlDcdSS8ePVFpUeF/bdj5fdV6ic09qmwUBBBBAAAEEEEAAAQQQQAABBBBAAIGACRAwDxgtBSMQEQI1NVTKbbqT1gqIP6b1AAWuT1HP8Kt27twZp4D328uWLVuj448p3yCd67Jq1aoPdPxXHbs1KSkpUcHut9RT/Qrte4vyDNax81TGNOX9SuUOUtD9Zp0cr3w/Ft1X/rc1FMtMlTlWw8BYL3YWBBBAAAEEEEAAAQQQQAABBBBAAAEEAiIQH5BSKRQBBCJCQEOpzNKNWPItO7TxiG9H6zG2rUD3F1pZ8hYFwl/1bWv9WqFty/tu4f1169bN0/7dvmNF9335NWzLBF8e1ggggAACCCCAAAIIIIAAAggggAACCARCgB7mgVClTAQQKCzQQjsWFGdBAAEEEEAAAQQQQAABBBBAAAEEEEAgpAUImIf0y0PjEEAAAQQQQAABBBBAAAEEEEAAAQQQQAABBIIlQMA8WNLUgwACCCCAAAIIIIAAAggggAACCCCAAAIIIBDSAgTMQ/rloXEIIIAAAggggAACCCCAAAIIIIAAAggggAACwRIgYB4saepBAAEEEEAAAQQQQAABBBBAAAEEEEAAAQQQCGkBAuYh/fLQOAQQQAABBBBAAAEEEEAAAQQQQAABBBBAAIFgCRAwD5Y09SCAAAIIIIAAAgggUAKB/Px8FxMTk1+CrGRBAAEEEEAAAQQQQAABPwsQMPczKMUhgAACCCCAAAIIlFwgKytr7YYNG/JKfkXk59y4cWN+Xl7elsi/U+4QAQQQQAABBBBAAIHQEyBgHnqvCS1CAAEEEEAAAQSiRiAnJ2fCa6+9RnB43ys+c+ZMt3r16uw1a9Z8GzU/BNwoAggggAACCCCAAAIhJEDAPIReDJqCAAIIIIAAAghEm8DKlSs/U4/qcZdeeumWRYsWRdvt73e/kydPdn379t2xdevWG/c7wQ4CCCCAAAIIIIAAAggETSA+aDVREQIIIIAAAggggAACxQgsXLjwquzs7J969eo1KDc3t4rG7y4mV+APqQ2xycnJFTE8TMzu3bvjUlJS5m7btu1O9S7/JPB3Sw0IIIAAAggggAACCCBQnAAB8+JUOIYAAggggAACCCAQVIFly5YNVYVD69Wrl6qgedAj5pmZmc012ea/MzIyTgrqje+rbN26dbu0uaci6qZOBBBAAAEEEEAAAQQQ+F2AgPnvFmwhgAACCCCAAAIIVLCAxu/eWRFNqFat2n07duzoosD1Gap/TEW0gToRQAABBBBAAAEEEECg4gUYw7ziXwNagAACCCCAAAIIIFCxAp1iY2NPHzFiRKx6mA+u2KZQOwIIIIAAAggggAACCFSkAAHzitSnbgQQQAABBBBAAIEKF1Dv8rtvvfXWlLPPPts1adKkoRrUp8IbRQMQQAABBBAIjsAbqqZfcKqiFgQQQCA8BAiYh8frRCsRQAABBBBAAAEEAiPg9S4fMGBAnBV/++23V6OXeWCgKRUBBBBAAAEEEEAAgXAQIGAeDq8SbUQAAQQQQAABBBAIiIB6l99jvcvj4rx4uTvrrLPoZR4QaQpFAAEEEAimgCbRrqHUr27duuer3r1/5Ao1oH79+oMK7R5wU2V0q1mzZp0DZuAEAgggEIECTPoZgS8qt4QAAggggAACCCBQIoEO27dvP7dz585xM2fOLLjg+OOPrzZv3rx/5eTkMPlngQobCCCAAAJhJvDvmJiYZ9Xmqkp5Cnw31MTaKxQor56QkLBDf+O6NmjQoGVeXt4qm3DbguI6npibmxu3e/fu35KTk+vq+ML8/PxdOr5H1z+nvK+tXbt2tsrLDTMLmosAAgiUSoCAeam4yIwAAggggAACCCAQQQJn6cP/7iuuuGKuAgLJ2m6snuYL7f6SkpKyFUzors3PlFgQQAABBBAIN4Hf9LftME1q/W81PF/B86e17qNjf87Ozv5Mf+/a6O/euTp2sgLnl2r7aeX5VccPVdqu7fUKrv9X+a13+TSlDiqrQ4sWLX5YvHgxAXOBsCCAQOQKEDCP3NeWO0MAAQQQQAABBBA4uMCjChA8umHDBsvVTuk1pc62w4IAAggggEA4C6h3+HUKePdWwPvDGjVq9Cp0LzH7tlcoz1DlWade5SfqWHx6evoDmZmZV2h7o4Ljs/Q38nZtr1PaqfSL8r2hYPkubbMggAACES3AGOYR/fJycwgggAACCCCAAAIIIIAAAgggEG0C6jXeVr3EpypgvlZPTVXVumrt2rVryaGrWWi/scY3b6PNbgqOr1be/Pnz5+fYKaUsHbN1waL82RqapZ4O+ALuBefYQAABBCJNgIB5pL2i3A8CCCCAAAIIIIAAAggggAACCES1gHqHH690pwLfr61atWqlAt4Pa6iVQQqMv6fA9yrtD9a585Rnms5/peNv7wP7Xj3JF+/cuXObzk3WsWnKv0brZ7V/jXqrV4pqWG4eAQQQQAABBIIq8K5qOzOoNQanshaqZl5wqqKWcgjM17XNy3F9aS/118/Fjap4aGkrJz8CCCBQjIANyfJdMcc5hAACCCCAAAIIIIAAAoETmKmi2weu+NKXTA/z0ptxBQIIIIAAAggggAACCCCAAAIIIBAJApfoJkZEwo1wDwgggIC/BAiY+0uSchBAAAEEEEAAAQQQQAABBBBAAAEEEEAAAQTCWoCAeVi/fDQeAQQQQAABBBBAAAEEEEAAAQQQQAABBBBAwF8CBMz9JUk5CCCAAAIIIIAAAggggAACCCCAAAIIIIAAAmEtQMA8rF8+Go8AAggggAACCCCAAAIIIIAAAggggAACCCDgLwEC5v6SpBwEEEAAAQQQQAABBBBAAAEEEEAAAQQQQACBsBYgYB7WLx+NRwABBBBAAAEEEEAAAQQQQAABBBBAAAEEEPCXAAFzf0lSDgIIIIAAAggggAACCCCAAAIIIIAAAggggEBYCxAwD+uXj8YjgAACCCCAAAIIIIAAAggggAACCCCAAAII+EuAgLm/JCkHAQQQQAABBBBAAAEEEEAAAQQQQAABBBBAIKwFCJiH9ctH4xFAAAEEEEAAAQQQQAABBBBAAAEEEEAAAQT8JUDA3F+SlIMAAggggAACCCCAAAIIIIAAAggggAACCCAQ1gIEzMP65aPxCCCAAAIIIIAAAggggAACCCCAAAIIIIAAAv4SIGDuL0nKQQABBBBAAAEEEEAAAQQQQAABBBBAAAEEEAhrAQLmYf3y0XgEEEAAAQQQQAABBBBAAAEEEEAAAQQQQAABfwkQMPeXJOUggAACCCCAAAIIIIAAAggggAACCCCAAAIIhLUAAfOwfvloPAIIIIAAAggggAACCCCAAAIIIIAAAggggIC/BOL9VRDlIIAAAggggAACCCCAAAIIIIBAdAo0a9asak5OTiPdfczKlSt/iE4F7hoBBBBAIBIECJhHwqvIPSCAAAIIIIAAAggggAACCCAQOIGYevXqNVTxFhBvFBsb26hy5cqHJCQkNN+zZ0/DrKysWtrOr1+//q6YmJj8pKSkhLy8vAd//fXXJwPXJEpGAAEEEEAgMAIEzAPjSqkIIIAAAggggAACCCCAAAIIhIVAkyZNqinw3Sg/P98LiicnJzdPS0trrf0mu3btqque41UyMjKyFDTPbdSoUbx6k6c2aNAgTgFyp2PO1gqS272m2j9Lly51N9xww73aTFHQfIgdY0EAAQQQQCBcBAiYh8srRTsRQAABBBBAAAEEEEAAAQQQKL1AbN26dQv3Dm9cpUqV1vHx8S1yc3MbWO9wBbtza9WqlaNgeIyC58mNGzdOLhwMr1GjhtWaUNKqVYYbMWJEtSOPPPI+Bdqf3bRp09aSXks+BBBAAAEEKlqAgHlFvwLUjwACCCCAAAIIIIAAAggggEAZBRTkTlfg24ZKaage4Y1SU1NbpKSktNZ+4329wytXr159p3qC5ymQHa+Upt7hsYUD4omJiVZ7mv3jr0UBeHfMMcds/+KLL45TmR/4q1zKQQABBBBAINACBMwDLUz5CCCAAAIIIIAAAggggAACCJRNIK5OnToNNS64N3a4eoU3trHD4+Limlvv8J07d9bU8Cm5tWvX9nqHN23aNFkB9P16hytYbjVXLVv15buqatWqFnPwhmkpX0lcjQACCCCAQPAECJgHz5qaEEAAAQQQQAABBBBAAAEEECgQUE/vDOsVbkkHG/p6h2u/scYNt7HD0xTwzlJv8AP2Dtdkm1aeX3uHFzSwnBsK9FsJ3j/lLIrLEUAAAQQQCJoAAfOgUVMRAggggAACCCCAAAIIIIBAFAnEq+d3IwWNvR7ixfUO19Ape3y9wzVUSorGDk+yoVJ8w6Vo/G/j8sZLiSI3bhUBBBBAAIEKFSBgXqH8VI4AAggggAACCCCAAAIIIBCOAgpqV9/XM9zrHZ6WltZSw6O0st7hNnb47t27UzVZptc7XIHwBA2Xklp07HAF0ZN07yHZOzwcXxPajAACCCCAgD8ECJj7Q5EyEEAAAQQQQAABBBBAAAEEIkagc+fOCevXr7ehUryJNDVmeBONHd7axg5XILxBVlZWTQ2fkqPe4bs1Znhss2bNkhs2bLhf7/D09HTzoHd4xPxUcCMIIIAAAtEiQMA8Wl5p7hMBBBBAAAEEEEAAAQQQQKBYgbp16x6nCSr7q8d3p+zs7DqbNm1K1WSbvrHDvd7h6lEe6xsqxdYKnhMML1aTgwgggAACCIS3AAHz8H79aD0CCCCAAAIIIIAAAggggEA5BDRUyu1VqlS594477qjcoUOHGAuGV6tWzUokIF4OVy5FAAEEEEAgXAUImIfrK0e7EUAAAQQQQAABBBBAAAEEyiWgnuVdNPHm4ClTplTS8CrlKouLEUAAAQQQQCAyBGIj4za4CwQQQAABBBBAAAEEEEAAAQRKJ6CJOvsOHDgwhWB56dzIjQACCCCAQCQLEDCP5FeXe0MAAQQQQAABBBBAAAEEEDiggHqXt23dunXcATNwAoHIF4jRLeZF/m1yhwgggEDJBQiYl9yKnAgggAACCCCAAAIIIIAAAhEkEKMlgm6HW0GgLALNddGKslzINQgggECkChAwj9RXlvtCAAEEEEAAAQQQQAABBBBAAAEEDizQQKf+pPTBgbNwBgEEEIg+ASb9jL7XnDtGAAEEEEAAAQQQQAABBBBAIOAC2dnZMb/99lsvVdQ44JVRQWkFGuqCC5WeVJpV2ovJjwACCESyAAHzSH51uTcEEEAAAQQQQAABBBBAAAEEKlAgLy8vRdVXrsAmUHXxAj/p8PFKPxd/mqMIIIBA9AoQMI/e1547RwABBBBAAAEEEEAAAQQQQCBgAsnJyfk1a9Z8e9WqVW8HrBIKRgABBBBAwM8CjGHuZ1CKQwABBBBAAAEEEEAAAQQQQAABBBBAAAEEEAhPAQLm4fm60WoEEEAAAQQQQAABBBBAAAEEEEAAAQQQQAABPwsQMPczKMUhgAACCCCAAAIIIIAAAggggAACCCCAAAIIhKcAAfPwfN1oNQIIIIAAAggggAACCCCAAAIIIIAAAggggICfBQiY+xmU4hBAAAEEEEAAAQQQQAABBBBAAAEEEEAAAQTCU4CAeXi+brQaAQQQQAABBBBAAAEEEEAAAQQQQAABBBBAwM8CBMz9DEpxCCCAAAIIIIAAAggggAACCCCAAAIIIIAAAuEpQMA8PF83Wo0AAggggAACCCCAAAIIIIAAAggggAACCCDgZ4F4P5dHcQgggAACCCCAAAIIIIAAAggggAACCCCAAAIIlETgqJJkCmYeAubB1KYuBBBAAAEEEEAAAQQQQACBsBSYP3++W7BgQUHbzzvvPBcXF1ewn5+f77Zs2eKqVatWcKy4jR9++MEtXLjQxcfHu+OPP95Vr169uGx+PTZv3jz3448/eu3t2rWrq1ev3v+Un5mZ6dLT0/c7Pnv2bHfooYc6W9t1LAgggAACCJRXQH+DGq5evXpFacvRdY0SEhJ2L1u2bE1pry1tfoZkKa0Y+RFAAAEEEEAAAQQQQAABBKJOYNKkSW7Hjh2udu3aXrIA+Z49e7wguWF8/PHHbuLEiZ5LVlaWy8vL87ZzcnLc1q1bvW37Z/z48d51iYmJbuDAgd5xK2v79u3etpVp23adlWN12rJt2zZvnZ2dvd96165d3r5d59suWucHH3zg7LqUlBQ3YMAAt2LF3jhF4TrvuOMOr127d+9269atK6jD7uPVV1/19u14bm6ut80/CCCAAALRI1CzZs069evXH6mg9St169Z9uJx3/mTR6+vUqdPEAuJFj/v2db6ttp/V36hmvmOBXNPDPJC6lI0AAggggAACCCCAAAIIIBAxAha0tl7kaWlpXo/tBx980B1yyCHevgXAFy1a5BRUcJ9//rmzHtt2vn///k4f9N3jjz/uKlWq5FnYOQtq23ELWlsQu3Hjxq5Zs2Zez3MLqp966qnuzTffdFdccYWbM2eO1/s7JibGrV+/3g0dOtSddNJJXvD9gQcecIMGDXLPPfecS0pKcn369PHqKlrn4Ycf7tq1a+cFvCdPnuwF160dFgS/+eab3S+//OJmzJjhXnjhBdeiRQunXnxe2+z+bLn//vsL7nvEiBHesXL+01TX36Q0WOn3bxTKWSiXI4AAAgj4X0B/E4ao1CfUM3yOld6gQYMMfYH6iP4u5eoL24f1N7C2vmC9TKdq6NgsfRFsw6x8oTxvx8bGPqRj6To2dc2aNaPsei1xCrw/qOMZOv6Y1n/TsTwF5R/U+iSlTjo+UvVN07Y9ITVQ5SeorA3K86jO1dDhF1T+Qp27Q9sWbJ+scjroXG2tvTZoPXLVqlVTda5UCz3MS8VFZgQQQAABBBBAAAEEEEAAgWgVSE5OdpYsMG1Lly5d3JAhQ9yvv/7qOnXq5E4++WQ3evRob+gT65n95ZdfusqVK7vnn3++IFhu19kxC6zrsXJnPdfPPvts9/DDD7tPP/3UTnsBdBsCpVevXt6wLVWrVnUWGLdg+dFHH+3V0ahRIzdu3DingIPXs90C8DZEzJQpU4qt0ytY/1iw3/KOHTvWC55bmbbfqlUr734ssG69zO2eCi9NmjRxc+fO9QL1hY+XYbup7v8FGf6oYWluKMP1XIIAAgggEHyBhgo8e8Fyq1p/4+60YLQC1k8qmP6g9mvZYe0PVMD6OgW6r9b5nvq/PlHrDtq/Sute6kWeatcr6H2+Vqk69pmC4Hdpe7que1HbuSqrl9LrOvaAkrfo3IfaGK21BdLXKEBvj2jdb+VrfYrVp7V9ETtb51/R9Ufr2DXavk7HSr0QMC81GRcggAACCCCAAAIIIIAAAghEo4B61LmWLVvaB30v2OzrMa4P/F6wetOmTa558+aud+/ermfPnl5PbQuwF12sHMunD/Te2sYIX7JkidMHey+rLyBv11pg3IZQ0Qd/p2CFO+OMM7ze5Nar3HqDn3LKKV7PdAukX3LJJa5jx45eUL9onStXrnQ2lvnw4cO9oLf1Ir/22mvdiSee6PV0t+FcPvroI6+Hu5VjQfPCi51/7LHHvEC79bIvw1IQKL/uuuv6aRx33WbS/pWUoVAuQQABBBAIikCmvqBtXKimGgqOL9ZQXzaeuPX2tr9hv+qpJRtH7GelXO3vseNa1ivl62/lGl1T2zviXLqC47H6O7hbx0fYMeWPUW/1dO3nabe69ofuy1t4VUPXLF66dKmNT+ZNJKL8c7XtjRemc7+qWHtq6SclX/3aLN0SX7rs5EYAAQQQQAABBBBAAAEEEEAg+gS6devmvv76a28oFrt76xV+5JFHehDWE9x6mM+cOdMbl9x6b9uQJhY0t3OFlxNOOMF99913Xm/tu+66y3Xu3Nlt3rzZC0RbQHrjxo3exKEWNLfybagXGzJl1KhR7qGHHvImCb3tttu8c7Y+6qijvED7hAkT3LRp07whXApPRmp1H3vssV7bfv75Z2/4ljZt2nhDrIwZM8brWZ6RkeHOPPNMV6tWLS84//3337tzzz3Xa4eNe2730bp1a68N/fr1c9bjvaSLxk6vpR7lr6kX+4UKlMfceOONiVbfvsU68dlsojt9B1hXmIAFqJYpraqwFlAxAgiErICC0oPVuBfUQ9weP5qv9JL+1rygL1cVo857Seet7Xu/9f19bcds6abrhilfbQXUl2rbvpx9T9eeq+tiFET/TGXNU77bFTC/W+d26HAP7S9UmqJUsOhv61hd92+V0Ud5Pi04sW9Dx3xt8J0quu87ftC1dzcHzcFJBBAIlsC7quhlpUnBqjBI9bRQPeOVDg1SfVRTNgH7g3e20i9lu7zUV/nr58Ie422mdGupW8AFCCCAwP4C7bT7mlLn/Q+zhwACkSzQvn37qc8888yJ3bt3j+TbrLB7U3B9m4aoma4gSQ9t5w8ePDihcLBdvRXzNKnpF2ogM4lW2KtUUHGstloqfaf0F6W9M8NqgwUBBBDwCegJqRQ9sWS9uy0QbT28LbZ8wJ7cekoqXQHxv+vL14GLFy/eO0u1LvAt+8rLsn09+ZSkPDnazC983Je38FpzciTOnz/f8gZkoYd5QFgpFAEEEEAgSAL2Rt6+eY64pXbt2s30LXt33dgmfUu+VI+j1dCj2J8E+0b1QfZ8TcxiX+ixIIAAAggggAACpRJQgCRfY7WP0FAyf3n77bfvVC/5ywYOHBinXua+wLkFT85RYtLPUskGNPNtKt2+QD4xoLVQOAIIhKWAguVecHtf4//wy071GN+lz7JfFhcstzIKl1c4T+HjxUEFMlhu9dk3iCwIIIAAAgiEq4A9nmXPQncP1xsort0aF7WDxl17Tm8sFtl5C5Zr1UaPnR2uCbe8gVC1napv3dvrMe4Ey1N0v3HjxnVVTkedsr/18cp7mO9ay29LnTp1mihPq717XhmNLJ+Vq/IeU7J6bQy6ouXH6ZHt2la+8qb4rmeNAAIIIIAAAggcQGCxxj2/Oisr6zCNu/6aJhjNfuSRR3ZrXHSbrI0ltASeUHPs/eVxodUsWoMAAuEooE5fO9UBa1QJ275E+eqWMG9As9HDPKC8FI4AAgggEGAB65V0o5L1gH5PaaHSH37LrTyhuniTmuix5SsVML9HvbH+aw1V4Np60V+qFKPxP29X7/OrtT1ej7Z9sHbt2vu1f2XhfeV/ROO63aGe6Z83bNhwvfINVZlf69qHlK+3krNAt45dqM3mCpyPV31J2rbZyGfrOjNsoGN1tf9nlf+l9gvq02N1V6unwDcK5FtQ/+86d7qSLbfvXUXkv2t1V1OVGNczIl9ebgoBBBBAIEgCXuBcdf1dgfM79T7jCm2XaXzZILU3WquZoxtvrWTvAVkQQACBqBMgYB51Lzk3jAACCEScwDjd0edKNgZ7E6VIeHrKJj7ZrXspvIzWt/PPKRh+rCZBaa8TX2j//7TfTgHu45UK9hXo3qYPoF7QW5Oi7FBZ1gvfZi9P02PRlTZs2LBd2xkKdlfWOk75bezmtir31uXLl2eq53hXlWdj081V+TYhy371qWzreT5N9T+hIVusR7rltUfzrLxIXGJ0U22Vnle6S2mYEgsCCCCAAAIIlF2gIHCuIoq+5yl7qVzpLwHrlOI9xeivAikHAQQQCCcBAubh9GrRVgQQQACBAwls0olXDnQy3I4rgP2+2nyngtV3K6jtfQGgtU2sYov1wlqh/XbqGV5T242TkpJ+Uo/yvr59Bcm36vwN6lF+ix59PlrB79UKmv9D6/x9wXIb5qWfrp2tZL2HbFmqXuMnKPg9y+pSqqNjNomLLfvVZ+WrbAu6O5WZZ+t9y2DfRoSuH9V9WS/zGUpmx4IAAggggAAC5RNYXL7LuRoBBBBAAAH/C0RCLzz/q1AiAggggAACFSigoVgsKDtcwejrlXoq2L1E6++sSVq/o/MrtfmSJgW9Rb2971m2bNmvhfdtPFAFtO9U3i0Kpn+mc9cpCP9npZ7a9hZtD1c6QoFxmzh1Rmpq6mPK31z7f1b5c3UsUwH7E3Xs7aL1Kc8WnZ/oFaShWtS7PFp6htmY8i8pnb3v3lkhgAACCCCAAAIIIIAAAggggAACCARIwMZgPjNAZVdksS1U+byKbAB1l0hgvnI1L1FO/2Ti58I/jpQSfIGLVeWI4FdLjUEQsKGJvC+mglAXVSCAQIgItG/ffuqnn36q74JZAiHQv3//LRrqzeZMYQkvgafU3P7h1WRaiwACESCwRPdQNxTugx7mofAq0AYEEEAAAQQQCBeBPDWU90/h8mrRTgQQQAABBBBAAAEEEECglAJ84CslGNkRQAABBBBAAAEEEEAAAQQQQAABBBBAAAEEIlOAgHlkvq7cFQIIIIAAAggggAACCCCAAAIIIIAAAggggEApBQiYlxKM7AgggAACCCCAAAIIIIAAAggggAACCCCAAAKRKUDAPDJfV+4KAQQQQAABBBBAAAEEEEAAAQQQQAABBBBAoJQCBMxLCUZ2BBBAAAEEEEAAAQQQQACBiBHIj5g7CcEbyc/3eDEOwdeGJiGAAAIIHFiAgPmBbTiDAAIIIIAAAggggAACCCAQwQLZ2dkr165dS0A3QK/xqlWrdqvojQEqnmIRQAABBBAIiAAB84CwUigCCCCAAAIIIIAAAggggECoC2zduvXNF198cXOotzMc2zdr1iz3008/5Sto/mk4tp82I4AAAghErwAB8+h97blzBBBAAAEEEEAAAQQQQCCqBdS7/MM1a9aMv+CCCzb/97//jWoLf938rl273Pjx4/MvvfTSndu3b7/WX+VSDgIIIIAAAsESiA9WRdSDAAIIIIAAAggggAACCCCAQKgJLFy48M8ammX2ZZdddvOOHTsahlr7wq09MTExuampqV/J8gF9GfFluLWf9iKAAAIIIEDAnJ8BBBBAAAEEEEAAAQQQQACBqBZYtmzZMAFYYkEAAQQQQACBKBdgSJYo/wHg9hFAAAEEEEAAAQQQQAABBBBAAAEEEEAAAQT2ChAw5ycBAQQQQAABBBBAAAHn8kFAAAEEEEAAAQQQQAABBAiY8zOAAAIIIIAAAggggIBzdYWwEQgEEEAAAQQQQAABBBCIboGAjWFes2bNOomJibXz8/Mrx8bG+q2evLy8PSpv6+7du9euW7dufXS/fNx9KAnUq1evoX4+m8XHx8eUpV2aEKdGcnJy+/T09J1lub4c1+xcuXLlN+W4nksRQAABBMJYQH+/Zqj5CzVJ25ZVq1bdfLBbUd7Bq1evfuhgecL43AVq+9Qwbj9NRwABBBBAAAEEEEAAAT8I+CWQnZGRUSUlJeU0BftOUZD8eM2G3aRSpUo7dXxX5cqVY3Xc6ilTELHIPeZr9vLdmzdvzt+0aZOKTU5KS0tbkpWV9emuXbv+o5m4P1y8ePGuItewi0BABerXr1+9atWqoxRo6NaqVavdqqxMP+vbtm2L0890+4SEhKA+Er506dLfFOj/UgGQPwcUisIRQAABBGqLoKlSXIhQTN/XjrX6G9BPwfDXGzduXFfvqTqqc0JvnftMqaHOPVm3bt362j5ef+u2a+30t+96rTqpY8RIrY9Vnr/r2NNxcXEPqVNDT62n6svYVTrXTSnUl5pq4NlK9toMCPXG0j4EEEAAAQQQQAABBBAIrEC5Aub6YHWuAtbX5OTknHT00UdnnnHGGTU7d+4c36ZNG6cPWkmBbbpz+kDmFixY0O7bb79t+cEHH5z/3XffZbRo0eJ9BexfUm/dyYGun/IRMIEqVap8fu2117a86aabEsNUpOpxxx23XUGQ/upZ+M8wvQeajQACCISygAVkhykdr7RQKVcpFJaT9zXiML2nG6Ht/GXLlq1T4PtBBcJv0f5QvZ97q0GDBqdq/3ClqUq9GjZs2HzPnj29dP4x/e14QOu1ytNSX76eqPdm3+qacxUsH6XjtoR6b3T7kjpT6UslvjgWAgsCCCCAAAIIIIAAAtEuUKaAuT5UXaVA+T1t27at2q9fv/Szzz5bn5dibNzHoC7qies6dOhgKfGqq66yHlFu/PjxvYcPH36ierivVeB8iHo8vRHURlFZVAm0bt16aI8ePZqEcbDcXq/YF154oUPv3r3v0zYB86j6CeZmEUAgSAKvqJ6vlC4KUn2lrWa+3sf9n4LhN7Vr1y4+MzMzUdu1VMhQDTP2lTpG/E3b6XpPNUTvAW9WsDxd+fOUp7rSUG03ULD8MeW5Q9t/1rGt2vY9LeULyusQCwIIIIAAAggggAACCCAQ+gKxpWmiehyd3LJlyzldu3YdMnr06KYKTmecc845+mxUphEoSlN1ifImJSW5iy66KHbKlCkZCpq3Oeyww55Sj/Pp6vV0VIkKIBMCpRDQ4+nHKZDQ/5FHHkkrxWUhmVUBkphmzZrl63flzJBsII1CAAEEwlfgcDW9ntKQUL0FvY/L1RNGc7Te+ttvvx2tdn6k7Z5KR2vYrrXatyeoLODvLQqaz9HGDp3vodRa2x8pHa2A+idaJ+rYp1qzIIAAAggggAACCCCAAAKRLdC8efP/69ix4+ZJkyblqudQ2CzvvPPO7kMOOWR7kyZNHozsV4i7C7aAhh5aOHHiROthFxHLyy+/vEVfigWih3kLvTbzgv36UF+pBebriualvqrsF/BzUXY7rqxYgQtV/aulaMIlymvDnYTVog4HSWrwQTtW6EvWlLC6KRqLAAIIIIAAAiUVeEoZ+5c0M/kQQAABPwksUTlBH8GkuLYf9IOQXaBeRA31oWnGaaedduU333xTVeOU/+E1xVVUUcf69OkTP2PGjLRjjz12gIL+H9oEpRXVFuqNHIF9Q7HU79mzZ2g8XuEH2pNPPrmKJu2lh7kfLCkCAQQQKCRgvbNzCu2Hxea+SdTzDtZYjVOedbDznEMAAQQQQAABBBBAAAEEwlHgoMFvBcsPT05Onjlo0KD2//jHP9JtzPBwXNLT093IkSNrXHPNNUdXr179G5usKhzvgzaHhkAkDcVSWLRx48ZOv++V1WOwfuHjbCOAAAIIIIAAAggggAACCCCAAAIIIBAtAgcMmCso2EXBs8+eeOKJWv379w/7MZrtBf3rX/9a9Z577mmakpLypYKCLaPlReY+/StQrVq1l/7+97+nVq5c2b8Fh0BpmkB3tyZu6xwCTaEJCCCAAAIIIIAAAggggAACCCCAAAIIBF2g2IC59cBWUHnSU089lda7d++4oLcqgBX27ds38d57762hLwM+VNA8I4BVUXQECkTiUCyFX6YjjzyyelxcXIfCx9hGAAEEEEAAAQQQQAABBBBAAAEEEEAgWgSKDZgnJSWNUVC50jnnnFPs+XDHueKKKxKuv/76mrrPd8L9Xmh/8AQidSiWwoL6QiBOX5YdXvgY2wgggAACCCCAAAIIIIAAAggggAACCESLwP8ExDXB5/Dzzjuvcb9+/VIiGeHWW2+t0r179w5NmzZ9PJLvk3vzn0AkD8XiU2rWrJlttvLts0YAAQQQQAABBBBAAAEEEEAAAQQQQCCaBPYLmNevX/8CTfTZ+7HHHkuPBoRhw4ZVr1KlynW675Oj4X65x7ILRPpQLD6ZRo0aud27dzf07bNGAAEEEEAAAQQQQAABBBBAAAEEEEAgmgT2C5hrKIb/U7C8WrQAaBxzp8kbK9t9R8s9c5+lF4iGoVh8KqmpqS4mJia2Zs2alXzHWCOAAAIIIIAAAggggAACCCCAAAIIIBAtAgUBc/Wyvve0005L6Nq1a7Tcu3efp59+eszhhx9eQ/d/fVTdODdbYoFoGIqlMEb16tV3JiQk1C98jG0EEEAAAQQQQAABBBBAAAEEEEAAAQSiQcALmDdp0iQ5Pj7+zr/+9a81o+Gmi97jPffcU0e9zO8tepx9BKJlKJbCr3Tt2rXztNQpfKyc2/bUytZylsHlCCCAAAIIIIAAAggggAACCCCAAAIIBFzAC5jn5+cPOOecc3IbNozOoYvbt2/vunTpkqqhNy4PuDgVhI1ANA3FUvhFqVOnTkJcXFytwsfKuX26rv+6nGVwOQIIIIAAAggggAACCCCAAAIIIIAAAgEX8ALmSUlJ/f/0pz9VCXhtIVzB1Vdfna4JQAeEcBNpWpAFom0oFh+vepin6Eu0utpPK2dqoutvUbLfq2FKLAgggAACCCCAAAIIIIAAAggggAACCIS0QLx60XZWYLBKp06dQrqhgW7cySefbFW0lUfjNWvWLAt0fZQf2gIaiuXxHj161O/Zs2dMaLfU/63LyMiI1+/A31Ty/eUsfZOu/0LpJKUl5SyLyxFAAAEEEEAAAQQQQAABBBBAAAEEEAi4QGxMTMxZvXr1Sgx4TWFQwSmnnJIdGxt7Zhg0lSYGUGDfUCwDHnnkEethHXVLenq6fZH2nG68ejlTS11/ldJPSiwIIIAAAggggAACCCCAAAIIIIAAAgiEvEBs5cqVeylQbJPyRf1y5pln1kpNTSVgHuU/CdE6FIvvZa9UqVJMYmJium+fNQIIIIAAAggggAACCCCAAAIIIIAAAtEiEJudnd3+iCOOiJb7Peh9auJPG37j6INm4mREC0TzUCy+F1ZfGjlN+hnVcxr4LFgjgAACCCCAAAIIIIAAAggggAACCESXQKwm+NuqYUii664PcLc1a9Z0skisV69ejQNk4XAEC0T7UCy+lzY5Odl+D6JyOBqfAWsEEEAAAQQQQAABBBBAAAEEEEAAgegUiG3cuHFOdN568XetoOl2BQubFX+Wo+EooOFFJuk17f9HbY/2oVh8PvJymtsgxbfPGgEEEEAAAQQQQAABBBBAAAEEEEAAgWgRiG3QoIFfupfPmzfPvfPOO27s2LFu9erVf+j31Vdf7Zen6P5+J/9gZ9myZW7dunV/kKtkpxUwz9NSt2S5QyeXXscj69ev38BapKcGmuqLkIPeg3rRd1OP+jqhcweBa0lubm6PJk2aPKWA+BINNdKvuJr8PRTLtm3bvN8H+534/vvvi6tyv2NbtmxxP/108Lkxf/jhB2fl+pbifmc2bdrkO13mdUJCgg3JklTmArgQAQQQQAABBBBAAAEEEEAAAQQQQACBMBWIrVGjRqo/2v7BBx84jYfuUlJS3IABA9yKFSu8YtevX+8dtx077wvovfLKKy4rK8vt3r3by2f7FgzMz8/39m29fft2b9v+2bx5c0GwMCcnx23dutU7Z+vp06e7H3/8sSBveTbkkajetWE3CaqCwv1k9rzdu3pTd5NR+86dOycoMN6pWbNmVRVQz9C9VbbzOtZIeXcpMLrH9nWuhQ1Do6BytcLXtGvXLlFfILyqQHwry6ftxspb37bDadHEtuvHjRuXPHLkyKbHHXfc00UD5/bFgX4O//LII4/4bRiSjRs3uilTpjiZu+eff97NnTvXI9u5c6fTFzIFfL4AuP2+fPzxx06vo7Of7z179jj73Sm8jB8/3q1Zs6bgkP0+2fLbb79516xdu9Y99thjBb9DBRlLuaFgufUwTyjlZWRHAAEEEEAAAQQQQAABBBBAAAEEEEAg7AXi09LSKvnrLg4//HCnIKsX9Js8ebJbsGCBBVndF1984V577TUvkK6grGvfvr0XDHzmmWfctGnTnAUCZ82a5Z566imvd/qTTz7p5VUvaadgr9u1a5dbuXKl1wNXQU131113uTp16riOHTt6gfI5c+a4wYMH++U2kpKS0hTUP1WF+S146peGHbgQL0iuAKd90zBDge8/KxjuDbOjAOpxOtZUgdXHdf4+DbVxpvYf0PYLWn+h9JFen2ssSKtjRylQO1HX/Oq7RsHda3T8EAV426nctto+Q2WnKGg+TK/HN8pny4C9q9D9V232XssTTjjBKVX9/PPPq+pn7Gn97A3TuWv1mmd37949W4H1ZH/ehX0hZMFsWxSkdxMmTHBffvmls97kDzzwgHv88cddenq62bvzzz/f+zn/y1/+4q699lo3bNgw16pVK++LoSFDhhTbrDfffNNt2LDBfffdd2758uXuoosu8n7nMjMzXUZGRrHXlOSgvnCxL13iS5KXPAgggAACCCCAAAIIIIAAAggggAACCESSQLyCdTH+viEF4b0er6eccorX+9t61VpvWJtM0IKIFjC33rR33nmnF+i23rgWaL///vvd1Vdf7SZOnOjOPvts16dPH3fllVe6gQMHOus9a4sFzhXY9HrtXn755V4gfsSIEeXuVeszsN6/6t1bU/vNfcfCZS3j59XD/029pP/RfWxQu1O13VxB4XS5L5D/PQp8n6xzU3TcG6NagdHOq1at6qPjvZS/VuFrFEDfpGuWaYidcTo/Qud2qSzrld5GyRcwDwen/YK/DRs2dE2bNk1U8Fqd7BPa6PVerC8T/P57oEC8FxCvXr26s+FUxowZ4+xJihkzZng/t1WrVvUC5zfccIOz3xE7d+GFF3pfBNkXQosXL/aC4LI+4KLXxRv6pWvXru6II47wguflCZb7KtLPh989fGWzRgABBBBAAAEEEEAAAQQQQAABBBBAIFQF4hWo26HG+aWXuQWzFVB1w4cPd3fffbe7/fbb3euvv+769u3r9ZQ95phjvKDec88952xiQVts+Ae7xoakWLp0qXfMeqq/+uqrztZ2znqi21ATzz77rDeEiwXebbFApI2dbj3ZrSe6PxYFT7Nq1ao1WkHkV/xRXjDLUPBXncVzb1cQ/BPVa0O03K3g+Dnat57ltnyhOOgjWtv+1XZAebYr6Npa60N1bn0x1yRrTPQ0HV+k7OtU1ji7rtBya6HtkNzUfV2khlVasmSJ/SxljR492n7unpbVE0qZcmuu4LlfxvIvDFClShXv59IC9Dauv4L03tAs3377rdd7/P333/eO62fN+zLJepbbz7KNZW4/29ddd52zYPrJJ59cUKzltd8d67Fuiw1xZE9XjBo1ytmTFjZEkQ3nEh+/33cEBdeXZMO+NJKLN1xPSfKTBwEEEEAAAQQQQAABBBBAAAEEEEAAgUgRiOvUqdPNp556armHH7EOqTa5oW9oiMMOO8xpbGivt7iGu/AChBbc+/rrr71AoPWCtSEn7LomGqalUqVKXi/cP/3pT95xA/7000/doEGDvB637777rrMyGzVq5A3zYtceddRRTmNTe8fbtm1bEEQsz4ujYOpmBVbHa/x0/wyKXp7GlOJaC84q8P3zokWL1mp7mQLC83X5TwpwX6hg9wR9CTBnx44dC+W9VcHb6dZLX4Hi5epF/rGOXapUV2ml0keFr9FwOGtsX0O3PC6To1XmaQqoztX2llI0r0KzKvg7RGPc5yuwnKOA9NPqid9HY5Z/oEZ5g4AryJypscbbaPiU1hqypeyR5kJ3KUdnAXoLftvvwWWXXeZ9WfTRRx95vc6tJ7kF0O3n95prrvGGGLLfgXPPPdfmo3zPAABAAElEQVQLmrdo0cI7169fPxtjvqDk2bNne8MQ6bXzfm/sS6j33nvPu/68887zvnSy3xF7fcu62BdfGiZpqZ78sKcKWKJH4Abd6htKmUG6ZRs36GIlb1ipINVJNQj4Q6CdCrG5PcaXsLCOytdQ6f0S5icbAggggAACCCBQ0QKnqQGblL6t6IZQPwIIRJXATbrb4Uq/T2pZUbd/ySWXrFRAlWWfQI8ePVYp8HxMRb0ewa5XgfArdL8PKk1VT/Kmwa4/GPWpR/YPGh7lWdWVfqD6dP+p+hJmvcY1j/rfBfW2z2/durU9pcASXQL2JVswh1hqofrmRRcxdxshAhfqPl4txb30Vd4XS5GfrAgggAACCCCAQEULPKUG9K/oRlA/AghEncAS3XHdULjr2GXLliWEQkNCpQ1r1qxJVe9dm/gyKhbd7yj1GB+mXuc91q1bF5H3rV70x6qn/EC9oAfsOav736le89fecccdW6PihT/ITdoku/qZyDpIFvti5fdu7wfJyCkEEEAAAQQQQAABBBBAAAEEEEAAAQTCSSBWYyLvHQw5nFodoLZu2bLFJieN05cIawJURSgWm68JVW2C0LxQbJyf2lSiILiC5uMzMzMnPPTQQ95QLX6qO+yK2Rcwt7kNii7NNNTLixqiZ6FOlH3Ml6Klso8AAggggAACCCCAAAIIIIAAAggggECICMSmpKQssskCWZyz8aE1WeIsLKJXQF+aXK+JardNnz49ahE0EbBNHLqtEIAXKNdkuwuuv/76P2nonhyd2ztrb6FMbCKAAAIIIIAAAggggAACCCCAAAIIIBDuArEahuJ9Ta5ZODgW7vdU5vZPmTJlozxsMkiWKBVgaBbnNDlsviZK3awfgabWo9wXKNcEpkn33XdfoiaVtYA5CwIIIIAAAggggAACCCCAAAIIIIAAAhEnEK/A2KTx48f3vfnmm6N+iIUPP/wwRmM3fxhxrzI3VCoBG5qlatWqNjTLBYMHD04u1cURkFnj2udu3LixS1xc3M/dunVzL7zwQnxGRkbBnen/jCraeV1pZ8FBNiJBwMamH6v0/+zdB3hUVd7H8TPpgSSEnkDooYsL6iq2Bduiq6Ku2BVdXVHsrrqKiAUrdlYFxXdRWdS1IhYU0VURFUVs9B5II0gSkpCezLy/MzIxIEhCJlO/93mOt517yudGCP85c06ljzoTq3p6Kn3jo/qoBgFvCdg/EO10dg392W2nvAlKQ5TYEEAgsARcao5dt2Wx0rNKK5XYEEAAAQQQQAABBMJcIErBsfkJCQmuNWvWmN69e4ctx9dff200d7M4cleELQIdrxPYMTXL8ccee2zcYYcdVnc9HA40j3+NAuSzFDT/bMGCBdfcdNNN0fpALWHQoEHu7msOczu/+Z1Kdi5zttARmKWujFPK9FGXuqieyUqX+Kg+qkHAWwIjVNCflMY3sMCRyjdYaWID85MNAQR8J+BQVfYDreFKXysdr/SVEhsCCCCAAAIIIIBAuAv06NFjoqZaKHWF8TZ27NiiTp06XRHuPwv0/1cB/TycqmB5Ubj9b6F5ygvU97N3SETHxMTcrA/VCs444ww7t7urb9++Bbr3h1+lOAoRgWXqRy8f9iVddS31YX1UhYC3BM5UQS80orALlfeZRuQnKwII+EdgtKp9xz9VUysCCCAQcAKPqkVjA65VNAgBBEJdYL06mBoInYywjdCcxU/NmDEjqri4OBDa5PM2ZGRkmA8++MBoKo5pPq+cCgNWwE7NUlhYaKdmqQjYRjZDw/Qti2qHw7FlR9HVVVVVkzS3f8fZs2ffM2LEiMJ169YlNUO1FIkAAggggAACCPhT4BVVfrSSHXXOhgACCCCAAAIIIBDGAu6A+ZYtW/Jk8NTDDz9cGI4WDz744M8KCj6gvteEY//p854FdkzNUvLll1/uOVOI3cnLy3NonvLNu3SrLnBeU1Nzs+7x/8ouQJwigAACCCCAQFALVKr1RUp2jQI2BBBAAAEEEEAAgTAWcAfMbf8VILtHo8xjVq9eHVYcdu7yDz/8sCo7O/v+sOo4nW2QgEaZl2l09RjN4x02X7/Iz8+P05azB6BqXX9EyU7fwYYAAggggAACCCCAAAIIIIAAAggggEBICdQFzLOysgo0cvSmW265ZVtI9XAvnbn55psLtcjhP/aSjdthLBBOU7PomxZGKVLTFIXVnwNh/ONN1xFAAAEEEEAAAQQQQAABBBBAAAEE6gnUBcztNY2ynrp8+fKFjz766PZ6eUL2cPz48UWar/k99fvVkO0kHfOKQLhMzbJp0yaj0eXZXkGjEAQQQAABBBBAAAEEEEAAAQQQQAABBIJMYKeAuW27AoOjn3zyyeI5c+aE9BzFL774YsWrr76arSloLgqyd0Zz/SBgp2YpKSm5LNSnZtmwYYPVXeMHYqpEAAEEEEAAAQQQQAABBBBAAAEEEEDA7wK/CZhv3rz558rKyjPGjh3rtPN7h+KmOctdt912W5Xmpj5D/asNxT7SJ+8L6NsIswoLC2dPnDixwvulB0aJ+gDJWVZW9n1gtIZWIIAAAggggAACCCCAAAIIIIAAAggg4FuB3wTMbfUaTful5jMfdc4551QsXLjQty1q5tpssHzMmDHV+lDgZH04sLyZq6P4EBMI9alZFi1aVOB0On8MsddGdxBAAAEEEEAAAQQQQAABBBBAAAEEEGiQwG4D5vZJBc3f0eJ/Z5x11lmV7777bnWDSgvwTHYalssuu6xE/TpOo4XnB3hzaV4ACoT61Czff/+9iYyMXByA9DQJAQQQQAABBBBAAAEEEEAAAQQQQACBZhfYY8Dc1qzFMN+tra0dft11122eNGlSUC8EqilYiu688871FRUVhxIsb/afq5CuIFSnZsnLyzOap92phT/Xh/QLpHMIIIAAAggggAACCCCAAAIIIIAAAgjsQeB3A+b2GQXNF1ZXV//hueee++Skk04qXLJkyR6KCszLdh724cOHF7722mvvrF27dn+mYQnM9xRsrQrFqVk+/fTTMv2//mGwvQvaiwACCCCAAAIIIIAAAggggAACCCCAgLcE9howtxVpxGnhqlWrRmq6hhtPOeWUwptuuinfjkYN5C0jI8NcccUVP5933nnZCpRfrsUML1B7WeAzkF9aELUtFKdm0YdKhS6X650geg00FQEEEEAAAQQQQAABBBBAAAEEEEAAAa8KNChg7qlRQcLpGoHa+ZVXXnn64IMPrrzhhhu2//DDD57bAbG3I8oVKC8++uijS95+++3H1q1bl6ZR8q8GRONoREgJhNLULJmZmea7775L4v+VkPoRpTMIIIAAAggggAACCCCAAAIIIIAAAo0UiGpkfpOVlVWuZ25r167dJI1Iveydd965LCkpqZWma4k85phj2hxwwAGmZcuWjS12n/Nragwb6DNz587d+v777zsqKytzNQ/zVAX3p6nQmn0umAcRaICAnZpl5syZfx4wYEDsqFGjHA14JCCzXH/99T9qMdzXArJxNAoBBBBAAAEEEEAAAQQQQAABBBBAAAEfCXglwNe5c+fBmsrh+MTExBMVdBuigHlVampquZJp06ZNnN0cjqZX5XQ6XVq0s2Lr1q2VdkoYBcVbKEAeGRUVtWj79u3vaYHSD5ij3Ec/OVRTJ5CWlrZ/QkLCK927d+8wePDgWP2sN/2Hva705j9YunTpusWLF2fr/6cTmr82aghggWVq20ildT5qY7rqeUtpPx/VRzUIeEvgTBV0otKFDSzQ5jtM6bIG5icbAgj4TyBHVQ9UKvRfE6gZAQQQCAiBR9WKNUpTA6I1NAIBBMJFYL06erhSrr873OgR5rtrsKZxsPOy2PSAva8Aelp+fn4PBeI6REREJCqY7pV6bNmKRdYocF6kfV50dPSGjRs3+h3RtostfAX0rYuf1Pv++tBm+E8//dRLx0EVMFd7yxQsfyl83yA9RwABBBBAAAEEEEAAAQQQQAABBBBA4BcBrwWy64MqgJ6lc5vYEAgbAQXOP1VnbWJDAAEEEEAAAQQQQAABBBBAAAEEEEAAgSAUaNSin0HYP5qMAAIIIIAAAggggAACCCCAAAIIIIAAAggggECDBAiYN4iJTAgggAACCCCAAAIIIIAAAggggAACCCCAAAKhLkDAPNTfMP1DAAEEEEAAAQQQQAABBBBAAAEEEEAAAQQQaJAAAfMGMZEJAQQQQAABBBBAAAEEEEAAAQQQQAABBBBAINQFCJiH+humfwgggAACCCCAAAIIIIAAAggggAACCCCAAAINEiBg3iAmMiGAAAIIIIAAAggggAACCCCAAAIIIIAAAgiEugAB81B/w/QPAQQQQAABBBBAAAEEEEAAAQQQQAABBBBAoEECBMwbxEQmBBBAAAEEEEAAAQQQQAABBBBAAAEEEEAAgVAXIGAe6m+Y/iGAAAIIIIAAAggggAACCCCAAAIIIIAAAgg0SICAeYOYyIQAAggg4GWBtSpvPy+XSXEIIIAAAggggAACCCCAAAIIIIBAkwQImDeJj4cRQAABBHYn0KlTp3bdu3eP89zr2LFjS50ne87ZI4AAAggggAACCCCAAAIIIIAAAoEoQMA8EN8KbUIAAQSCRyCqc+fO37Rv3z6hfpNdLteY6urqfp5rERERR1RVVZ3uOd/bXmUeeuCBB0bvLR/3EUAAAQQQQAABBBBAAAEEEEAAAW8KRHmzMMpCAAEEEAhagYH70nKNJP+LguProqOjz9Tz01NTU49XcPxcXeus8zlpaWn7O53OqxwORxtde99ThwLit+m8m84LcnJybtYI9P0iIyOv0/nPyvuw7j2h6/PbtWt3h8q+ecfzk1R2uu6NVMrLzc29z1MeewQQQAABBBBAAAEEEEAAAQQQQMAbAoww94YiZSCAAALhK3C+un6XAtju0eMKbI9NSUm5RNd+tiQKlt8SFxd3k+5/Y88924781+q83AbVFSx/ICYm5kY9v1jP/FXXl2g/ITY29gQdt9D1TxUsH6djG5j/RMHySdqzIYAAAggggAACCCCAAAIIIIAAAl4VIGDuVU4KQwABBAJXQKO4e2hE+Ksa3T1D++Oa2tJu3bqlqoyOCn6fr4B2vMofpPPKxYsXV2ufuaP8+PXr1xfpeNOOc/dOz6zVCPIynWxVYDzJXszIyNimXbYC4x3sua47tGut8wgdV6uO5+Lj46/RvqNGsv/X5mFDAAEEEEAAAQQQQAABBBBAAAEEvCnAlCze1KQsBBBAIIAFNIr7aAWb38vOzn7BNrNLly69amtrr9O1WgWwX9M+Vvf+p4D6eN1+Wtfu0r5C6fYdwW0d/rppjvILlec2jfb+3I4S150LVcYaBeOn69iev6j0ts6f176T0itK7k35XJ7jHftZCoK/oPLaKj5+nQLkJ2kqlid0/oDun6r8DrX107Kysj/qvKvy2HaxIYAAAggggAACCCCAAAIIIIAAAggggAACCCDQeIE2bdokKXj9nE0aDW5HcUfpuKsC5M8oHaPjl+2oce3/rTRJAewx2t+u/aWNqW3XxTp3Pd9TWQMHDozRPTuq3L117949znOsgHz8jmOH2t7Sc509An4QsNMCuT90amDdFyrfMw3MSzYEEPCvQI6qb+3fJlA7AgggEBACj6oVYwOiJTQCAQTCSWC9Omu/ye73jRHmfn8FNAABBBDwjUBBQUGxavqbguBHaLT5jdrbabk2axR3lAZwO3VcUVVVdaXOZ2gE93m6FqvjJTpe1pgW7piSpe6RXc933EjX/i2l/TwZly1bVuU5tntN0VI3ijwrK6t8xz1XXl5eaf18HCOAAAIIIIAAAggggAACCCCAAALeEmAOc29JUg4CCCAQ4AIaRX6mguRTFAi/Tk2dp1Sj494KivfU3k6R8qL2p2/evHm+9nZalRO1H677jOgWBhsCCCCAAAIIIIAAAggggAACCCCAAAIIIIBACAnsmM6kbtqTelOd7K6XjvT09Njd3fDCNTvCfKkXyqEIBHwtwJQsvhanPgR8J8CULL6zpiYEEAhsAaZkCez3Q+sQCFUBpmQJ1TdLvxBAAIFAFth1OpN6U53srtmutWvXVu7uBtcQQAABBBBAAAEEEEAAAQQQQACBUBRgSpZQfKv0CQEEEGi8gJ2nvFfjH+MJBBBAAAEEEEAAAQQQQAABBBBAIHQECJiHzrukJwgggAACCCCAAAIIIIAAAggggAACCCCAAAJNECBg3gQ8HkUAAQQQQAABBBBAAAEEEEAAAQQQQAABBBAIHQEC5qHzLukJAggggAACCCCAAAIIIIAAAggggAACCCCAQBMECJg3AY9HEUAAAQQQQAABBBBAAAEEEEAAAQQQQAABBEJHgIB56LxLeoIAAggggAACCCCAAAIIIIAAAggggAACCCDQBAEC5k3A41EEEEAAAQQQQAABBBBAAAEEEEAAAQQQQACB0BEgYB4675KeIIAAAggggAACCCCAAAIIIIAAAggggAACCDRBgIB5E/B4FAEEEEAAAQQQQAABBBBAAAEEEEAAAQQQQCB0BAiYh867pCcIIIAAAggggAACCCCAAAIIIIAAAggggAACTRAgYN4EPB5FAAEEEEAAAQQQQAABBBBAAAEEEEAAAQQQCB0BAuah8y7pCQIIIIAAAggggAACCCCAAAIIIIAAAggggEATBKKa8CyPIoAAAggggAAC4SBwtTrZQalYaX+l/ko3KXm2WTpY6zlhjwACCCCAAAIIIIAAAgggELwCBMyD993RcgQQQAABBBDwgUC8ttra2vHXXHONU9U5XC6XQ9vgt956K2Ljxo0F1dXVD/mgGVSBAAIIIIAAAggggAACCCDgAwEC5j5ApgoEEEAAAQQQCF6B8vLyJ1u2bDn+zDPPTOrXr5+nI5EffPDBNgXL/+a5sLt9ZGRkjALskU6njbWzIYAAAggggAACCCDQ/AKpqamnRUVFHRAdHR3T/LUFVg01NTUVGuzyTXZ29nuB1TJaE0wCBMyD6W3RVgQQQAABBBDwh0CZful+ePLkybdMnTq1hW3ArFmzTG5urp2G5Z3dNahz586jkpOTJ1RVVaXHxMQ49Yv7XyorKx/MyMh4fHf5uYYAAggggAACCCCAQFMFOnbs2KNNmzbvDBw4sNOxxx6brMEbjqaWGWzP63du5/vvv78tKSlpdWlp6V82bdpUGGx9oL0IIIAAAgggEBgCy9SMXj5sSrrqWurD+qgKgaYKtNAo8+JvvvnGVVxc7Npvv/3sL94n71qoAuUXDBgwYPXIkSO3ffTRRxpc/su2ZMkS1+WXX16Snp5e2LNnz3Hax+76LOcIIOB3gRy1oLXfW0EDEEAAAf8LPKomjPV/M2hBYwX0bcifnn/++WrP76DhvH/00Ucr9Xv5/xprSH6/CqxX7al+bQGVI4AAAgggUE+AgHk9DA4R2J1AXFzchPPOO69U/whxtW3bdlH9PGlpaZf2799/k6Zt2fb555/v8d8mq1evdl1//fXbe/ToUdqrV6+7FTxvVb8cjhFAwK8CBMz9yk/lCCAQQAIEzAPoZTS0KRq4ceIpp5ySv8dfRMPwxuGHH16QkpLyx4Yaks/vAgTM/f4KaAACCCCAQH0BAub1NThGYPcC7lHmGmlerdvu0eVdu3a9ViN5Nl944YXFixYtavA/Q/TVUNe4cePKunXrVtmnT59HOnTo0HH3VXIVAQR8KEDA3IfYVIUAAgEtQMA8oF/P7hvXqVOnWx555BFGl9f7jfzGG28slsvFuxfjagAKBEzAPCIAcWgSAggggAACCCAQiAJlmpP8Bc1HvlUjwwfa6VVOOOGEe1599dWOGnWeeNBBBzW4zV26dDH33XdfvKZ4iTn//POvaNGiRWbfvn2naoGmbg0uhIwIIIAAAggggAACCOwQUJw4Uot8slZhvZ8IeUTqlNhnPRMOGybAD03DnMiFAAIIIIAAAmEuoAWUkvRV1+3aJ2uO8tvee++95Keffjph0KBB+yyjkeVmwoQJcT/88EP0JZdccrEC5ys1tcsLGgnTb58L5UEEEEAAAQQQQAABBBBAAIF9FiBgvs90PIgAAggggAAC4SDQsWPHDpo25eHExMSfzz777GsXLlwY99hjj7XUNa91v1WrVuamm26KWbZsWdzYsWPPTUpKWqxFil5TgH6w1yqhIAQQQAABBBBAAAEEEEAAgb0KEDDfKxEZEEAAAQQQQCAcBTTKu6umSZmixT6ztNjnVV9//XXM/fffH695y5uNIzY21lx99dVRK1asaKHFQU/TaPb5AwcOfFeB86HNVikFI4AAAggggAACCCCAAAII1AkQMK+j4AABBBBAAAEEEDBGwek+mhbleQXKV1988cWX2OlSbr/99liNNPcpz9///vfIn376KfHmm28+QXObz1Xg/OO0tLThPm0ElSGAAAIIIIAAAggggAACYSbAYgBh9sLpLgIIIIAAAgjsXkCB8j9oapRbnU7nSZdffnnMmDFjohQ0331mH1694IILIpSSXn/99aMmT558YHJy8vL8/PyJubm5H/iwGVSFAAIIIIAAAggggAACCISFAAHzsHjNdBIBBBBAAAEE9iSgUduHKFB+W0RExHBNhxJvR3Y7HI49Zffb9VGjRjmUWr3zzjuHPv744y9rupaMgoICGzif5bdGUTECCCCAAAIIIIAAAgggEGICBMxD7IXSHQQQQAABBBBomEBKSsqwtm3bTtAo8j9ec801CaNHjw6KqepOPvlko5T84YcfDv7Xv/41PSMj477CwsKJOTk5Lzes5+RCAAEEEEAAAQQQQAABBBDYkwAB8z3JcB0BBBBAAAEEQlJA84EfbwPlSUlJA6+77rqkM844I/CGkzdA/s9//rNRSv7ss8+Sn3jiianLly+/b/v27XdnZmZOb8DjZEEAAQQQQAABBBBAAAEEENiNAAHz3aBwCQEEEEAAAQRCT6BTp06ntm7d+nYt3tnj2muvTR45cmRIdHLYsGFGqdXXX3/dSoHzxxYvXnxPaWnpvQqcPxUSHaQTCCCAAAIIIOBrAZcqDMoBBb6Goj4EEAhNAQLmofle6RUCCCCAAAII7BBQoPxsBcrv6NatW4qmXkkeMWJESNoccsghRinphx9+SHrqqafunz9//l3V1dWTNmzY8Kg6XBuSnaZTCCCAAAIIINAcAltUaOfmKJgyEUAAgWAQIGAeDG+JNiKAAAIIIIBAowUUKP+bFvOc0L9//zZazLPV8OHDG11GMD4wePBg8+yzzyauWLHCTJ069Y45c+ZMcLlcD2vU+SN5eXmlwdgn2owAAggggAACPhX4n2qbqXS/0naf1kxlCCCAQAAIEDAPgJdAExBAAAEEEEDAewJdunS5omXLluMPOOCABAXKk4YOHeq9woOoJH1QYLQoaMvrr7/ePP300ze/+uqr4/r06TNZgfOHsrOz84OoKzQVAQQQQAABBHwrsEjVva40X2mG0nolO00LWwALaC2bfgHcPJqGQFAJEDAPqtdFYxFAAAEEEEBgDwIRPXr0+Ed0dPQtRx55ZMyVV16ZOGTIkD1kDa/LcjGTJk1qoXnbbeD82hkzZvxDgfOny8rKJmVlZWWHlwa9RQABBBBAAIEGCoxXvk+VTlA6TIktwAUqKir6B3gTaR4CQSNAwDxoXhUNRQABBBBAAIFdBTTtSou4uLgbIyIibjz++OMdV1xxRYIdWc32WwFZmYkTJ8bZwPm0adMu07Qtl8nqPxqNdL8WCF332ye4ggACCCCAAAJhLjBP/beJLQgE2rVrZz/kuCcImkoTEQh4gYiAbyENRAABBBBAAAEEdhFIS0trk56efn9MTEz+6aeffvPcuXMTn3jiCa8Ey0tKSsxrr73mTt9///0uNf/2tKioyKxcufK3N3Tlyy+/NFu3bt3tvYKCAqMFOY3mFd/t/ea62LZtWzNu3LiYJUuWxFx66aWj9YHDkgEDBryYkpIysLnqpFwEEEAAAQQQQAABBBBAIFgECJgHy5uinQgggAACCCBgND95p759+06OjIzMPfvss69dsGBB3IMPPtiiZ8+eXtOxAW4F4I1G6ZgpU6YYBZbdZWsKE+N0OuvqsYF1u2l0tpk3b56pra01VVVVdferq6vNfffdZ6ZPn153zT5j823evNlOk+LOb8/t5inP1lFTU2NsIN6z5efn71S253pT9prn3Wh+8+jly5fHX3XVVWcpkL5QgfNZqampBzWlXJ5FAAEEEEAAAQQQQAABBIJZgClZgvnt0XYEEEAAAQTCRKBjx449k5OTx1VWVo7W5rrsssti7Ejp5trKy8uNDVLbTfWa2bNnm88//9wdxL7zzjuNgvSmdevWxuFwGI1wN2qX0QKjZsyYMWbw4MHu52wQXUF9895777kD4LNmzXKXUVhY6H5GgWozf/58ow8AzEsvveQOmOfm5hrNv27uvvtu069fP2OD2r169TKLFy82mzZtMlOnTnW3x12Bl/4TFRVlxo4dG6mU8Nxzz43UQqHHtGnT5iu18+6cnJwFXqqGYhBAAAEEEEAAAQQQQACBoBBghHlQvCYaiQACCCCAQPgKaPT4uMTExKUKRl9opxG59dZbY5szWG6lY2Nj3QFxW89PP/1kXn/9dfeIcAXrjRbNNK1atTI2cL5lyxZjR54///zzRlOa1AXLbRkvv/yy+fHHH822bdvcI9Zt4PyRRx6xC2+aQw891J3XBsRdLpexU7/cdddd5g9/+INZsWKFOeigg8w999zjnrLFzj2+fv169zVNn2KLbrbtb3/7W4Takjh+/PjjNJr/XQXtX2y2yigYAQQQQAABBBBAAAEEEAhAAQLmAfhSaBICCCCAAAII/CLQuXPnM5Vu1lzg8f/4xz+iExISfEKTlJRk7DQvChobjbI2PXr0cE/N8u2335o+ffq4p2Gx17Ozs40NYtuR5fbcM5e5nXLFBsNtUF2La7pHkGvOdbN06VLz73//2z1veXFxsXuKFztK3ea1U7vY4Lwd0e7pp71n5zq//fbb3cH5RYsW+aT/55xzjmPhwoWthg8ffnLv3r0f80mlVIIAAggggAACCCDgNwH7bUa7jo8dKJKRkeHVdjS2bH+s8+PVDlNY0AsQMA/6V0gHEEAAAQQQCF0BBY/H33vvva3at2/vs07aqVa6du1q7BQq9viiiy4yN9xwg/nmm29Mhw4dzF//+ldz3XXXmZkzZ5qJEye6R5YPHTrUPULcjgS3m53OxU6tYgPhWqDUnHzyyXbaE2MD7t27dzeDBg1yB97t6PFu3bqZCRMmmDfeeMOceeaZ5oADDjAHH3ywuxz73OGHH24++eQTo8C1e2S6+4aP/qOpZxI1L/sVCvbH+qhKqkEAAQSaLKA/w1trPYbz9WfsWUpdm1wgBSCAAAJhIPDdd9+Z1atXu3//tb/r2ikK7VZ/nR17rbS01D0doee6Z2/X4LFr89h9/WNbxt7Ktnnsty63b99uD81XX31lVq1aVVeW+yL/QcCHAlE+rIuqEEAAAQQQQACBRgnol+Z+Rx55ZKOeaWpmO8Jbo9l3KsZOwWJHkXs2O3WKTZ7NBtLt9pe//MW9HzhwoHvv+Y+dy9xul156qeeSO6Bed6ID+w8Tz+Yp76STTnJfuuaaazy3fLrXVDhGwfISTRNjO/RdvcqH6Hh8vXMOEQgFgS/ViWdDoSNh3odRCth00zd0hivNUgDmeXn82ZroA8z+WpB5fV5eXqk+iE3R9FuJul+g/BFaTLqzptZaprUkUrT4cqS+KZShoHs3nW/UOho99EyG7rfTug/bs7Kyfoki2ULZEEAAgRASsMHvrVu3Gvtty+joaHPttdfWrdtz6qmnun9fveCCC4zWvDGnnXaae3CIfcauw6NvKJqNGze6g942sG4HjdjBIcOGDXML7Vr2ww8/XLeGjz3WIvTugST2W552ekT7jU37u/MDDzxg9OdwCCnTlWAQIGAeDG+JNiKAAAIIIBCmAgpMVBYVFcXYgDWbfwT0oYX9RmLpLrVn6/y5Xa5xigACCASSQIKC4fbTzCKlWgVtXlYg/DsFxv+kEegXaPTjOzqfo79nXtH9d5SeUnCmt/anREREFChYvkgB9zN0fpqe+Vznp+p8rMr8p64RMBcCGwIIhJ6A/Xak/YalXRT+s88+q1u3x35z0gbB7bcfL774YvfC9XbKwPPPP9+8+OKL5qmnnnIHue1Icjtdoc1rpy60gXDPVr9s+61Mu4aP59lnnnnGjBw50owaNcrYNYOOP/54c/fdd7vX9CFY7hFk70sBAua+1KYuBBBAAAEEEGiUgH5Zn/PSSy+drulMAvZ3Fjt1y7HHHmvsaGw7EmbNmjXG16PiG4XaiMxffPGF0QcWJZqffdUuj23R+Xu7XOMUgYAT0BoIJyrAmaqGzdXPcWbANZAGNadAuQLimxX8jlKwPE0Vxehn4EH9TBRrlPkhCn7n6vwOO32LfkY+1/Gjyve8Rpv/Q6PJ85XPBtKXav933X9J+UcqtVIAKL85G03ZCCCAgD8F2rVrZ3r16uX+vdaO8rZr7OjPx7p1ezwL0Nu9/kzcaR2eE044wR1o99yz07PYwLtnq192YWHhTs/aaQk//vhj99SE+jPX/chDDz1kpk+fbo4++mh3ezzlsEfAFwK//uT6ojbqQAABBBBAAAEEGiGghTFvfuSRR/6sESlJGm0S2YhHfZZ1/Pjx7nkc7bQr//nPf8yPP/7oDph75m60/9jQPOBGIxRNWVmZ+xf+yspK9ygcz95njW1ERXbedI0mKtU78M98MI1oK1kR2J2AAp12dPAQ/cP7A/2jvoVGqHXQP9a3LVu2rEYL+qYoCJCjAGlXBVRbaYqNJcrfVgHW7vpa+Y+6HqPrvXR9ucqo1dfK03UvUkGDVVp3IFX/f3dU4PQn3XPurm6uBYTAFgVq1ui9xSpoE6U/gxPsz4B+Hg5W6z5TqvC0Uj8flfZY+3XKd6imXtmm5zbp+EPtZ+p9H6iyXtazCzzPsEcAAQRCTaBfv37Gjvx+5513zIgRI8wRRxzh/r3Vs26PHeldf50d2//66/DYqVTsdC32d1792bkTz65lH3LIIe7pWjxr+BxzzDHu/G+++aaZNGmSez0gOy3Mbbfd5h6MYtf4YUPAlwIOX1ZGXQgggAACASuwTC0bqbTORy1MVz1vKe3no/qoJogFFLjqq3nFn4yPjz9Yc3knKHAeUIuW26+i2l/op0yZYm688UZTUFBgbrnlFvPEE0+4g+L2q6V2FHqLFi2MAnXur5Y+/vjj7vyXXXaZsV9BDaRt7ty5dl7KIs1BmaPFS2/QqPn3A6l9tAWBhgpoCo0jFQC9QemfCm6v1p8lE/UP+P/qA6wsjX57VOW8q3Sykp2f/2OlB5Q+UpqtwOjT2s/Tsz20X6LUS9c2a/+Frt2o9JkC6rNt0F3X2AJMwM5Prrl3L9N7qlGwfIH+HPtMgZ79FPQ+V+9xoT74eFsfkIzSz8XrWog5TiPOj9XxuzuOr1SeaF17UutJVGkU5N+Vf4p+fk5Weavsz1KAdZfmIIAAAm4B/b03fty4cfdcffXViOwQuPXWW8teeOGFa/Xn+P+BEhQC69XKw5Vy/d1aRpj7+w1QPwIIIIAAAgj8roAd0al0nEZ4Hvzggw/epq9nHqV/CMRrEaBIBS9+91lf3IyJiTEJCQnm008/NYMHDzb/+9//3CNz7KhyGyS3AWi7XXLJJearr74yGRkZRsEY9zXP3n3i5/+8/fbbZvLkydvswnYKEN0lc/uhFhsCQSugkeKfK8j5s/4/u1P72Z6O6AOuCPv/p7aRCqDesGnTpkLdv1LnT+rn/iMFUofquLWSncYjVUH2ZxQcP1F/3mQq/zqNNq619zSCrkB7tgAU+Pnnn+2HG3fVb5r+bFuq81s912yw3B7rz2Q70tx+eOI5fsQe203l2N0U+x/9bNh5ztkQQAABfwr0V+UHKs30ZyOoG4FwEAioEVrhAE4fEUAAAQQQQGDfBDQ1wjcaoT1y27Zthyuw+0b//v3LNBK6xi4q5O/NztmoESzmxBNPdDfFfiX10EMPNeecc447iG4v2jnOFXRzz/e4detWo2CeUaDO3003r732muvwww8v0tQyX61YseIcGQ8hWO7310IDvCCgaTW6a3RxgQLdL6q4gUrFCnIPVLB82I7iMxT8HqYP4zorT4auHaHAeTtdy1OQvVDPPqhrN2ik8jbtz1MaoeB5O31IZkcg12hKpeG6xhb8ApPVhbHB3w16gAACYSCgz22jnmvTps1q/X12fhj0ly4i4DcBAuZ+o6diBBBAAAEEENgXAQXOf1q+fPlZ27dvH6LpTGbut99+lRp5XqVA+r4U1+RnTj31VPec5VdddZVp3bq1secnn3yyO0C+YMECM3z4cHPccccZuwDSgAED3AspXXTRReb99983/vzKrOZbd/7xj38svuuuuz7RfJWnLl269DAF8T9oMggFIBA4Au0VULhRzemr4PckBbr/T4FuGzhvrwD5W/oGyCTt7VQrF2u08Xs63qB7NkBepP0kPfsP3TtIU3N01vlE3X9TAfMKBdxv0XGR1if4VNfZgl9gobowIvi7QQ8QQCAMBKL79OlT8n//93+9NQf4kzsC5xeEQb/pIgI+F/D/95h93mUqRAABBBDYjQBzmO8GhUvBIaARoV01evvmioqKSy+++GKn5gWPtYsSse1e4Nlnn63V/OrlCvx9WlRUdI8+gPh69zm5igACCISNgP2w0K7j8rxShtIv82bpgA0BBBAIIIH9NfjijYULFybbNn388cdGUxUWrVy5cot+p7tb6y50ZQ7znd8Wc5jv7BEEZ8xhHgQviSYigAACCCCAQBAIaPoQO6/JlQqS3zVz5sybpk+ffo2mQqm9/PLL47t16xYEPWj+JurDBDNt2rSaqVOnVmlamPf0j6p7NaL2x+avmRoQCCoBu4CnHYFeGFStprHeEPiLCpmg9KRSJ28USBkIIIBAMwhE6xtTSZ5yjznmGKPU6swzz0yaN2/edK1B86W+gem5zR4BBJogwKKfTcDjUQQQQAABBBAIHAEt6LZF6SZ9PfXu119//YZXX331hpEjR5qxY8e21NdXA6ehPmyJAuNG09ZUKbk0fcR/i4uL79cHDKt82ASqQgABBIJBwKlG2kVCd1ooNBgaThsRQCCsBA7QdGEfqcd2YWr7O57z4Ycf3q6pwuYrkH6vRpgfo4Xo/xRWInQWgWYSIGDeTLAUiwACCCCAAAL+ESgoKChWuuPAAw+85+23375hzpw5/zzqqKOir7jiioT999/fP43yca364MCOKK/UaPsIBcqna2HUBzRP+UYfN4PqEEAAAQQQQAABBLwsUD9QrlHl96p4uxaD3Y75Zcd/EUCgqQIEzJsqyPMIIIAAAgggEJACixcvrlbDHrBJU5Jc89lnn9168MEHx2txziQtdhmQbW5qozZt2mQ07Ur5yy+/HKlA+VNlZWUPZmRk5DW1XJ5HAAEEEEAAAQQQ8LtA6apVqxLuu+++OQqU36PWsA6N318JDQhVAQLmofpm6RcCCCCAAAII1AkokPwvnfxL8zpeumjRotsGDRrU6uqrr251xBFH1OUJ5oM1a9aYKVOmlM6ePdtojvLHSkpKHtq4cWNxMPeJtiOAAAIIIIAAAgjsJFCtqVeOVLCcQPlOLJwg4H0BAubeN6VEBBBAAAEEEAhQgaysrGfVtGcVUD5/6dKlt6enp3e45pprWtlFk4JxW7JkiQ2Ub//oo49qnE7ngy1atHhk2bJlVcHYF9qMAAIIIIAAAggg8LsC63XXJjYEEGhmAQLmzQxM8QgggAACCCAQeAIKnM9Uq2ZqEczTr7vuujtSU1O7XHvttcknnnhi4DV2Ny369ttvzZNPPlm8cOHCCs1Pfp9G0E/eTTYuIYAAAggggAACCCCAAAIINFIgopH5yY4AAggggAACCISMgALnb2ik+f7Lly8//+abb/5m2LBhRW+++aYrUDv4xRdfmLPPPrt49OjRmR9//PFNmseyI8HyQH1btAsBBBBAAAEEEEAAAQSCUYCAeTC+NdqMAAIIIIAAAl4VyM7Ofk9TmRyybt260++44475hxxySNFLL70UMIFzBcfNKaecUjRmzJi1CxYsuGrFihVdFeyf5lUECkMAAQQQQAABBBBAAAEEEDAEzPkhQAABBBBAAAEEdggocP6xRpwPVzD6xPvuu2/u4MGDS6ZPn+70F9CcOXPMiBEjtmnamKWLFy/+u0bC91Yb/+Ov9lAvAggggAACCCCAAAIIIBDqAgTMQ/0N0z8EEEAAAQQQaLRATk7OFxpxfsKWLVuOevTRR2cPHDiwVItr1lRXVze6rH15YNasWa7hw4dv0zQxi9SOCxTEH6RA+ev7UhbPIIAAAggggAACCCCAAAIINFyAgHnDrciJAAIIIIAAAmEmkJubu1gB678WFBQc/MQTT7wyYMCAcgXQq7dv394sEi+//LJr6NChRRMmTFiwZs2aMxQoP1iB8nebpTIKRQABBBBAAAEEEEAAAQQQ+I0AAfPfkHABAQQQQAABBBDYWWDz5s3LV65ceX5JScl+zz777PODBg2q1pQtlVu3bt054z6ePffcc84hQ4aU3HvvvR9mZmaepCD9nzTK/aN9LI7HEEAAAQQQQAABBBBAAAEE9lGAgPk+wvEYAggggAACCISfQF5e3noFzsfU1tZ2nzFjxjMHHXRQlUaDl2sUeKMxampqzNSpU2v322+/0ocffvhtlX20AuXHK1C+oNGF8QACCCCAAAIIIIBAuAu4tIW7wU793+EByk4qnDREgIB5Q5TIgwACCCCAAAII1BPQKPCcVatWXavAeep///vfyUceeWT5TTfdVLZ+/fp6uXZ/WFpaah577LFqO73Lk08++Up+fv4hWszzNE3/8u3un+AqAggggAACCCCAAAK/L+BwOEr07cey388VXnflUaUeN89ciuFFSW8RQAABBBAIS4Fl6nUvH/Y8XXUt9WF9VIVAswp06tSpRa9evSakp6cXXXnllds1UtyO8Nlp0y/sLk3jUtG9e/fKvn37PtulSxdf/j/XrP2ncARCRCBH/WgdIn2hGwgggAACYSaQkpIyQAvVF1dVVe30O2i4nmzZssXVrVu3Krm0D7MfhWDurh19lBrMHaDtCCCAAAKhJUDAPLTeJ73xn4BDv5jf0KdPn58vvvji4vfff9/1ySefuDRtS5n9hV3X/5WWltbZf82jZgQQ+B0BAua/g8MtBBBAAIHAF+jdu/djo0aNKtywYUO4xsnd/baDV4477rjCHj16jA/8t0YL6wkETMDcUa9RHCKAAAIIhK+ADZiPVFrnIwI7wvwtpf18VB/VIOBzAQXGx8TFxZ2raVsSVPns6urqp7Kysgp83hAqRACBhgrYgPlApcKGPkA+BBBAAAEEAk1A32a8OSoq6ubExMSIyMjIQGtes7dHv3Ob8vLyCqW7NI3i1GavkAq8KWAD5ocr5Xqz0H0pK2pfHuIZBBBAAAEEEEAAgd8XUHB8mnJUKh2mdPfv5+YuAggggAACCCCAAAJNF8jIyJikUiZpysAuTqcz7CLm+rCgWr+HZzddkhLCWYCAeTi/ffqOAAIIIIAAAggggAACCCCAAAIIIBByAjk5OZkh1yk6hICPBCJ8VA/VIIAAAggggAACCCCAAAIIIIAAAggggAACCCAQ0AIEzAP69dA4BBBAAAEEEEAAAQQQQAABBBBAAAEEEEAAAV8JEDD3lTT1IIAAAggggAACCCCAAAIIIIAAAggggAACCAS0AAHzgH49NA4BBBBAAAEEEEAAAQQQQAABBBBAAAEEEEDAVwIEzH0lTT0IIIAAAggggAACCCCAAAIIIIAAAggggAACAS1AwDygXw+NQwABBBBAAAEEEEAAAQQQQAABBBBAAAEEEPCVAAFzX0lTDwIIIIAAAggggAACCCCAAAIIIIAAAggggEBACxAwD+jXQ+MQQAABBBBAAAEEEEAAAQQQQAABBBBAAAEEfCVAwNxX0tSDAAIIIIAAAggggAACCCCAAAIIIIAAAgggENACBMwD+vXQOAQQQAABBBBAAAEEEEAAAQQQQAABBBBAAAFfCRAw95U09SCAAAIIIIAAAggggAACCCCAAAIIIIAAAggEtAAB84B+PTQOAQQQQAABBBBAAAEEEEAAAQQQQAABBBBAwFcCBMx9JU09CCCAAAIIIIAAAggggAACCCCAAAIIIIAAAgEtQMA8oF8PjUMAAQQQQAABBBBAAAEEEEAAAQQQQAABBBDwlUCUryqiHgQQQAABBBBAIAwFXlCfbWJDAAEEEEAAAQQQQAABBBAIAgEC5kHwkmgiAggggAACCAS+QFpaWnptbe1Q21KXy7Vg8+bNGfZY1/fXeTun09kqNzd3ti457XU2BBBAAAEEEEAAAQQQQACBwBNgSpbAeye0CAEEEEAAAQSCUEAB8WEOhyNNTd+kAHmZ7ULnzp376LivUg+dlg8cODAqNTX1BXvd3mdDAAEEEEAAAQQQQAABBBAILAEC5oH1PmgNAggggAACCAS3QHJERERKZGSkU0Hx2xREH61g+VW2SwqmX1xQUJCqw366PjC4u0nrEUAAAQQQQAABBBBAAIHQFCBgHprvlV4hgAACCCCAgB8EFBQvUbX5cXFx1QqU/1FTsNyma096mqLzjTrfqP0szzX2CCCAAAIIIIAAAggggAACgSNAwDxw3gUtQQABBBBAAIHgF8hUQHxllTZ1pSAlJWWgAueH7NKtuI4dO7bc5RqnCCCAAAIIIIAAAggggAACASBAwDwAXgJNQAABBBBAAIGQEPjOzlWu6Vb+rt70rq6uHqepWU5VAH2pzr/T/lXbS+0nR0VF/cMesyGAAAIIIIAAAggggAACCCCAAAIIIIBA4AksU5N6+bBZ6arLBhHZEEAAAQQQCBSBHDWkdaA0hnYggAACCCCAAAJhJrBe/bVrPvl9Y4S5318BDUAAAQQQQACBEBa4UH17JoT7R9cQQAABBBBAAAEEEEAAgZASIGAeUq+TziCAAAIIIIAAAggggAACCCCAAAIIIIAAAgjsqwAB832V4zkEEEAAAQQQQAABBBBAAAEEEEAAAQQQQACBkBIgYB5Sr5POIIAAAggggAACCCCAAAIIIIAAAggggAACCOyrAAHzfZXjOQQQQAABBBBAAAEEEEAAAQQQQAABBBBAAIGQEiBgHlKvk84ggAACCCCAAAIIIIAAAggggAACCCCAAAII7KtA1L4+yHMIIIAAAggggAACCCCAAAIIIIAAAggggAACCOyDwBA900qpzY5nW2r/F6VCJYdSvtKnSj7fCJj7nJwKEUAAAQQQQAABBBBAAAEEEEAAAQQQQACBsBbYHhkZ+c3hhx9enpiY6KytrU3U+aMScc2dOzehpqbmdH/pEDD3lzz1IoAAAggggAACCCCAAAIIIIAAAggggAAC4SmwJiEhYcahhx56wfjx46N3ECS988475quvvvqxoKBgdniy0GsEEEAAgUARWKaG9PJhY9JV11If1kdVCPhL4EJV/Iy/KqdeBBBolECOcrdu1BNkRgABBBBAAAEEEGiKQO8WLVqUZ2ZmuoqLi91p8ODBdkqWvzal0KY+y6KfTRXkeQQQQAABBBBAAAEEEEAAAQQQQAABBBBAAIHGCqyJjo5+6cknn6y2D9rR5Zs2bdqowzcbWxD5EUAAAQQQ8LYAI8y9LUp5CPwiwAhzfhIQCB4BRpgHz7uipQgggAACCCAQOgJ1o8wDYXS5ZWWEeej8cNETBBBAAAEEEEAAAQQQQAABBBBAAAEEEEAgmATsKPOXTzjhBGegjC5n0c9g+vGhrQgggAACCCCAAAIIIIAAAggggAACCCCAQAgJFBUV3V9SUnK+0+l8IBC6RcA8EN4CbUAAAQQQQACBUBFooY6crxSvVK50qJJdUHeMkmebqwM7Lx8bAggggAACCCCAAAIIIBAQAqmpqeclJSUdrdHeLf3RoM2bNy9LSUk5VXXb5NOttra2WgH7r1Xpv7OyssoJmPuUn8oQQAABBBBAIMQFyrTKe7eamppxo0ePrtAIiUj1N0LbQW+99VasfgnLqqysnBbiBnQPAQQQQAABBBBAAAEEgkSgY8eOHVq3bv3hgQce2O2kk05KjouL82fLB/ujcv27zSxYsOBULTp6Z6dOnU7xRxuoEwEEEEAg8ARY9DPw3gktCl6BlKioqKoVK1a4iouL69KAAQMK1aUTg7dbtByBkBdg0c+Qf8V0EAEEEEAAAQR2FdC/U/73xBNPVLnYXB988IGrd+/em1n0c9efEs4RQAABBBBAAIGmCWyOj49/Ur90VniKeeONN0xeXt4anb/nucYeAQQQQAABBBBAAAEEEPCnQFpa2qCWLVsOueqqq6L92Y5AqXvEiBHmqKOOiiNgHihvhHYggAACCCCAQMgIaOqVB6dNmxaZnZ3t7tNDDz20LT8//66Q6SAdQQABBBBAAAEEEEAAgaAX0KDyvoMH+2UWlIC1Gzp0aCsC5gH7emgYAggggAACCASxQN0oc0aXB/FbpOkIIIAAAggggAACCIS2gCMyMpL4cL137HA4DCD1QDhEAAEEEEAAAQS8JeAZZf7Pf/6zgtHl3lKlHAQQQAABBBBAAAEEEECgeQUImDevL6UjgAACCCCAQPgKbNZojbcLCwvLRMDc5eH7c0DPEUAAAQQQQAABBBBAIIgEooKorTQVAQQQQAABBBBolEBqauqRiYmJo2NjY/voq3WORj3shczV1dUxpaWlucnJyfO9UFxji3Cp/rzi4uLXNZf6q419mPwIIIAAAggggAACCCCAQDgKEDAPx7dOnxFAAAEEEAgDgV69et3dqlWrq7Ulpqenh9236rSAj9m6dat5/vnnj9WHBuetXLnylDB47XQRAQQQQAABBBBAAAEEEGiSAAHzJvHxMAIIIIAAAggEokDnzp1P7Nix41Vz585tlZCQEIhN9FmbTjvttNZjx449SqPN71m3bt1tPquYihBAAAEEEEAAAQQQQACBIBQIu9FWQfiOaDICCCCAAAIINFLAjiy/5ZZbksM9WO5hGz9+fKJmpLnCc84eAQQQQAABBBBAAAEEEEBg9wIEzHfvwlUEEEAAAQQQCGIBTUfSb9CgQUHcA+82PS0tzWgB0ph27dolerdkSkMAAQQQQAABBBBAAAEEQkuAgHlovU96gwACCCCAAAISsAt8asNiZwFAdvbgDAEEEEAAAQQQQAABBBD4jQAB89+QcAEBBBBAAAEEEEAAAQTCUMClPvPBUhi+eLqMAAIIIIAAAgjUFyBgXl+DYwQQQAABBBBAAAEEEAhXgWx1vGe4dp5+I4AAAggggAACCPwiQMCcnwQEEEAAAQQQQAABBBBAwJh3hfB3IBBAAAEEEEAAAQTCWyAqvLtP7xFAAAEEEEAAAQQQQAABt8BE/fdtpQ+U5iltU2KKFiGwIYAAAggggEBoCuTn5x9YWVnJ7zu7vF4C5ruAcIoAAggggAACCCCAAAJhKzBSPT9V6WClHmGrQMcRQAABBBBAICwEnE5nD6Ww6GtjOknAvDFa5EUAAQQQQAABBBBAAIFQF3hLHbSJDQEEEEAAAQQQCGmB9u3bnxEfH39oSHdyHzrHHOb7gMYjCCCAAAIIIIAAAggggAACCCCAAAIIIIAAAqEnQMA89N4pPUIAAQQQQAABBBBAAAEEEEAAAQQQQAABBBDYBwEC5vuAxiMIIIAAAggggAACCCCAAAIIIIAAAggggAACoSdAwDz03ik9QgABBBBAAAEEEEAAAQQQQAABBBBAAAEEENgHARb93Ac0HkEAAQQQQAABBBBAAAEEEEAAAQQQQAABBBD4VWDVqlVm4cKFpn///ubggw/+7tqdHQAAIRFJREFU9UYDj0pKSswHH3zgzp2enm6GDBnyu08WFRWZ3Nxc069fv9/N19ibjDBvrBj5EUAAAQQQQAABBBBAAAEEEEAAAQQQQAABBOoEbLD71ltvNTbQ/dxzz5mvvvrKfW/Lli2moqLCVFVVGafT6b5WWVnp3m/fvr3ueXuwdetWM3fuXNOuXTszZcoUs2TJEvf9srKyumftBVuX3TIzM828efNMbW2tu3z3RS/8hxHmXkCkCAQQQAABBBBAAAEEEEAAAQQQQAABBBBAIFwFYmJiTHV1tVm8eLG56qqrTO/evc31119vUlNTzfz58825555rEhISTJ8+fcysWbNMYmKiKSwsNHl5eeaJJ54wDofDTVdeXm7y8/Pdx8nJyWb27Nnm888/N3Y0+Z133mkefPBB07p1a3f+008/3djg+9VXX23GjBljBg8e7BV+Rph7hZFCEEAAAQQQQAABBBBAAAEEEEAAAQQQQACB8BSwo7yfffZZM2DAAPPYY4+Zjz76yBx33HHuQLcdIX7EEUe4R4+/8cYb5swzzzRvvvmme2S4HYG+YsWKOrTY2Fh3QLxt27bmp59+Mq+//rqZNGmSGT16tJkxY4Zp1aqVO3Bun7PlPv/88yYlJcVrwXLbEALmda+DAwQQQAABBBBAAAEEEEAAAQQQQAABBBBAAIHGCmRlZbmnZLEjyIcNG2ays7Pd06r885//NElJSSYqKso9qnzDhg2mV69e7qlb7Kjwo446yh3w9tRn8/bs2dN06dLF5OTkmB49erinZvn222/do9PtNCz2ui0/Li7OPbLcnq9cudJTRJP3TMnSZEIKQAABBBBAAAEEEEAAAQQQQAABBBBAAAEEwlfABsovvvhi88ILL5ju3bu7j+3+6aefNueff76JiIgwl1xySd10K3fccYd79Lh9rk2bNm44O9VK165d3VO22FHjZ5xxhnsU+SuvvGI6dOhg/vrXv7oD7TNnzjQTJ050B9qHDh1qzjrrLPdUMN5e/DN83yY9RwABBBCwAsuUevmQIl11LfVhfVQVZgL6GuDGjIwMF9uvAn379i3V4jmJYfajQHcRQAABBBBAAAEEEEBgDwKdO3c+4/LLLy/69V8NHGnBUhdTsuzhB4bLCCCAAAIIIIAAAggggAACCCCAAAIIIIBAEAvYATN3KrUO4j74vOkEzH1OToUIIIAAAgggEIwCb7/9tnnttdfc6euvv67rgl2t3S5S89VXX7mvFRQU1N2zi9TYZ+wq8J6V3utu7ubgu+++M1VVVbu5wyUEEEAAAQR+K9CpU6fDdDXS3tHxAR07dmz521y/XElLS9tfIwmP3tN9riOAAAIIhKZAZGTkeC2kmd2iRYt71UMC5w14zQTMG4BEFgQQQAABBBBAYPr06UaBCHeyK7PbrbS01NhFa+bNm2cqKirM5s2b3Su464uM7vtvvfWWqampMTExMeaaa65xX7P/KSkpqTu29ysrK93ndm4+u9K7PXc6nXV5OEAAAQQQQGB3Ag6H43L93RS34965Om+vLUXB8371g+cKlPfR3019lXrYvJoXdqAC6J0HDhwYk5qa+oK9b69r31bP9rXHbAgggAACISHg0MKY1d9880382WeffT2B84a9Uxb9bJgTuRBAAAEEEEAgzAVqa2uNHU1uNwUUjH7pdK/6boPbhx56qPnvf/9rRo0aZZYvX24KCwvrFq6xx3bUuF20xm7XXnutsYvZKKjhXsTm8ccfNxrt4X7W3v/+++/di9889thj7kC7veaNrbi4OGrr1q2LVRaReG+AUgYCCCDgX4F+e6o+Ojr6A917USMKR+jvq7N0PFYfwsbp750jdTzDBscVOB+mayfr74bbda2fjgcqUO7Q9QeUb4WC6Btyc3Of1T27Dfxlx38RQAABBIJQwH7zyNGjRw+jf3fE23+LTJ48+foXX3zxev098bj+nbImCPvU7E0mYN7sxFSAAAIIIIAAAqEgYFd11+gMd1eioqLMnDlzzK233uoOonumYxkyZIgZPHhwXbDcZk5MTDRt27Y1GzdudE/dYken33nnnebKK680+kXV3HDDDe5g+oQJE0x8fLx7JPrs2bO9Giy37WjZsmWtRrqfpl+KS+05GwIIIIBA8AsowO2srq52T8miY8W6HfYrTlk5OTkPKei9WdeG69ofFfw+RYHyM3SepJSga2na1ypQbo83Kv8sBcyv3CHSQtd619OZUe+YQwQQQACB4BKwf0fEeJrsCZzrw1Xnv//975v0d8j87du3MwOJB2jHnoD5LiCcIoAAAggggAACuxPQ1xdN796/xA9s4FxfZTeLFy825eXlddk1SsNotJ57GhYbVLebzacghHuKlXbt2pnMzEyjwITJzs42w4YNM4sWLXJP86Kv0Bv9smpmzJhhJk6caLQ6u3sUel3hTTxQ21xJSUmbNMr81/lgmlgmjyOAAAII+F3gM33Yeon+nnlDLdlff79k6zhN32rqrg96D9S1VxQYL7BTsGh/iM5XKE1QQPwmnU/Usd3i7PQtOl+r633098VdOo7/5Zb7v7YcNgQQQACB4BRIUrM3K7n/XJ8yZUrtI488UqZpIT9WulcfpvZISEg4KDi71nytJmDefLaUjAACCCCAAAIhJHDMMceYN998092jLl26mIsuushoVIaxgW7NAWt69eplkpOTTZ8+fcyWLVvcQXIbELdB9SVLlphx48a581533XVm5syZ7qB4//793QuCrly50tx4443myy+/NPbaeeed5w6q6xfYEBKkKwgggAAC3hbQKPKZCpKfrED3xRotfp3Kr9FxjoLeF+j8W40s/0p/T23QN4wu0b2lCoT/qP33unep9u9qurENyjtZH/L+Qx/k3q1ge7ICKOMUbLcB+BwlNgQQQACBEBCoHyjXlJF28c9vd3TLvbZFCHSRLiCAAAIIIOB1gWUqsZfXS91zgem6tXTPt7mDQNMEBgwYsDEjI0NxATaPQN++fUs1wj2xabI8jQACCCAQ6AIKer8a6G2kfQgggAACPhNI0IegVVpDaZZq/M1Icjtd1+WXX17k+TcDe5dL3/R1McLcZz+fVIQAAggggAACCCCAAAIIIIBA8wpotPhlzVsDpSOAAAIIBJGAXa/iMI0q94woD6Km+6+pTOruP3tqRgABBBBAAAEEEEAAAQQQQMCrAps2bSr0aoEUhgACCCAQzAJ2wSWC5Y18gwTMGwlGdgQQQAABBBBAAAEEEEAAAQQQQAABBBBAAIHQFCBgHprvlV4hgAACCCCAAAIIIIAAAggggAACCCCAAAIINFKAgHkjwciOAAIIIIAAAggggAACCCCAAAIIIIAAAgggEJoCBMxD873SKwQQQAABBBBAAAEEEEAAAQQQQAABBBBAAIFGChAwbyQY2RFAAAEEEEAAAQQQQAABBBBAAAEEEEAAAQRCU4CAeWi+V3qFAAIIIIAAAggggAACCCCAAAIIIIAAAggg0EgBAuaNBCM7AggggAACCCCAAAIIIIAAAggggAACCCCAQGgKEDAPzfdKrxBAAAEEEEAAAQQQQAABBBBAAAEEEEAAgd8TcGn7vftheY+AeVi+djqNAAIIIIAAAggggAACCCCAAAIIIIAAAuEsoGB5UV5eXnU4G+za982bN1cRMN9VhXMEEEAAAQQQQAABBBBAAAEEEEAAAQQQQCDEBXJycuYtWbIkeunSpSHe04Z1r7Ky0rz00ksVBMwb5kUuBBBAAAEEEEAAAQQQQAABBBBAAAEEEEAgpAQqKiquOvfcc0v+97//hVS/GtsZfXBgRo0atU0e06Ia+zD5EUAAAQQQQAABBBBAAAEEEEAAAQQQQAABBIJfIDs7+z/qReHVV199d1lZ2YCoqKja4O9V43rgdDodMTExW0pLSx/IzMycSsC8cX7kRgABBBBAAAEEEEAAAQQQQAABBBBAAAEEQkZAQfN3bVKHItPS0mJCpmMN7EhcXJxz5cqVlZ7sBMw9EuwRQAABBBBAAAEEEEAAAQQQQAABBBBAAIHwFajNysoqD9/u/9Jz5jAP958A+o8AAggggAACCCCAAAIIIIAAAggggAACCCDgFiBgzg8CAggggAACCISigEtbKPaLPiGAAAIIIIAAAggggAACCDSjAAHzZsSlaAQQQAABBBDwj4DD4diiOfj8U3kA1qqV3o1S1NatW0sCsHk0CQEEEEAAAQQQQAABBBAIGAEC5gHzKmgIAggggAACCHhLoLi4+Pmnn366yFvlBXs5zzzzTJUWspkV7P2g/QgggAACCCCAAAIIIIBAcwtENncFlI8AAgggEBQCV6qVLysV+qi1bVTP2UpTfFQf1YSZgALmi2pqaoYvWbKkQ3p6emybNm2MnaIl3FJeXp556qmnKqdNm7alqKjotFJtYfajQHcRQAABBBBAAAEEEEAAgUYJRDUqN5kRQAABBBBAAIEgEVi+fPnx5eXl4+fPnz9G+45B0myvNjM6OrpE09O8qelYblHw3FcfiHm1DxSGAAIIIIAAAggggAACCCCAAAIIIICArwWWqcJePqw0XXUt9WF9VIUAAggggAACCCCAAAIIIIAAAgjsVYA5zPdKRAYEEEAAAQQQQAABBBBAAAEEEEAAAQQQQACBcBAgYB4Ob5k+IoAAAggggAACCCCAAAIIIIAAAggggAACCOxVgID5XonIgAACCCCAAAIIIIAAAggggAACCCCAAAIIIBAOAgTMw+Et00cEEEAAAQQQQAABBBBAAAEEEEAAAQQQQACBvQoQMN8rERkQQAABBBBAAAEEEEAAAQQQQAABBBBAAAEEwkGAgHk4vGX6iAACCCCAAAIIIIAAAggggAACCCCAAAIIILBXAQLmeyUiAwIIIIAAAggggAACCCCAAAIIIIAAAggggEA4CBAwD4e3TB8RQAABBBBAAAEEEEAAAQQQQAABBBBAAAEE9ipAwHyvRGRAAAEEEEAAAQQQQAABBBBAAAEEEEAAAQQQCAcBAubh8JbpIwIIIIAAAggggAACCCCAAAIIIIAAAggggMBeBQiY75WIDAgggAACCCCAAAIIIIAAAggggAACCCCAAALhIEDAPBzeMn1EAAEEEEAAAQQQQAABBBBAAAEEEEAAAQQQ2KsAAfO9EpEBAQQQQAABBBBAAAEEEEAAAQQQQAABBBBAIBwECJiHw1umjwgggMDeBXoqS/res3kth0sl9fJaaRSEAAIIIIAAAggggAACCCCAAAIIeEGAgLkXECkCAQQQCAGBEvXBJl9tWb6qiHoQQAABBBBAAAEEEEAAAQQQQACBhgoQMG+oFPkQQACB0BZY4ofuVfmhTqpEAAEEEEAAAQQQQAABBBBAAAEE9ihAwHyPNNxAAAEEEEAAAQQQQAABBBBAAAEEEEAAAQQQCCcBAubh9LbpKwIIIIAAAggggAACCCCAAAIIIIAAAggggMAeBQiY75GGGwgggAACCCCAAAIIIIAAAggggAACCCCAAALhJBAVTp2lrwgggAACfhVI2FG7/bA2VsmhlLTjWu2OfemOPTsEEEAAAQQQQAABBBBAAAEEEEDA5wIEzH1OToUIIIBA2AqMioyMnBYfH18tARssj1fKtRrl5eXRtbW15+jwDXvOhgACCCCAAAIIIIAAAggggAACxrhcrjQ5JGKxk0C1w+FYu9MVL54wJYsXMSkKAQQQQOB3BZ5PSkrKfOmll1rk5OTEKxmlFtOmTWvRqlWrlXqSYPnv8nETAQQQQAABBBBAAAEEEEAAAQSaW4CAeXMLUz4CCCCAQJ1AcXHx3Q8//HBx3QUdPPTQQ9sKCgruqn+NYwQQQAABBBBAAAEEEEAAAQQQQMAfAgTM/aFOnQgggECYCmjaleeXLFmy9dNPP3ULvPvuu2bjxo2ZOmF0eZj+TNBtBBBAAAEEEEAAAQQQQAABBAJJgIB5IL0N2oIAAgiEgUD9UeaMLg+DF04XEUAAAQQQQAABBBBAAAEEEAgiAQLmQfSyaCoCCCAQCgKeUeY33nijHV2+SX1idHkovFj6gAACCCCAAAIIIIAAAggggEAICBAwD4GXSBcQQACBYBOwo8ynT59eq7nLJwZb22kvAggggAACCCCAAAIIIIAAAgiErkBU6HaNniGAAALhK9CmTZuk+Pj4IyXQQsmxN4nc3NyOCQkJRycmJqbVz+t0Omt1z+sjwO0oc9VztJLXy67ffo4RQAABBBBAAAEEEEAAAQQQQACBxgjsNYjSmMLIiwACCCDgf4FOnTr9U6243eFwfOByuUp07Npbq6qrq1tERkZWRkRE1O6StyYnJ2fMLte8ddpdBWV4qzDKQQABBBBAAAEEEEAAAQQQQCDUBPTvejuwLTHU+tXE/lQr5rG2iWXs8XFGmO+RhhsIIIBA8AkoWH61Wn28gt99MjMzcwK8BxkB3j6ahwACCCCAAAIIIIAAAggggEDYCqxYsaH9kh/Xn2kB2ndM/vKoow78PhwwCJiHw1umjwggEE4Ct+pT1mFBECwPp3dCXxFAAAEEEEAAAQQQQAABBBAIOoHCrSXtPY0uLS2vO/ZcC9U9AfNQfbP0CwEEwk4gJSVloILlmdnZ2avDrvN0GAEEEEAAAQQQQAABBBBAAAEEvCrQu1/X9duKtneurqpOSE9P+8GrhQdwYQTMA/jl0DQEEECgMQKafzxGc5tVNuYZ8iKAAAIIIIAAAggggAACCCCAAAK7E2jfPrniLycdNm9390L5GgHzUH679A0BBBBAAAEEEEAAAQQQQAABBBBAAAEEwkagqqrKsWnTz62ioowrOTm5fO2qTZ2Ltpe0T05Oyh00qF92TIxxlpaWRi9fvrFTybay9vEJUSVduqTkpKWllOwBybFuXU7rli1jq1JS2m7fQx5j5zvPyytMbREbU3rwofutq5/Ptmn16k0dCgtL2laWV7WKjo0tad06Mb9fvy55MTExzvp5A+GYgHkgvAXagAACCCCAAAIIIIAAAggggAACCCCAAAIINFHgrVnzLzUuR3Rci+gNleXVnVwuE2uLzP+5xGRu3Ly1e8/OX6xfm3VUTY0zyV1VvtH1fNOhfdaC4ccc9GP96jeuzU7+ZvHKs1RGVJe0jh8rYL6y/n0dOxYuXJ6ek5N3UE2Vs429l5DUcql2dQHztSpj6U9rjqmqqk2x93/Ztpu83Hyzfm3mz4P+0Gder16dCj13AmEfEQiNoA0IIIAAAggggAACCCCAAAIIIIAAAggggAACTRRQsNyWUFFW3eOXYPmvA7gVtG63euWmU+qC5ebXe1u2bjvMBsjr117jcETYYHn9a/WP585Z+KdNGbl/9gTL69+zx5mZ+Qk/fLfqdE+w3GVcrqioiGLjcLkr1vX23y9e8dfc3K0td33Wn+d77LA/G0XdCCCAAAIIIIAAAggggAACCCCAAAIIIIAAAvsmEBFhKrp26fjpwP37bFz247qum3JyhztrXPG2tNj46Mz+/bt/0aZNq/LFi1cMKSosHaxR6REr12Tu1y2984KG1GinYCkqLt1vR97apMT4VZ07tV/dpUf7rZ7nf/hh+RFOpyvOnrdsGb/qD0N6fm2nftm6tSj+26+XDS0uKR/gdJq4775bfeiJJ7b7yPOcv/eMMPf3G6B+BBBAAAEEEEAAAQQQQAABBBBAAAEEEEDAiwKJiS1X2bnEW7aMqTn4sP7rkxLi66ZT6dOny1d9+nTNb9euVdmIEUO/iIhwVNiqK6urdxph/nvNycsp7OK536Vb20+OP/GwTwYN6Z2tedMr7XUFxVtUlFX2tMexMVE5J5582EeeedJVb7nNHxMXudneL91e1tvuA2UjYB4ob4J2IIAAAggggAACCCCAAAIIIIAAAggggAACXhCIjYksq19MbEx03Xn79m1K69+LiIgot+eNCRTXmpq6mUs0Wj2jfnn2eMOG7PYul8Nhjzt0aLvC7nfd2iQnrXFf0+j2Xe/58zygGuNPCOpGAAEEEEAAAQQQQAABBBBAAAEEEEAAAQQQaIBA7a95oqOjf50MfcdlV42zLqAeGxvtDsj/+sQvR1Ex0e6R7bte9/c5AXN/vwHqRwABBBBAAAEEEEAAAQQQQAABBBBAAAEEQkggrmVMXZC8sLi43e66VlZS1mZ31/19jYC5v98A9SOAAAIIIIAAAggggAACCCCAAAIIIIAAAiEk0K9f9zy78KjtUmHh9kHbtpXG1O+ePS8q3t7fXouIithpipj6+fxxXDc03h+VUycCCCCAAAIIIIAAAggggAACCCCAAAIIIIBAaAnExMTUtm2f/N3PedsOc9Y4W348b9HZiYkt1nZIab0pP7+wU1Fhad/aWtPC9rpdu+TvA6n3jDAPpLdBWxBAAAEEEEAAAQQQQAABBBBAAAEEEEAAgRAQOPzwQT/Gxkdn2q7U1tYmbttWMmT1yk2n5P9c8seaGmeSva75zbMOO2zgEnscKBsB80B5E7QDAQQQQAABBBBAAAEEEEAAAQQQQAABBBBogkBCUtzSmJioPGMc9ZblNKZ1u8S8li1j1kZFRRTtWnyb1kkrbeA6IsJRWf9eq1Yx5S0T45fHxET/7Ipw7bSwZ9sOrXPiW8asi4x0lNR/pv6xRpk7Tzhh6LspHVvPj4jYedoV1VXRvmPylyecOPRdm6/+c/4+dvi7AdSPAAIIIOAdgU6dOg1RSf/Kyck50jslUgoCCCCAAAIIIIAAAggggAACCPhTwOVypan+RH+2IQDrrnY4HGubq12MMG8uWcpFAAEEEEAAAQQQQAABBBBAAAEEEEAAAQQQCCoBAuZB9bpoLAIIIIAAAggggAACCCCAAAIIIIAAAggggEBzCRAwby5ZykUAAQQQQAABBBBAAAEEEEAAAQQQQAABBBAIKgEC5kH1umgsAggggAACCCCAAAIIIIAAAggggAACCCCAQHMJEDBvLlnKRQABBBBAAAEEEEAAAQQQQAABBBBAAAEEEAgqAQLmQfW6aCwCCCDQfAKpqamnq/TI+jWkpaUdkp6eHuu5pjx/qnd8YOfOnS/s1KnTuSkpKe091/e0V96h9cuy+VReNz1/gD1u06ZNkufYnns2XWvnOWaPAAIIIIAAAggggAACCCCAAAIINKcAAfPm1KVsBBBAIEgEFBjv7XA4Jik4fZKnyQpwt3U6naPLysoSdc3RtWvX1spzpee+js9xuVxR2ldFRET8x3PdBr49xwceeGB09+7d43acX1RRUdFyx7n77x8990fde8/WFRcX10nHZ9i8HTt2bKmdzaPiHU97Au3t2rWzbXFvPXv2bFW/Ls919ggggAACCCCAAAIIIIAAAggggMC+CkTt64M8hwACCCAQOgIKfP9Ngekx2l+tXs1W4PwpHbt0fFp1dfXdOn+npqZmo87336XXbZXNjkDPttcV+J6hXb5GjrsUDH9h8+bNE3R/u667A+oq4xAF4S9QAPxva9eurbTPaHtdeSZrf489UV1na3esnmldW1s7Qcd9FbQfpuun6rhM+2rtX1Xw/fb4+Hingv0PZmVlfa1rbAgggAACCCCAAAIIIIAAAggggECTBBhh3iQ+HkYAAQRCQiBSAeuzlf6i3hzYpUuXXtqn5+TkXKVr86Kjo3sqmL5W51dqv6F+j3VepDx5Sj0VuN5f+8Ls7OzrdT1Fx5cq4H1HVFTU9XrmIvucgugzdO/OesFyo3wLdStb1+2UMHZI+WjVdZmuT9Xxn7VfHhkZuVS3hus80u6VypSSdC9H1zJ1zIYAAggggAACCCCAAAIIIIAAAgg0WYCAeZMJKQABBBAIbgGN5D5eQed/ayT5ndqPVZD7MvUoUvOSd9d5XwWrbUC8n6ZJ6aG9nTalblPeTbq2UvkiFRjfohvdNQK8i/ZddW2R0uEaVX6E8my2DylgfqKOH9ahw557tpiYmDt0/Sx7rv0a1W3nNT9Mz7ufU9vsqPJ1Kut+7T/UKHUbLJ+i+0vVhgt0jQ0BBBBAAAEEEEAAAQQQQAABBBBosgBTsjSZkAIQQACB4BZQwNmp9O+ff/55u3oyRwH0NAWkn1Nwe7QC0k/rXq6OH9C9UQpSP1Svtx/q+qG6NkTXxmVkZGzWVCx363iM0rWtW7desm3btnNV1n4q5w5dO0ppidKzNqiuUeSbdG+ZAvJRerZC9drAdzudf6c6/6Z7udpe0fU8XRumem7X/gqV9b6mevle14/UtSQF6u10LmwIIIAAAggggAACCCCAAAIIhKKA/Ya1MxQ71oQ+1TbhWR5FAAEEEAgXAQWhhyh9Hi79pZ8IIIAAAggggAACCCCAAAIIIICAtwWYksXbopSHAAIIIIAAAggggAACCCCAAAIIIIAAAgggEJQCBMyD8rXRaAQQQAABBBBAAAEEEEAAAQQQQAABBBBAAAFvCxAw97Yo5SGAAAIIIIAAAggggAACCCCAAAIIIIAAAggEpQAB86B8bTQaAQQQQAABBBBAAAEEEEAAAQQQQAABBBBAwNsCBMy9LUp5CCCAAAIIIIAAAggggAACCCCAAAIIIIAAAkEpQMA8KF8bjUYAAQQQQAABBBBAAAEEEEAAAQQQQAABBBDwtgABc2+LUh4CCCCAAAIIIIAAAggggAACCCCAAAIIIIBAUAoQMA/K10ajEUAAAQQQQAABBBBAAAEEEEAAAQQQQAABBLwtQMDc26KUhwACCCCAAAIIIIAAAggggAACCCCAAAIIIBCUAgTMg/K10WgEEEAAAQQQQAABBBBAAAEEEEAAAQQQQAABbwsQMPe2KOUhgAACCCCAAAIIIIAAAggggAACCCCAAAIIBKUAAfOgfG00GgEEEEAAAQQQQAABBBBAAAEEEEAAAQQQQMDbAgTMvS1KeQgggAACCCCAAAIIIIAAAggggAACCCCAAAJBKUDAPChfG41GAAEEEEAAAQQQQAABBBBAAAEEEEAAAQQQ8LYAAXNvi1IeAggggAACCCCAAAIIIIAAAggggAACCCCAQFAKEDAPytdGoxFA4P/bsWMUBkIgCqBIqkWwFo+QK+7d9jQ5QAohsIUkXUobQYVXO8z/PLshQIAAAQIECBAgQIAAAQIECBAgQGC0gIP5aFH7CBAgQIAAAQIECBAgQIAAAQIECBAgQGBLAQfzLb9NaQIECBAgQIAAAQIECBAgQIAAAQIECBAYLeBgPlrUPgIECEwSaK3dv+hjUrxYAgQIECBAgAABAgQIECBAgAABAgQIECCwjkAp5ZVzfq7TSBMCBAgQIECAAAECBAgQIECAwD4Cj32qakqAAAECPYGU0ieEcMYYr1rruzfvnQABAgQIECBAgAABAgQIECBA4C/wBRf0Z3AdL7s/AAAAAElFTkSuQmCC;" vertex="1" parent="1">
          <mxGeometry x="70" y="190" width="1484" height="673" as="geometry" />
        </mxCell>
      </root>
    </mxGraphModel>
  </diagram>
</mxfile>
